<svg xmlns="http://www.w3.org/2000/svg" xmlns:xlink="http://www.w3.org/1999/xlink" width="150" zoomAndPan="magnify" viewBox="0 0 112.5 60" height="80" preserveAspectRatio="xMidYMid meet" version="1.2"><defs><clipPath id="2689c8225e"><path d="M 95 19 L 96 19 L 96 20 L 95 20 Z M 95 19 "/></clipPath><clipPath id="2cd179b63f"><path d="M 102.714844 0.136719 L 111.394531 52.015625 L 87.554688 56.003906 L 78.875 4.125 Z M 102.714844 0.136719 "/></clipPath><clipPath id="1507f5933f"><path d="M 87.15625 56.023438 L 78.476562 4.144531 L 102.3125 0.15625 L 110.992188 52.039062 Z M 87.15625 56.023438 "/></clipPath><clipPath id="1dcc75c995"><path d="M 101 32 L 102 32 L 102 33 L 101 33 Z M 101 32 "/></clipPath><clipPath id="41681235a8"><path d="M 102.714844 0.136719 L 111.394531 52.015625 L 87.554688 56.003906 L 78.875 4.125 Z M 102.714844 0.136719 "/></clipPath><clipPath id="9a2fb10667"><path d="M 87.15625 56.023438 L 78.476562 4.144531 L 102.3125 0.15625 L 110.992188 52.039062 Z M 87.15625 56.023438 "/></clipPath><clipPath id="6d214f0c55"><path d="M 94 19 L 111 19 L 111 53 L 94 53 Z M 94 19 "/></clipPath><clipPath id="b5d3326d3c"><path d="M 102.714844 0.136719 L 111.394531 52.015625 L 87.554688 56.003906 L 78.875 4.125 Z M 102.714844 0.136719 "/></clipPath><clipPath id="434e32e375"><path d="M 87.15625 56.023438 L 78.476562 4.144531 L 102.3125 0.15625 L 110.992188 52.039062 Z M 87.15625 56.023438 "/></clipPath><clipPath id="1eda7bbdda"><path d="M 98.347656 54.152344 L 92.605469 19.820312 L 105.238281 17.707031 L 110.980469 52.039062 Z M 98.347656 54.152344 "/></clipPath><clipPath id="8f778a70b4"><path d="M 96 5 L 97 5 L 97 6 L 96 6 Z M 96 5 "/></clipPath><clipPath id="98606ecbf5"><path d="M 102.714844 0.136719 L 111.394531 52.015625 L 87.554688 56.003906 L 78.875 4.125 Z M 102.714844 0.136719 "/></clipPath><clipPath id="dbbd66eeaa"><path d="M 87.15625 56.023438 L 78.476562 4.144531 L 102.3125 0.15625 L 110.992188 52.039062 Z M 87.15625 56.023438 "/></clipPath><clipPath id="2f9a40e8f1"><path d="M 79 4 L 97 4 L 97 22 L 79 22 Z M 79 4 "/></clipPath><clipPath id="11bf245c1e"><path d="M 102.714844 0.136719 L 111.394531 52.015625 L 87.554688 56.003906 L 78.875 4.125 Z M 102.714844 0.136719 "/></clipPath><clipPath id="251a52eea8"><path d="M 87.15625 56.023438 L 78.476562 4.144531 L 102.3125 0.15625 L 110.992188 52.039062 Z M 87.15625 56.023438 "/></clipPath></defs><g id="1374e71708"><g style="fill:#ffaa1c;fill-opacity:1;"><g transform="translate(-0.156294, 47.655722)"><path style="stroke:none" d="M 2.375 0 L 2.375 -15.90625 C 2.375 -17.957031 2.957031 -19.566406 4.125 -20.734375 C 5.300781 -21.910156 6.925781 -22.5 9 -22.5 L 15.546875 -22.5 L 15.546875 -16.953125 L 10.671875 -16.953125 C 10.265625 -16.953125 9.914062 -16.8125 9.625 -16.53125 C 9.332031 -16.257812 9.1875 -15.90625 9.1875 -15.46875 L 9.1875 0 Z M 2.375 0 "/></g></g><g style="fill:#ffaa1c;fill-opacity:1;"><g transform="translate(13.550345, 47.655722)"><path style="stroke:none" d="M 11.59375 0.53125 C 9.601562 0.53125 7.847656 0.0195312 6.328125 -1 C 4.804688 -2.03125 3.617188 -3.414062 2.765625 -5.15625 C 1.921875 -6.90625 1.5 -8.878906 1.5 -11.078125 C 1.5 -13.359375 1.992188 -15.398438 2.984375 -17.203125 C 3.984375 -19.003906 5.394531 -20.429688 7.21875 -21.484375 C 9.050781 -22.535156 11.210938 -23.0625 13.703125 -23.0625 C 16.222656 -23.0625 18.367188 -22.539062 20.140625 -21.5 C 21.910156 -20.46875 23.269531 -19.050781 24.21875 -17.25 C 25.175781 -15.445312 25.65625 -13.429688 25.65625 -11.203125 L 25.65625 0 L 18.984375 0 L 18.984375 -3.609375 L 18.8125 -3.609375 C 18.394531 -2.816406 17.863281 -2.101562 17.21875 -1.46875 C 16.570312 -0.84375 15.785156 -0.351562 14.859375 0 C 13.941406 0.351562 12.851562 0.53125 11.59375 0.53125 Z M 13.625 -5.359375 C 14.644531 -5.359375 15.539062 -5.613281 16.3125 -6.125 C 17.09375 -6.632812 17.6875 -7.34375 18.09375 -8.25 C 18.507812 -9.164062 18.71875 -10.179688 18.71875 -11.296875 C 18.71875 -12.378906 18.507812 -13.359375 18.09375 -14.234375 C 17.6875 -15.109375 17.09375 -15.800781 16.3125 -16.3125 C 15.539062 -16.832031 14.644531 -17.09375 13.625 -17.09375 C 12.5625 -17.09375 11.632812 -16.832031 10.84375 -16.3125 C 10.0625 -15.800781 9.460938 -15.109375 9.046875 -14.234375 C 8.640625 -13.359375 8.4375 -12.378906 8.4375 -11.296875 C 8.4375 -10.179688 8.640625 -9.164062 9.046875 -8.25 C 9.460938 -7.34375 10.0625 -6.632812 10.84375 -6.125 C 11.632812 -5.613281 12.5625 -5.359375 13.625 -5.359375 Z M 13.625 -5.359375 "/></g></g><g style="fill:#ffaa1c;fill-opacity:1;"><g transform="translate(39.382146, 47.655722)"><path style="stroke:none" d="M 2.546875 0 L 2.546875 -32.078125 L 9.359375 -32.078125 L 9.359375 -21.046875 C 10.234375 -21.742188 11.195312 -22.253906 12.25 -22.578125 C 13.3125 -22.898438 14.367188 -23.0625 15.421875 -23.0625 C 17.472656 -23.0625 19.207031 -22.625 20.625 -21.75 C 22.050781 -20.875 23.117188 -19.671875 23.828125 -18.140625 C 24.546875 -16.617188 24.90625 -14.894531 24.90625 -12.96875 L 24.90625 0 L 18.109375 0 L 18.109375 -12.703125 C 18.109375 -13.546875 17.910156 -14.296875 17.515625 -14.953125 C 17.117188 -15.617188 16.585938 -16.148438 15.921875 -16.546875 C 15.265625 -16.941406 14.539062 -17.140625 13.75 -17.140625 C 12.957031 -17.140625 12.222656 -16.945312 11.546875 -16.5625 C 10.878906 -16.1875 10.347656 -15.675781 9.953125 -15.03125 C 9.554688 -14.382812 9.359375 -13.648438 9.359375 -12.828125 L 9.359375 0 Z M 2.546875 0 "/></g></g><g style="fill:#ffaa1c;fill-opacity:1;"><g transform="translate(64.511039, 47.655722)"><path style="stroke:none" d="M 11.59375 0.53125 C 9.601562 0.53125 7.847656 0.0195312 6.328125 -1 C 4.804688 -2.03125 3.617188 -3.414062 2.765625 -5.15625 C 1.921875 -6.90625 1.5 -8.878906 1.5 -11.078125 C 1.5 -13.359375 1.992188 -15.398438 2.984375 -17.203125 C 3.984375 -19.003906 5.394531 -20.429688 7.21875 -21.484375 C 9.050781 -22.535156 11.210938 -23.0625 13.703125 -23.0625 C 16.222656 -23.0625 18.367188 -22.539062 20.140625 -21.5 C 21.910156 -20.46875 23.269531 -19.050781 24.21875 -17.25 C 25.175781 -15.445312 25.65625 -13.429688 25.65625 -11.203125 L 25.65625 0 L 18.984375 0 L 18.984375 -3.609375 L 18.8125 -3.609375 C 18.394531 -2.816406 17.863281 -2.101562 17.21875 -1.46875 C 16.570312 -0.84375 15.785156 -0.351562 14.859375 0 C 13.941406 0.351562 12.851562 0.53125 11.59375 0.53125 Z M 13.625 -5.359375 C 14.644531 -5.359375 15.539062 -5.613281 16.3125 -6.125 C 17.09375 -6.632812 17.6875 -7.34375 18.09375 -8.25 C 18.507812 -9.164062 18.71875 -10.179688 18.71875 -11.296875 C 18.71875 -12.378906 18.507812 -13.359375 18.09375 -14.234375 C 17.6875 -15.109375 17.09375 -15.800781 16.3125 -16.3125 C 15.539062 -16.832031 14.644531 -17.09375 13.625 -17.09375 C 12.5625 -17.09375 11.632812 -16.832031 10.84375 -16.3125 C 10.0625 -15.800781 9.460938 -15.109375 9.046875 -14.234375 C 8.640625 -13.359375 8.4375 -12.378906 8.4375 -11.296875 C 8.4375 -10.179688 8.640625 -9.164062 9.046875 -8.25 C 9.460938 -7.34375 10.0625 -6.632812 10.84375 -6.125 C 11.632812 -5.613281 12.5625 -5.359375 13.625 -5.359375 Z M 13.625 -5.359375 "/></g></g><g style="fill:#191919;fill-opacity:1;"><g transform="translate(88.66861, 48.416259)"><path style="stroke:none" d="M 2.578125 0 L 2.578125 -32.46875 L 9.46875 -32.46875 L 9.46875 0 Z M 2.578125 0 "/></g></g><g style="fill:#191919;fill-opacity:1;"><g transform="translate(98.319035, 48.416259)"><path style="stroke:none" d="M 2.578125 0 L 2.578125 -32.46875 L 9.46875 -32.46875 L 9.46875 0 Z M 2.578125 0 "/></g></g><g clip-rule="nonzero" clip-path="url(#2689c8225e)"><g clip-rule="nonzero" clip-path="url(#2cd179b63f)"><g clip-rule="nonzero" clip-path="url(#1507f5933f)"><path style=" stroke:none;fill-rule:nonzero;fill:#ffaa1c;fill-opacity:1;" d="M 95.6875 19.011719 L 95.679688 19.011719 L 95.679688 19.015625 Z M 95.6875 19.011719 "/></g></g></g><g clip-rule="nonzero" clip-path="url(#1dcc75c995)"><g clip-rule="nonzero" clip-path="url(#41681235a8)"><g clip-rule="nonzero" clip-path="url(#9a2fb10667)"><path style=" stroke:none;fill-rule:nonzero;fill:#ffaa1c;fill-opacity:1;" d="M 101.171875 32.1875 L 101.171875 32.183594 C 101.167969 32.1875 101.164062 32.191406 101.160156 32.191406 L 101.160156 32.195312 C 101.164062 32.191406 101.167969 32.1875 101.171875 32.1875 "/></g></g></g><g clip-rule="nonzero" clip-path="url(#6d214f0c55)"><g clip-rule="nonzero" clip-path="url(#b5d3326d3c)"><g clip-rule="nonzero" clip-path="url(#434e32e375)"><g clip-rule="nonzero" clip-path="url(#1eda7bbdda)"><path style=" stroke:none;fill-rule:nonzero;fill:#ffaa1c;fill-opacity:1;" d="M 108.714844 52.195312 C 108.992188 52.023438 109.242188 51.796875 109.445312 51.539062 C 109.648438 51.285156 109.800781 51 109.917969 50.710938 C 110.144531 50.136719 110.230469 49.550781 110.257812 48.984375 C 110.285156 48.414062 110.246094 47.859375 110.179688 47.316406 C 110.113281 46.773438 110.007812 46.242188 109.886719 45.71875 C 109.644531 44.667969 109.320312 43.652344 108.945312 42.660156 C 108.757812 42.164062 108.5625 41.671875 108.351562 41.1875 C 108.144531 40.703125 107.925781 40.222656 107.695312 39.75 C 107.339844 39.007812 106.964844 38.277344 106.570312 37.558594 C 106.316406 37.09375 106.054688 36.632812 105.789062 36.171875 C 105.414062 35.527344 105.027344 34.886719 104.636719 34.25 C 103.976562 33.1875 103.304688 32.140625 102.617188 31.097656 C 102.339844 30.675781 102.0625 30.253906 101.78125 29.835938 C 101.597656 29.554688 101.410156 29.277344 101.222656 28.996094 C 100.0625 27.265625 98.878906 25.546875 97.679688 23.84375 C 96.875 22.707031 96.058594 21.5625 95.238281 20.4375 C 95.089844 20.230469 94.839844 19.894531 94.675781 19.667969 C 94.5625 19.519531 94.332031 19.523438 94.238281 19.6875 C 94.234375 19.695312 94.226562 19.707031 94.222656 19.714844 C 94.128906 19.953125 94.167969 20.230469 94.335938 20.429688 C 94.429688 20.546875 94.535156 20.671875 94.605469 20.761719 C 95.519531 21.867188 96.410156 22.992188 97.269531 24.140625 C 98.515625 25.804688 99.703125 27.511719 100.816406 29.261719 C 100.894531 29.386719 100.96875 29.507812 101.046875 29.632812 C 101.085938 29.695312 101.125 29.757812 101.164062 29.820312 C 101.183594 29.847656 101.199219 29.878906 101.214844 29.90625 C 101.242188 29.945312 101.269531 29.988281 101.296875 30.03125 C 101.320312 30.074219 101.347656 30.117188 101.371094 30.15625 C 101.394531 30.1875 101.410156 30.222656 101.429688 30.253906 C 101.476562 30.328125 101.523438 30.402344 101.570312 30.480469 C 101.636719 30.589844 101.703125 30.699219 101.765625 30.808594 C 101.832031 30.917969 101.886719 31.03125 101.953125 31.140625 C 102.015625 31.25 102.078125 31.359375 102.136719 31.472656 C 102.785156 32.507812 103.339844 33.589844 103.898438 34.667969 C 104.289062 35.429688 104.660156 36.199219 105.039062 36.964844 C 105.277344 37.445312 105.515625 37.921875 105.714844 38.417969 C 105.714844 38.417969 105.714844 38.417969 105.714844 38.421875 L 105.71875 38.425781 C 106.019531 39.03125 106.277344 39.652344 106.539062 40.273438 C 106.640625 40.507812 106.742188 40.742188 106.839844 40.980469 C 106.9375 41.21875 107.035156 41.457031 107.128906 41.695312 C 107.316406 42.171875 107.503906 42.648438 107.675781 43.128906 C 108.023438 44.085938 108.335938 45.054688 108.578125 46.03125 C 108.699219 46.519531 108.796875 47.007812 108.871094 47.496094 C 108.941406 47.980469 108.984375 48.46875 108.972656 48.941406 C 108.964844 49.410156 108.90625 49.871094 108.761719 50.269531 C 108.617188 50.667969 108.394531 50.988281 108.078125 51.203125 C 107.761719 51.421875 107.347656 51.53125 106.898438 51.550781 C 106.449219 51.574219 105.96875 51.507812 105.492188 51.402344 C 105.015625 51.296875 104.539062 51.144531 104.066406 50.96875 C 103.59375 50.792969 103.128906 50.589844 102.664062 50.375 C 101.742188 49.9375 100.839844 49.433594 99.949219 48.90625 C 99.0625 48.378906 98.1875 47.816406 97.320312 47.242188 L 97.226562 47.359375 C 98.007812 48.054688 98.816406 48.722656 99.65625 49.347656 C 100.496094 49.976562 101.371094 50.5625 102.292969 51.09375 C 103.214844 51.613281 104.179688 52.085938 105.238281 52.394531 C 105.769531 52.542969 106.328125 52.652344 106.917969 52.65625 C 107.214844 52.660156 107.519531 52.632812 107.824219 52.558594 C 108.128906 52.488281 108.433594 52.367188 108.714844 52.195312 "/></g></g></g></g><g clip-rule="nonzero" clip-path="url(#8f778a70b4)"><g clip-rule="nonzero" clip-path="url(#98606ecbf5)"><g clip-rule="nonzero" clip-path="url(#dbbd66eeaa)"><path style=" stroke:none;fill-rule:nonzero;fill:#ffaa1c;fill-opacity:1;" d="M 96.375 5.914062 C 96.375 5.914062 96.375 5.914062 96.378906 5.914062 C 96.378906 5.910156 96.378906 5.910156 96.382812 5.910156 L 96.371094 5.898438 C 96.371094 5.902344 96.371094 5.910156 96.375 5.914062 "/></g></g></g><g clip-rule="nonzero" clip-path="url(#2f9a40e8f1)"><g clip-rule="nonzero" clip-path="url(#11bf245c1e)"><g clip-rule="nonzero" clip-path="url(#251a52eea8)"><path style=" stroke:none;fill-rule:nonzero;fill:#ffaa1c;fill-opacity:1;" d="M 92.109375 21.675781 L 92.660156 20.332031 L 92.808594 19.964844 C 92.808594 19.964844 93.171875 19.078125 93.175781 19.070312 C 93.257812 18.867188 93.378906 18.675781 93.554688 18.539062 C 93.710938 18.417969 93.898438 18.359375 94.078125 18.292969 C 94.359375 18.183594 94.640625 18.078125 94.917969 17.972656 L 94.921875 17.96875 L 96.5 17.367188 C 96.714844 17.289062 96.765625 17.101562 96.621094 16.949219 C 96.472656 16.800781 96.167969 16.703125 95.941406 16.734375 L 94.179688 16.988281 L 92.996094 17.160156 L 91.609375 15.636719 L 91.507812 15.527344 L 87.566406 11.191406 L 87.765625 11.113281 L 87.765625 11.109375 L 87.761719 11.09375 L 88.925781 10.582031 L 88.933594 10.578125 L 96 7.730469 C 96.144531 7.671875 96.234375 7.574219 96.179688 7.464844 L 96.175781 7.460938 C 96.15625 7.417969 96.128906 7.371094 96.085938 7.332031 L 95.421875 6.65625 C 95.269531 6.496094 94.96875 6.402344 94.753906 6.445312 L 92.710938 6.851562 C 92.691406 6.800781 92.640625 6.769531 92.601562 6.726562 L 92.308594 6.429688 L 92.230469 6.347656 C 92.074219 6.191406 91.851562 6.144531 91.695312 6.300781 L 91.582031 6.410156 C 91.53125 6.460938 91.492188 6.527344 91.46875 6.59375 C 91.417969 6.742188 91.4375 6.914062 91.542969 7.023438 L 91.609375 7.089844 L 89.824219 7.433594 C 89.808594 7.378906 89.800781 7.308594 89.757812 7.265625 L 89.605469 7.109375 L 89.398438 6.898438 C 89.246094 6.742188 88.980469 6.738281 88.824219 6.894531 L 88.710938 7.003906 C 88.609375 7.105469 88.550781 7.269531 88.570312 7.417969 C 88.578125 7.496094 88.609375 7.566406 88.660156 7.621094 L 88.714844 7.679688 L 86.707031 8.074219 L 86.617188 8.09375 L 85.207031 8.371094 L 85.007812 8.410156 L 83.058594 6.210938 L 83.042969 6.195312 C 82.585938 5.691406 81.445312 4.957031 80.671875 4.804688 C 80.410156 4.753906 80.1875 4.769531 80.050781 4.890625 C 79.921875 5 79.882812 5.191406 79.902344 5.425781 C 79.960938 6.175781 80.636719 7.371094 81.105469 7.886719 C 81.113281 7.894531 81.90625 8.648438 83.0625 9.746094 C 83.101562 9.78125 83.136719 9.816406 83.175781 9.855469 C 83.234375 9.910156 83.292969 9.964844 83.355469 10.023438 L 83.324219 10.15625 L 83.304688 10.242188 L 83.035156 11.449219 L 82.519531 13.746094 L 82.464844 13.6875 C 82.308594 13.53125 82.054688 13.519531 81.898438 13.671875 L 81.785156 13.785156 C 81.625 13.9375 81.667969 14.15625 81.824219 14.3125 L 82.183594 14.679688 C 82.222656 14.722656 82.246094 14.78125 82.296875 14.800781 L 81.867188 16.621094 L 81.800781 16.554688 C 81.648438 16.398438 81.402344 16.375 81.242188 16.527344 L 81.128906 16.640625 C 80.972656 16.792969 80.957031 17.070312 81.113281 17.230469 L 81.480469 17.605469 C 81.523438 17.648438 81.574219 17.679688 81.625 17.699219 L 81.171875 19.734375 C 81.121094 19.949219 81.195312 20.265625 81.351562 20.425781 L 82.011719 21.101562 C 82.167969 21.257812 82.378906 21.210938 82.464844 21.007812 L 85.375 14.289062 L 85.960938 12.933594 L 86.097656 12.621094 C 86.183594 12.699219 86.269531 12.78125 86.355469 12.863281 C 88.699219 15.089844 91.125 17.390625 91.964844 18.1875 L 91.78125 19.308594 L 91.570312 20.578125 L 91.484375 21.105469 C 91.445312 21.328125 91.535156 21.632812 91.683594 21.785156 C 91.832031 21.933594 92.023438 21.886719 92.109375 21.675781 "/></g></g></g><g style="fill:#191919;fill-opacity:1;"><g transform="translate(14.055849, 55.604021)"><path style="stroke:none" d="M 2.203125 -0.796875 L 1.109375 -0.796875 L 0.859375 0 L 0.09375 0 L 1.3125 -3.421875 L 2.015625 -3.421875 L 3.21875 0 L 2.453125 0 Z M 2.015625 -1.375 L 1.65625 -2.484375 L 1.640625 -2.484375 L 1.296875 -1.375 Z M 2.015625 -1.375 "/></g></g><g style="fill:#191919;fill-opacity:1;"><g transform="translate(17.346277, 55.604021)"><path style="stroke:none" d="M 1.125 0.015625 C 0.875 0.015625 0.6875 -0.0195312 0.5625 -0.09375 C 0.4375 -0.175781 0.359375 -0.269531 0.328125 -0.375 C 0.296875 -0.488281 0.28125 -0.632812 0.28125 -0.8125 L 0.296875 -3.671875 L 1.046875 -3.671875 L 1.046875 -0.96875 C 1.046875 -0.851562 1.050781 -0.765625 1.0625 -0.703125 C 1.070312 -0.648438 1.101562 -0.609375 1.15625 -0.578125 C 1.21875 -0.546875 1.304688 -0.53125 1.421875 -0.53125 C 1.484375 -0.53125 1.523438 -0.53125 1.546875 -0.53125 L 1.546875 -0.015625 C 1.398438 0.00390625 1.257812 0.015625 1.125 0.015625 Z M 1.125 0.015625 "/></g></g><g style="fill:#191919;fill-opacity:1;"><g transform="translate(19.062388, 55.604021)"><path style="stroke:none" d="M 1.125 0.015625 C 0.875 0.015625 0.6875 -0.0195312 0.5625 -0.09375 C 0.4375 -0.175781 0.359375 -0.269531 0.328125 -0.375 C 0.296875 -0.488281 0.28125 -0.632812 0.28125 -0.8125 L 0.296875 -3.671875 L 1.046875 -3.671875 L 1.046875 -0.96875 C 1.046875 -0.851562 1.050781 -0.765625 1.0625 -0.703125 C 1.070312 -0.648438 1.101562 -0.609375 1.15625 -0.578125 C 1.21875 -0.546875 1.304688 -0.53125 1.421875 -0.53125 C 1.484375 -0.53125 1.523438 -0.53125 1.546875 -0.53125 L 1.546875 -0.015625 C 1.398438 0.00390625 1.257812 0.015625 1.125 0.015625 Z M 1.125 0.015625 "/></g></g><g style="fill:#191919;fill-opacity:1;"><g transform="translate(20.7785, 55.604021)"><path style="stroke:none" d="M 0.5625 -1.828125 L 2.328125 -1.828125 L 2.328125 -1.234375 L 0.5625 -1.234375 Z M 0.5625 -1.828125 "/></g></g><g style="fill:#191919;fill-opacity:1;"><g transform="translate(23.668019, 55.604021)"><path style="stroke:none" d="M 0.34375 -2.59375 L 1.09375 -2.59375 L 1.09375 0 L 0.34375 0 Z M 0.71875 -3.015625 C 0.601562 -3.015625 0.503906 -3.050781 0.421875 -3.125 C 0.347656 -3.207031 0.3125 -3.304688 0.3125 -3.421875 C 0.3125 -3.546875 0.347656 -3.644531 0.421875 -3.71875 C 0.503906 -3.800781 0.601562 -3.84375 0.71875 -3.84375 C 0.832031 -3.84375 0.929688 -3.800781 1.015625 -3.71875 C 1.097656 -3.644531 1.140625 -3.546875 1.140625 -3.421875 C 1.140625 -3.304688 1.097656 -3.207031 1.015625 -3.125 C 0.929688 -3.050781 0.832031 -3.015625 0.71875 -3.015625 Z M 0.71875 -3.015625 "/></g></g><g style="fill:#191919;fill-opacity:1;"><g transform="translate(25.110332, 55.604021)"><path style="stroke:none" d="M 0.25 -2.59375 L 1.015625 -2.59375 L 1.015625 -2.203125 L 1.0625 -2.203125 C 1.113281 -2.328125 1.203125 -2.429688 1.328125 -2.515625 C 1.453125 -2.597656 1.601562 -2.640625 1.78125 -2.640625 C 2.125 -2.640625 2.359375 -2.53125 2.484375 -2.3125 C 2.617188 -2.101562 2.6875 -1.867188 2.6875 -1.609375 L 2.6875 0 L 1.921875 0 L 1.921875 -1.46875 C 1.921875 -1.632812 1.882812 -1.765625 1.8125 -1.859375 C 1.738281 -1.960938 1.628906 -2.015625 1.484375 -2.015625 C 1.328125 -2.015625 1.207031 -1.960938 1.125 -1.859375 C 1.050781 -1.765625 1.015625 -1.632812 1.015625 -1.46875 L 1.015625 0 L 0.25 0 Z M 0.25 -2.59375 "/></g></g><g style="fill:#191919;fill-opacity:1;"><g transform="translate(28.034076, 55.604021)"><path style="stroke:none" d="M 0.5625 -1.828125 L 2.328125 -1.828125 L 2.328125 -1.234375 L 0.5625 -1.234375 Z M 0.5625 -1.828125 "/></g></g><g style="fill:#191919;fill-opacity:1;"><g transform="translate(30.923595, 55.604021)"><path style="stroke:none" d="M 1.765625 0.046875 C 1.421875 0.046875 1.128906 -0.03125 0.890625 -0.1875 C 0.648438 -0.351562 0.472656 -0.566406 0.359375 -0.828125 C 0.242188 -1.097656 0.1875 -1.394531 0.1875 -1.71875 C 0.1875 -2.039062 0.242188 -2.332031 0.359375 -2.59375 C 0.484375 -2.863281 0.660156 -3.078125 0.890625 -3.234375 C 1.128906 -3.398438 1.421875 -3.484375 1.765625 -3.484375 C 2.097656 -3.484375 2.378906 -3.40625 2.609375 -3.25 C 2.847656 -3.09375 3.023438 -2.878906 3.140625 -2.609375 C 3.265625 -2.335938 3.328125 -2.035156 3.328125 -1.703125 C 3.328125 -1.378906 3.265625 -1.082031 3.140625 -0.8125 C 3.023438 -0.550781 2.847656 -0.34375 2.609375 -0.1875 C 2.378906 -0.03125 2.097656 0.046875 1.765625 0.046875 Z M 1.765625 -0.640625 C 2.003906 -0.640625 2.1875 -0.738281 2.3125 -0.9375 C 2.445312 -1.144531 2.515625 -1.40625 2.515625 -1.71875 C 2.515625 -2.019531 2.445312 -2.273438 2.3125 -2.484375 C 2.1875 -2.703125 2.003906 -2.8125 1.765625 -2.8125 C 1.597656 -2.8125 1.453125 -2.757812 1.328125 -2.65625 C 1.210938 -2.5625 1.128906 -2.429688 1.078125 -2.265625 C 1.023438 -2.097656 1 -1.914062 1 -1.71875 C 1 -1.414062 1.0625 -1.160156 1.1875 -0.953125 C 1.320312 -0.742188 1.515625 -0.640625 1.765625 -0.640625 Z M 1.765625 -0.640625 "/></g></g><g style="fill:#191919;fill-opacity:1;"><g transform="translate(34.453597, 55.604021)"><path style="stroke:none" d="M 0.25 -2.59375 L 1.015625 -2.59375 L 1.015625 -2.203125 L 1.0625 -2.203125 C 1.113281 -2.328125 1.203125 -2.429688 1.328125 -2.515625 C 1.453125 -2.597656 1.601562 -2.640625 1.78125 -2.640625 C 2.125 -2.640625 2.359375 -2.53125 2.484375 -2.3125 C 2.617188 -2.101562 2.6875 -1.867188 2.6875 -1.609375 L 2.6875 0 L 1.921875 0 L 1.921875 -1.46875 C 1.921875 -1.632812 1.882812 -1.765625 1.8125 -1.859375 C 1.738281 -1.960938 1.628906 -2.015625 1.484375 -2.015625 C 1.328125 -2.015625 1.207031 -1.960938 1.125 -1.859375 C 1.050781 -1.765625 1.015625 -1.632812 1.015625 -1.46875 L 1.015625 0 L 0.25 0 Z M 0.25 -2.59375 "/></g></g><g style="fill:#191919;fill-opacity:1;"><g transform="translate(37.377341, 55.604021)"><path style="stroke:none" d="M 1.421875 0.046875 C 1.148438 0.046875 0.921875 -0.015625 0.734375 -0.140625 C 0.546875 -0.265625 0.40625 -0.425781 0.3125 -0.625 C 0.226562 -0.832031 0.1875 -1.054688 0.1875 -1.296875 C 0.1875 -1.523438 0.226562 -1.742188 0.3125 -1.953125 C 0.40625 -2.160156 0.546875 -2.328125 0.734375 -2.453125 C 0.921875 -2.578125 1.15625 -2.640625 1.4375 -2.640625 C 1.800781 -2.640625 2.085938 -2.523438 2.296875 -2.296875 C 2.515625 -2.066406 2.625 -1.734375 2.625 -1.296875 L 2.625 -1.078125 L 0.921875 -1.078125 L 0.921875 -1.046875 C 0.921875 -0.910156 0.960938 -0.796875 1.046875 -0.703125 C 1.140625 -0.609375 1.257812 -0.5625 1.40625 -0.5625 C 1.519531 -0.5625 1.613281 -0.582031 1.6875 -0.625 C 1.769531 -0.675781 1.828125 -0.75 1.859375 -0.84375 L 2.609375 -0.84375 C 2.546875 -0.582031 2.410156 -0.367188 2.203125 -0.203125 C 1.992188 -0.0351562 1.734375 0.046875 1.421875 0.046875 Z M 1.890625 -1.578125 C 1.890625 -1.753906 1.847656 -1.882812 1.765625 -1.96875 C 1.679688 -2.050781 1.566406 -2.09375 1.421875 -2.09375 C 1.273438 -2.09375 1.15625 -2.046875 1.0625 -1.953125 C 0.976562 -1.859375 0.9375 -1.734375 0.9375 -1.578125 Z M 1.890625 -1.578125 "/></g></g><g style="fill:#191919;fill-opacity:1;"><g transform="translate(40.18374, 55.604021)"><path style="stroke:none" d=""/></g></g><g style="fill:#191919;fill-opacity:1;"><g transform="translate(41.308258, 55.604021)"><path style="stroke:none" d="M 0.25 -3.421875 L 1.71875 -3.421875 C 1.925781 -3.421875 2.101562 -3.378906 2.25 -3.296875 C 2.394531 -3.222656 2.503906 -3.117188 2.578125 -2.984375 C 2.648438 -2.859375 2.6875 -2.710938 2.6875 -2.546875 C 2.6875 -2.359375 2.632812 -2.203125 2.53125 -2.078125 C 2.4375 -1.953125 2.328125 -1.875 2.203125 -1.84375 L 2.203125 -1.8125 C 2.296875 -1.800781 2.394531 -1.765625 2.5 -1.703125 C 2.613281 -1.640625 2.707031 -1.546875 2.78125 -1.421875 C 2.851562 -1.304688 2.890625 -1.164062 2.890625 -1 C 2.890625 -0.832031 2.851562 -0.671875 2.78125 -0.515625 C 2.707031 -0.359375 2.585938 -0.234375 2.421875 -0.140625 C 2.265625 -0.046875 2.066406 0 1.828125 0 L 0.25 0 Z M 1.484375 -2.03125 C 1.617188 -2.03125 1.734375 -2.0625 1.828125 -2.125 C 1.921875 -2.1875 1.96875 -2.289062 1.96875 -2.4375 C 1.96875 -2.570312 1.921875 -2.671875 1.828125 -2.734375 C 1.734375 -2.796875 1.617188 -2.828125 1.484375 -2.828125 L 1 -2.828125 L 1 -2.03125 Z M 1.65625 -0.59375 C 1.789062 -0.59375 1.910156 -0.625 2.015625 -0.6875 C 2.117188 -0.757812 2.171875 -0.878906 2.171875 -1.046875 C 2.171875 -1.203125 2.117188 -1.3125 2.015625 -1.375 C 1.910156 -1.445312 1.789062 -1.484375 1.65625 -1.484375 L 1 -1.484375 L 1 -0.59375 Z M 1.65625 -0.59375 "/></g></g><g style="fill:#191919;fill-opacity:1;"><g transform="translate(44.359118, 55.604021)"><path style="stroke:none" d="M 1.421875 0.046875 C 1.148438 0.046875 0.921875 -0.0078125 0.734375 -0.125 C 0.546875 -0.25 0.40625 -0.410156 0.3125 -0.609375 C 0.226562 -0.816406 0.1875 -1.046875 0.1875 -1.296875 C 0.1875 -1.535156 0.226562 -1.757812 0.3125 -1.96875 C 0.40625 -2.175781 0.546875 -2.335938 0.734375 -2.453125 C 0.921875 -2.578125 1.148438 -2.640625 1.421875 -2.640625 C 1.703125 -2.640625 1.9375 -2.578125 2.125 -2.453125 C 2.3125 -2.335938 2.445312 -2.175781 2.53125 -1.96875 C 2.625 -1.769531 2.671875 -1.546875 2.671875 -1.296875 C 2.671875 -1.054688 2.625 -0.832031 2.53125 -0.625 C 2.445312 -0.425781 2.3125 -0.265625 2.125 -0.140625 C 1.9375 -0.015625 1.703125 0.046875 1.421875 0.046875 Z M 1.421875 -0.5625 C 1.597656 -0.5625 1.722656 -0.628906 1.796875 -0.765625 C 1.878906 -0.910156 1.921875 -1.09375 1.921875 -1.3125 C 1.921875 -1.519531 1.878906 -1.691406 1.796875 -1.828125 C 1.722656 -1.960938 1.597656 -2.03125 1.421875 -2.03125 C 1.253906 -2.03125 1.128906 -1.960938 1.046875 -1.828125 C 0.960938 -1.691406 0.921875 -1.519531 0.921875 -1.3125 C 0.921875 -1.09375 0.960938 -0.910156 1.046875 -0.765625 C 1.128906 -0.628906 1.253906 -0.5625 1.421875 -0.5625 Z M 1.421875 -0.5625 "/></g></g><g style="fill:#191919;fill-opacity:1;"><g transform="translate(47.214413, 55.604021)"><path style="stroke:none" d="M 1.421875 0.046875 C 1.148438 0.046875 0.921875 -0.0078125 0.734375 -0.125 C 0.546875 -0.25 0.40625 -0.410156 0.3125 -0.609375 C 0.226562 -0.816406 0.1875 -1.046875 0.1875 -1.296875 C 0.1875 -1.535156 0.226562 -1.757812 0.3125 -1.96875 C 0.40625 -2.175781 0.546875 -2.335938 0.734375 -2.453125 C 0.921875 -2.578125 1.148438 -2.640625 1.421875 -2.640625 C 1.703125 -2.640625 1.9375 -2.578125 2.125 -2.453125 C 2.3125 -2.335938 2.445312 -2.175781 2.53125 -1.96875 C 2.625 -1.769531 2.671875 -1.546875 2.671875 -1.296875 C 2.671875 -1.054688 2.625 -0.832031 2.53125 -0.625 C 2.445312 -0.425781 2.3125 -0.265625 2.125 -0.140625 C 1.9375 -0.015625 1.703125 0.046875 1.421875 0.046875 Z M 1.421875 -0.5625 C 1.597656 -0.5625 1.722656 -0.628906 1.796875 -0.765625 C 1.878906 -0.910156 1.921875 -1.09375 1.921875 -1.3125 C 1.921875 -1.519531 1.878906 -1.691406 1.796875 -1.828125 C 1.722656 -1.960938 1.597656 -2.03125 1.421875 -2.03125 C 1.253906 -2.03125 1.128906 -1.960938 1.046875 -1.828125 C 0.960938 -1.691406 0.921875 -1.519531 0.921875 -1.3125 C 0.921875 -1.09375 0.960938 -0.910156 1.046875 -0.765625 C 1.128906 -0.628906 1.253906 -0.5625 1.421875 -0.5625 Z M 1.421875 -0.5625 "/></g></g><g style="fill:#191919;fill-opacity:1;"><g transform="translate(50.069709, 55.604021)"><path style="stroke:none" d="M 0.28125 -3.625 L 1.0625 -3.625 L 1.0625 -1.609375 L 1.078125 -1.609375 L 1.796875 -2.59375 L 2.640625 -2.59375 L 1.78125 -1.390625 L 2.65625 0 L 1.8125 0 L 1.078125 -1.234375 L 1.0625 -1.234375 L 1.0625 0 L 0.28125 0 Z M 0.28125 -3.625 "/></g></g><g style="fill:#191919;fill-opacity:1;"><g transform="translate(52.885887, 55.604021)"><path style="stroke:none" d="M 0.34375 -2.59375 L 1.09375 -2.59375 L 1.09375 0 L 0.34375 0 Z M 0.71875 -3.015625 C 0.601562 -3.015625 0.503906 -3.050781 0.421875 -3.125 C 0.347656 -3.207031 0.3125 -3.304688 0.3125 -3.421875 C 0.3125 -3.546875 0.347656 -3.644531 0.421875 -3.71875 C 0.503906 -3.800781 0.601562 -3.84375 0.71875 -3.84375 C 0.832031 -3.84375 0.929688 -3.800781 1.015625 -3.71875 C 1.097656 -3.644531 1.140625 -3.546875 1.140625 -3.421875 C 1.140625 -3.304688 1.097656 -3.207031 1.015625 -3.125 C 0.929688 -3.050781 0.832031 -3.015625 0.71875 -3.015625 Z M 0.71875 -3.015625 "/></g></g><g style="fill:#191919;fill-opacity:1;"><g transform="translate(54.3282, 55.604021)"><path style="stroke:none" d="M 0.25 -2.59375 L 1.015625 -2.59375 L 1.015625 -2.203125 L 1.0625 -2.203125 C 1.113281 -2.328125 1.203125 -2.429688 1.328125 -2.515625 C 1.453125 -2.597656 1.601562 -2.640625 1.78125 -2.640625 C 2.125 -2.640625 2.359375 -2.53125 2.484375 -2.3125 C 2.617188 -2.101562 2.6875 -1.867188 2.6875 -1.609375 L 2.6875 0 L 1.921875 0 L 1.921875 -1.46875 C 1.921875 -1.632812 1.882812 -1.765625 1.8125 -1.859375 C 1.738281 -1.960938 1.628906 -2.015625 1.484375 -2.015625 C 1.328125 -2.015625 1.207031 -1.960938 1.125 -1.859375 C 1.050781 -1.765625 1.015625 -1.632812 1.015625 -1.46875 L 1.015625 0 L 0.25 0 Z M 0.25 -2.59375 "/></g></g><g style="fill:#191919;fill-opacity:1;"><g transform="translate(57.251944, 55.604021)"><path style="stroke:none" d="M 1.5 1.109375 C 1.382812 1.109375 1.296875 1.097656 1.234375 1.078125 C 1.171875 1.066406 1.125 1.054688 1.09375 1.046875 C 1.0625 1.035156 1.046875 1.023438 1.046875 1.015625 L 1.046875 0.421875 C 1.078125 0.429688 1.128906 0.441406 1.203125 0.453125 C 1.273438 0.460938 1.34375 0.46875 1.40625 0.46875 C 1.789062 0.46875 1.984375 0.253906 1.984375 -0.171875 L 1.984375 -0.46875 L 1.9375 -0.46875 C 1.882812 -0.363281 1.796875 -0.257812 1.671875 -0.15625 C 1.554688 -0.0625 1.390625 -0.015625 1.171875 -0.015625 C 0.867188 -0.015625 0.628906 -0.132812 0.453125 -0.375 C 0.273438 -0.613281 0.1875 -0.929688 0.1875 -1.328125 C 0.1875 -1.585938 0.222656 -1.816406 0.296875 -2.015625 C 0.378906 -2.222656 0.492188 -2.378906 0.640625 -2.484375 C 0.796875 -2.585938 0.976562 -2.640625 1.1875 -2.640625 C 1.394531 -2.640625 1.5625 -2.585938 1.6875 -2.484375 C 1.8125 -2.378906 1.894531 -2.28125 1.9375 -2.1875 L 1.984375 -2.1875 L 1.984375 -2.59375 L 2.75 -2.59375 L 2.75 -0.171875 C 2.75 0.117188 2.664062 0.40625 2.5 0.6875 C 2.332031 0.96875 2 1.109375 1.5 1.109375 Z M 1.46875 -0.625 C 1.632812 -0.625 1.757812 -0.695312 1.84375 -0.84375 C 1.9375 -0.988281 1.984375 -1.148438 1.984375 -1.328125 C 1.984375 -1.515625 1.941406 -1.675781 1.859375 -1.8125 C 1.773438 -1.957031 1.644531 -2.03125 1.46875 -2.03125 C 1.289062 -2.03125 1.160156 -1.957031 1.078125 -1.8125 C 0.992188 -1.675781 0.953125 -1.515625 0.953125 -1.328125 C 0.953125 -1.148438 0.992188 -0.988281 1.078125 -0.84375 C 1.160156 -0.695312 1.289062 -0.625 1.46875 -0.625 Z M 1.46875 -0.625 "/></g></g><g style="fill:#191919;fill-opacity:1;"><g transform="translate(60.249021, 55.604021)"><path style="stroke:none" d=""/></g></g><g style="fill:#191919;fill-opacity:1;"><g transform="translate(61.373539, 55.604021)"><path style="stroke:none" d="M 0.25 -3.421875 L 1.390625 -3.421875 L 2.0625 -1.484375 L 2.078125 -1.484375 L 2.75 -3.421875 L 3.875 -3.421875 L 3.875 0 L 3.125 0 L 3.125 -2.34375 L 3.109375 -2.34375 L 2.3125 0 L 1.828125 0 L 1.015625 -2.34375 L 1 -2.34375 L 1 0 L 0.25 0 Z M 0.25 -3.421875 "/></g></g><g style="fill:#191919;fill-opacity:1;"><g transform="translate(65.504914, 55.604021)"><path style="stroke:none" d="M 1.15625 0.046875 C 0.84375 0.046875 0.597656 -0.0703125 0.421875 -0.3125 C 0.242188 -0.5625 0.15625 -0.890625 0.15625 -1.296875 C 0.15625 -1.703125 0.242188 -2.023438 0.421875 -2.265625 C 0.597656 -2.515625 0.847656 -2.640625 1.171875 -2.640625 C 1.390625 -2.640625 1.554688 -2.59375 1.671875 -2.5 C 1.785156 -2.40625 1.867188 -2.304688 1.921875 -2.203125 L 1.953125 -2.203125 L 1.953125 -2.59375 L 2.71875 -2.59375 L 2.71875 0 L 1.953125 0 L 1.953125 -0.421875 L 1.921875 -0.421875 C 1.867188 -0.316406 1.78125 -0.210938 1.65625 -0.109375 C 1.539062 -0.00390625 1.375 0.046875 1.15625 0.046875 Z M 1.453125 -0.5625 C 1.617188 -0.5625 1.742188 -0.632812 1.828125 -0.78125 C 1.921875 -0.925781 1.96875 -1.097656 1.96875 -1.296875 C 1.96875 -1.492188 1.921875 -1.664062 1.828125 -1.8125 C 1.742188 -1.957031 1.617188 -2.03125 1.453125 -2.03125 C 1.265625 -2.03125 1.128906 -1.957031 1.046875 -1.8125 C 0.960938 -1.675781 0.921875 -1.507812 0.921875 -1.3125 C 0.921875 -1.101562 0.960938 -0.925781 1.046875 -0.78125 C 1.128906 -0.632812 1.265625 -0.5625 1.453125 -0.5625 Z M 1.453125 -0.5625 "/></g></g><g style="fill:#191919;fill-opacity:1;"><g transform="translate(68.516664, 55.604021)"><path style="stroke:none" d="M 0.25 -2.59375 L 1.015625 -2.59375 L 1.015625 -2.203125 L 1.0625 -2.203125 C 1.113281 -2.328125 1.203125 -2.429688 1.328125 -2.515625 C 1.453125 -2.597656 1.601562 -2.640625 1.78125 -2.640625 C 2.125 -2.640625 2.359375 -2.53125 2.484375 -2.3125 C 2.617188 -2.101562 2.6875 -1.867188 2.6875 -1.609375 L 2.6875 0 L 1.921875 0 L 1.921875 -1.46875 C 1.921875 -1.632812 1.882812 -1.765625 1.8125 -1.859375 C 1.738281 -1.960938 1.628906 -2.015625 1.484375 -2.015625 C 1.328125 -2.015625 1.207031 -1.960938 1.125 -1.859375 C 1.050781 -1.765625 1.015625 -1.632812 1.015625 -1.46875 L 1.015625 0 L 0.25 0 Z M 0.25 -2.59375 "/></g></g><g style="fill:#191919;fill-opacity:1;"><g transform="translate(71.440407, 55.604021)"><path style="stroke:none" d="M 1.15625 0.046875 C 0.84375 0.046875 0.597656 -0.0703125 0.421875 -0.3125 C 0.242188 -0.5625 0.15625 -0.890625 0.15625 -1.296875 C 0.15625 -1.703125 0.242188 -2.023438 0.421875 -2.265625 C 0.597656 -2.515625 0.847656 -2.640625 1.171875 -2.640625 C 1.390625 -2.640625 1.554688 -2.59375 1.671875 -2.5 C 1.785156 -2.40625 1.867188 -2.304688 1.921875 -2.203125 L 1.953125 -2.203125 L 1.953125 -2.59375 L 2.71875 -2.59375 L 2.71875 0 L 1.953125 0 L 1.953125 -0.421875 L 1.921875 -0.421875 C 1.867188 -0.316406 1.78125 -0.210938 1.65625 -0.109375 C 1.539062 -0.00390625 1.375 0.046875 1.15625 0.046875 Z M 1.453125 -0.5625 C 1.617188 -0.5625 1.742188 -0.632812 1.828125 -0.78125 C 1.921875 -0.925781 1.96875 -1.097656 1.96875 -1.296875 C 1.96875 -1.492188 1.921875 -1.664062 1.828125 -1.8125 C 1.742188 -1.957031 1.617188 -2.03125 1.453125 -2.03125 C 1.265625 -2.03125 1.128906 -1.957031 1.046875 -1.8125 C 0.960938 -1.675781 0.921875 -1.507812 0.921875 -1.3125 C 0.921875 -1.101562 0.960938 -0.925781 1.046875 -0.78125 C 1.128906 -0.632812 1.265625 -0.5625 1.453125 -0.5625 Z M 1.453125 -0.5625 "/></g></g><g style="fill:#191919;fill-opacity:1;"><g transform="translate(74.452157, 55.604021)"><path style="stroke:none" d="M 1.5 1.109375 C 1.382812 1.109375 1.296875 1.097656 1.234375 1.078125 C 1.171875 1.066406 1.125 1.054688 1.09375 1.046875 C 1.0625 1.035156 1.046875 1.023438 1.046875 1.015625 L 1.046875 0.421875 C 1.078125 0.429688 1.128906 0.441406 1.203125 0.453125 C 1.273438 0.460938 1.34375 0.46875 1.40625 0.46875 C 1.789062 0.46875 1.984375 0.253906 1.984375 -0.171875 L 1.984375 -0.46875 L 1.9375 -0.46875 C 1.882812 -0.363281 1.796875 -0.257812 1.671875 -0.15625 C 1.554688 -0.0625 1.390625 -0.015625 1.171875 -0.015625 C 0.867188 -0.015625 0.628906 -0.132812 0.453125 -0.375 C 0.273438 -0.613281 0.1875 -0.929688 0.1875 -1.328125 C 0.1875 -1.585938 0.222656 -1.816406 0.296875 -2.015625 C 0.378906 -2.222656 0.492188 -2.378906 0.640625 -2.484375 C 0.796875 -2.585938 0.976562 -2.640625 1.1875 -2.640625 C 1.394531 -2.640625 1.5625 -2.585938 1.6875 -2.484375 C 1.8125 -2.378906 1.894531 -2.28125 1.9375 -2.1875 L 1.984375 -2.1875 L 1.984375 -2.59375 L 2.75 -2.59375 L 2.75 -0.171875 C 2.75 0.117188 2.664062 0.40625 2.5 0.6875 C 2.332031 0.96875 2 1.109375 1.5 1.109375 Z M 1.46875 -0.625 C 1.632812 -0.625 1.757812 -0.695312 1.84375 -0.84375 C 1.9375 -0.988281 1.984375 -1.148438 1.984375 -1.328125 C 1.984375 -1.515625 1.941406 -1.675781 1.859375 -1.8125 C 1.773438 -1.957031 1.644531 -2.03125 1.46875 -2.03125 C 1.289062 -2.03125 1.160156 -1.957031 1.078125 -1.8125 C 0.992188 -1.675781 0.953125 -1.515625 0.953125 -1.328125 C 0.953125 -1.148438 0.992188 -0.988281 1.078125 -0.84375 C 1.160156 -0.695312 1.289062 -0.625 1.46875 -0.625 Z M 1.46875 -0.625 "/></g></g><g style="fill:#191919;fill-opacity:1;"><g transform="translate(77.449235, 55.604021)"><path style="stroke:none" d="M 1.421875 0.046875 C 1.148438 0.046875 0.921875 -0.015625 0.734375 -0.140625 C 0.546875 -0.265625 0.40625 -0.425781 0.3125 -0.625 C 0.226562 -0.832031 0.1875 -1.054688 0.1875 -1.296875 C 0.1875 -1.523438 0.226562 -1.742188 0.3125 -1.953125 C 0.40625 -2.160156 0.546875 -2.328125 0.734375 -2.453125 C 0.921875 -2.578125 1.15625 -2.640625 1.4375 -2.640625 C 1.800781 -2.640625 2.085938 -2.523438 2.296875 -2.296875 C 2.515625 -2.066406 2.625 -1.734375 2.625 -1.296875 L 2.625 -1.078125 L 0.921875 -1.078125 L 0.921875 -1.046875 C 0.921875 -0.910156 0.960938 -0.796875 1.046875 -0.703125 C 1.140625 -0.609375 1.257812 -0.5625 1.40625 -0.5625 C 1.519531 -0.5625 1.613281 -0.582031 1.6875 -0.625 C 1.769531 -0.675781 1.828125 -0.75 1.859375 -0.84375 L 2.609375 -0.84375 C 2.546875 -0.582031 2.410156 -0.367188 2.203125 -0.203125 C 1.992188 -0.0351562 1.734375 0.046875 1.421875 0.046875 Z M 1.890625 -1.578125 C 1.890625 -1.753906 1.847656 -1.882812 1.765625 -1.96875 C 1.679688 -2.050781 1.566406 -2.09375 1.421875 -2.09375 C 1.273438 -2.09375 1.15625 -2.046875 1.0625 -1.953125 C 0.976562 -1.859375 0.9375 -1.734375 0.9375 -1.578125 Z M 1.890625 -1.578125 "/></g></g><g style="fill:#191919;fill-opacity:1;"><g transform="translate(80.255634, 55.604021)"><path style="stroke:none" d="M 0.25 -2.59375 L 1.015625 -2.59375 L 1.015625 -2.1875 L 1.046875 -2.1875 C 1.066406 -2.226562 1.097656 -2.28125 1.140625 -2.34375 C 1.191406 -2.414062 1.269531 -2.484375 1.375 -2.546875 C 1.476562 -2.609375 1.601562 -2.640625 1.75 -2.640625 C 1.90625 -2.640625 2.035156 -2.601562 2.140625 -2.53125 C 2.253906 -2.457031 2.335938 -2.378906 2.390625 -2.296875 C 2.441406 -2.210938 2.472656 -2.148438 2.484375 -2.109375 L 2.53125 -2.109375 C 2.570312 -2.222656 2.648438 -2.335938 2.765625 -2.453125 C 2.878906 -2.578125 3.0625 -2.640625 3.3125 -2.640625 C 3.539062 -2.640625 3.71875 -2.578125 3.84375 -2.453125 C 3.976562 -2.335938 4.066406 -2.203125 4.109375 -2.046875 C 4.160156 -1.890625 4.1875 -1.742188 4.1875 -1.609375 L 4.1875 0 L 3.4375 0 L 3.4375 -1.515625 C 3.4375 -1.671875 3.394531 -1.785156 3.3125 -1.859375 C 3.226562 -1.941406 3.128906 -1.984375 3.015625 -1.984375 C 2.898438 -1.984375 2.800781 -1.941406 2.71875 -1.859375 C 2.644531 -1.785156 2.609375 -1.671875 2.609375 -1.515625 L 2.609375 0 L 1.84375 0 L 1.84375 -1.515625 C 1.84375 -1.671875 1.800781 -1.785156 1.71875 -1.859375 C 1.644531 -1.941406 1.550781 -1.984375 1.4375 -1.984375 C 1.320312 -1.984375 1.222656 -1.941406 1.140625 -1.859375 C 1.054688 -1.785156 1.015625 -1.671875 1.015625 -1.515625 L 1.015625 0 L 0.25 0 Z M 0.25 -2.59375 "/></g></g><g style="fill:#191919;fill-opacity:1;"><g transform="translate(84.690139, 55.604021)"><path style="stroke:none" d="M 1.421875 0.046875 C 1.148438 0.046875 0.921875 -0.015625 0.734375 -0.140625 C 0.546875 -0.265625 0.40625 -0.425781 0.3125 -0.625 C 0.226562 -0.832031 0.1875 -1.054688 0.1875 -1.296875 C 0.1875 -1.523438 0.226562 -1.742188 0.3125 -1.953125 C 0.40625 -2.160156 0.546875 -2.328125 0.734375 -2.453125 C 0.921875 -2.578125 1.15625 -2.640625 1.4375 -2.640625 C 1.800781 -2.640625 2.085938 -2.523438 2.296875 -2.296875 C 2.515625 -2.066406 2.625 -1.734375 2.625 -1.296875 L 2.625 -1.078125 L 0.921875 -1.078125 L 0.921875 -1.046875 C 0.921875 -0.910156 0.960938 -0.796875 1.046875 -0.703125 C 1.140625 -0.609375 1.257812 -0.5625 1.40625 -0.5625 C 1.519531 -0.5625 1.613281 -0.582031 1.6875 -0.625 C 1.769531 -0.675781 1.828125 -0.75 1.859375 -0.84375 L 2.609375 -0.84375 C 2.546875 -0.582031 2.410156 -0.367188 2.203125 -0.203125 C 1.992188 -0.0351562 1.734375 0.046875 1.421875 0.046875 Z M 1.890625 -1.578125 C 1.890625 -1.753906 1.847656 -1.882812 1.765625 -1.96875 C 1.679688 -2.050781 1.566406 -2.09375 1.421875 -2.09375 C 1.273438 -2.09375 1.15625 -2.046875 1.0625 -1.953125 C 0.976562 -1.859375 0.9375 -1.734375 0.9375 -1.578125 Z M 1.890625 -1.578125 "/></g></g><g style="fill:#191919;fill-opacity:1;"><g transform="translate(87.496538, 55.604021)"><path style="stroke:none" d="M 0.25 -2.59375 L 1.015625 -2.59375 L 1.015625 -2.203125 L 1.0625 -2.203125 C 1.113281 -2.328125 1.203125 -2.429688 1.328125 -2.515625 C 1.453125 -2.597656 1.601562 -2.640625 1.78125 -2.640625 C 2.125 -2.640625 2.359375 -2.53125 2.484375 -2.3125 C 2.617188 -2.101562 2.6875 -1.867188 2.6875 -1.609375 L 2.6875 0 L 1.921875 0 L 1.921875 -1.46875 C 1.921875 -1.632812 1.882812 -1.765625 1.8125 -1.859375 C 1.738281 -1.960938 1.628906 -2.015625 1.484375 -2.015625 C 1.328125 -2.015625 1.207031 -1.960938 1.125 -1.859375 C 1.050781 -1.765625 1.015625 -1.632812 1.015625 -1.46875 L 1.015625 0 L 0.25 0 Z M 0.25 -2.59375 "/></g></g><g style="fill:#191919;fill-opacity:1;"><g transform="translate(90.420281, 55.604021)"><path style="stroke:none" d="M 1.3125 -2 L 1.3125 -0.953125 C 1.3125 -0.835938 1.316406 -0.753906 1.328125 -0.703125 C 1.335938 -0.648438 1.367188 -0.609375 1.421875 -0.578125 C 1.472656 -0.546875 1.5625 -0.53125 1.6875 -0.53125 C 1.75 -0.53125 1.8125 -0.535156 1.875 -0.546875 L 1.875 -0.015625 C 1.84375 -0.015625 1.773438 -0.0078125 1.671875 0 C 1.578125 0.0078125 1.484375 0.015625 1.390625 0.015625 C 1.128906 0.015625 0.9375 -0.0195312 0.8125 -0.09375 C 0.695312 -0.164062 0.625 -0.253906 0.59375 -0.359375 C 0.5625 -0.472656 0.546875 -0.617188 0.546875 -0.796875 L 0.546875 -2 L 0.125 -2 L 0.125 -2.59375 L 0.546875 -2.59375 L 0.546875 -3.421875 L 1.3125 -3.421875 L 1.3125 -2.59375 L 1.875 -2.59375 L 1.875 -2 Z M 1.3125 -2 "/></g></g></g></svg>