<svg xmlns="http://www.w3.org/2000/svg" xmlns:xlink="http://www.w3.org/1999/xlink" width="40" zoomAndPan="magnify" viewBox="0 0 30 30.000001" height="40" preserveAspectRatio="xMidYMid meet" version="1.2"><defs><clipPath id="870cf3fffd"><path d="M 0.484375 0 L 29.515625 0 L 29.515625 29.03125 L 0.484375 29.03125 Z M 0.484375 0 "/></clipPath><clipPath id="e6514a7a96"><path d="M 0.484375 0 L 29.515625 0 L 29.515625 29.03125 L 0.484375 29.03125 Z M 0.484375 0 "/></clipPath><clipPath id="14e96bd8e1"><path d="M 4.839844 0 L 27.734375 0 C 28.890625 0 30 0.457031 30.816406 1.277344 C 31.632812 2.09375 32.089844 3.199219 32.089844 4.355469 L 32.089844 24.675781 C 32.089844 25.832031 31.632812 26.941406 30.816406 27.757812 C 30 28.574219 28.890625 29.03125 27.734375 29.03125 L 4.839844 29.03125 C 2.433594 29.03125 0.484375 27.082031 0.484375 24.675781 L 0.484375 4.355469 C 0.484375 3.199219 0.941406 2.09375 1.757812 1.277344 C 2.574219 0.457031 3.683594 0 4.839844 0 Z M 4.839844 0 "/></clipPath><clipPath id="9dfe515eff"><path d="M 19 16 L 20 16 L 20 17 L 19 17 Z M 19 16 "/></clipPath><clipPath id="58e7042ee5"><path d="M 20.09375 0.832031 L 24.285156 25.886719 L 12.117188 27.921875 L 7.921875 2.867188 Z M 20.09375 0.832031 "/></clipPath><clipPath id="d656675eb6"><path d="M 12.472656 28.199219 L 8.28125 3.140625 L 20.449219 1.105469 L 24.640625 26.160156 Z M 12.472656 28.199219 "/></clipPath><clipPath id="f843945342"><path d="M 15 10 L 24 10 L 24 27 L 15 27 Z M 15 10 "/></clipPath><clipPath id="23a4e049a2"><path d="M 20.09375 0.832031 L 24.285156 25.886719 L 12.117188 27.921875 L 7.921875 2.867188 Z M 20.09375 0.832031 "/></clipPath><clipPath id="1f138d5877"><path d="M 12.472656 28.199219 L 8.28125 3.140625 L 20.449219 1.105469 L 24.640625 26.160156 Z M 12.472656 28.199219 "/></clipPath><clipPath id="39f434e896"><path d="M 17.972656 27.277344 L 15.152344 10.410156 L 21.359375 9.371094 L 24.179688 26.238281 Z M 17.972656 27.277344 "/></clipPath><clipPath id="918c767dae"><path d="M 17 3 L 18 3 L 18 4 L 17 4 Z M 17 3 "/></clipPath><clipPath id="62c8a9b848"><path d="M 20.09375 0.832031 L 24.285156 25.886719 L 12.117188 27.921875 L 7.921875 2.867188 Z M 20.09375 0.832031 "/></clipPath><clipPath id="f12a938580"><path d="M 12.472656 28.199219 L 8.28125 3.140625 L 20.449219 1.105469 L 24.640625 26.160156 Z M 12.472656 28.199219 "/></clipPath><clipPath id="f75c3f3b07"><path d="M 8 3 L 18 3 L 18 12 L 8 12 Z M 8 3 "/></clipPath><clipPath id="d548cd3b65"><path d="M 20.09375 0.832031 L 24.285156 25.886719 L 12.117188 27.921875 L 7.921875 2.867188 Z M 20.09375 0.832031 "/></clipPath><clipPath id="93043c52ad"><path d="M 12.472656 28.199219 L 8.28125 3.140625 L 20.449219 1.105469 L 24.640625 26.160156 Z M 12.472656 28.199219 "/></clipPath></defs><g id="937f3fa2c4"><g clip-rule="nonzero" clip-path="url(#870cf3fffd)"><path style=" stroke:none;fill-rule:nonzero;fill:#ffffff;fill-opacity:1;" d="M 0.484375 0 L 29.515625 0 L 29.515625 29.03125 L 0.484375 29.03125 Z M 0.484375 0 "/><path style=" stroke:none;fill-rule:nonzero;fill:#ffffff;fill-opacity:1;" d="M 0.484375 0 L 29.515625 0 L 29.515625 29.03125 L 0.484375 29.03125 Z M 0.484375 0 "/></g><g clip-rule="nonzero" clip-path="url(#e6514a7a96)"><g clip-rule="nonzero" clip-path="url(#14e96bd8e1)"><path style=" stroke:none;fill-rule:nonzero;fill:#fff9f3;fill-opacity:1;" d="M 0.484375 0 L 32.125 0 L 32.125 29.03125 L 0.484375 29.03125 Z M 0.484375 0 "/></g></g><g clip-rule="nonzero" clip-path="url(#9dfe515eff)"><g clip-rule="nonzero" clip-path="url(#58e7042ee5)"><g clip-rule="nonzero" clip-path="url(#d656675eb6)"><path style=" stroke:none;fill-rule:nonzero;fill:#ffb112;fill-opacity:1;" d="M 19.359375 16.484375 C 19.359375 16.484375 19.355469 16.484375 19.355469 16.488281 C 19.355469 16.484375 19.359375 16.484375 19.359375 16.484375 "/></g></g></g><g clip-rule="nonzero" clip-path="url(#f843945342)"><g clip-rule="nonzero" clip-path="url(#23a4e049a2)"><g clip-rule="nonzero" clip-path="url(#1f138d5877)"><g clip-rule="nonzero" clip-path="url(#39f434e896)"><path style=" stroke:none;fill-rule:nonzero;fill:#ffb112;fill-opacity:1;" d="M 23.066406 26.316406 C 23.203125 26.230469 23.328125 26.121094 23.425781 25.992188 C 23.527344 25.867188 23.601562 25.726562 23.65625 25.585938 C 23.769531 25.304688 23.8125 25.015625 23.824219 24.738281 C 23.839844 24.457031 23.820312 24.1875 23.785156 23.917969 C 23.753906 23.652344 23.703125 23.390625 23.644531 23.132812 C 23.523438 22.617188 23.363281 22.117188 23.179688 21.628906 C 23.089844 21.386719 22.992188 21.144531 22.890625 20.90625 C 22.785156 20.667969 22.679688 20.433594 22.566406 20.199219 C 22.390625 19.835938 22.207031 19.476562 22.011719 19.125 C 21.886719 18.894531 21.761719 18.667969 21.628906 18.441406 C 21.445312 18.125 21.253906 17.8125 21.0625 17.5 C 20.738281 16.976562 20.40625 16.460938 20.070312 15.949219 C 19.9375 15.742188 19.796875 15.535156 19.660156 15.328125 C 19.570312 15.191406 19.476562 15.054688 19.386719 14.917969 C 18.816406 14.066406 18.234375 13.222656 17.644531 12.386719 C 17.25 11.828125 16.847656 11.265625 16.445312 10.710938 C 16.371094 10.609375 16.25 10.445312 16.167969 10.332031 C 16.113281 10.257812 16 10.261719 15.953125 10.34375 C 15.953125 10.347656 15.949219 10.351562 15.949219 10.355469 C 15.898438 10.472656 15.921875 10.609375 16 10.707031 C 16.046875 10.765625 16.097656 10.828125 16.136719 10.871094 C 16.585938 11.414062 17.019531 11.96875 17.445312 12.53125 C 18.054688 13.347656 18.640625 14.1875 19.1875 15.046875 C 19.222656 15.109375 19.261719 15.167969 19.300781 15.230469 C 19.320312 15.261719 19.339844 15.289062 19.359375 15.320312 C 19.367188 15.335938 19.375 15.347656 19.382812 15.363281 C 19.394531 15.382812 19.410156 15.40625 19.421875 15.425781 C 19.433594 15.445312 19.449219 15.464844 19.460938 15.488281 C 19.46875 15.503906 19.480469 15.519531 19.488281 15.535156 C 19.511719 15.570312 19.535156 15.609375 19.554688 15.644531 C 19.554688 15.644531 19.558594 15.644531 19.558594 15.648438 C 19.589844 15.699219 19.621094 15.753906 19.652344 15.808594 C 19.683594 15.859375 19.710938 15.914062 19.746094 15.96875 C 19.777344 16.023438 19.808594 16.078125 19.835938 16.132812 C 20.152344 16.640625 20.425781 17.171875 20.699219 17.703125 C 20.894531 18.078125 21.074219 18.457031 21.261719 18.832031 C 21.378906 19.066406 21.496094 19.304688 21.59375 19.546875 L 21.59375 19.550781 C 21.742188 19.847656 21.871094 20.152344 22 20.457031 C 22.046875 20.574219 22.097656 20.6875 22.144531 20.804688 C 22.195312 20.921875 22.242188 21.039062 22.289062 21.15625 C 22.378906 21.390625 22.472656 21.625 22.558594 21.859375 C 22.726562 22.332031 22.882812 22.808594 23 23.285156 C 23.058594 23.527344 23.109375 23.765625 23.144531 24.003906 C 23.179688 24.246094 23.199219 24.484375 23.195312 24.714844 C 23.191406 24.949219 23.160156 25.171875 23.089844 25.367188 C 23.019531 25.5625 22.910156 25.722656 22.753906 25.828125 C 22.601562 25.933594 22.394531 25.988281 22.175781 26 C 21.953125 26.007812 21.71875 25.976562 21.484375 25.925781 C 21.25 25.875 21.015625 25.800781 20.785156 25.714844 C 20.550781 25.628906 20.324219 25.527344 20.09375 25.421875 C 19.640625 25.207031 19.199219 24.960938 18.761719 24.699219 C 18.324219 24.4375 17.894531 24.164062 17.46875 23.878906 L 17.421875 23.941406 C 17.804688 24.28125 18.203125 24.609375 18.617188 24.917969 C 19.03125 25.222656 19.460938 25.515625 19.910156 25.773438 C 20.363281 26.03125 20.839844 26.261719 21.359375 26.414062 C 21.621094 26.488281 21.894531 26.539062 22.183594 26.542969 C 22.328125 26.542969 22.480469 26.53125 22.628906 26.496094 C 22.777344 26.460938 22.929688 26.398438 23.066406 26.316406 "/></g></g></g></g><g clip-rule="nonzero" clip-path="url(#918c767dae)"><g clip-rule="nonzero" clip-path="url(#62c8a9b848)"><g clip-rule="nonzero" clip-path="url(#f12a938580)"><path style=" stroke:none;fill-rule:nonzero;fill:#ffb112;fill-opacity:1;" d="M 17.003906 3.574219 C 17.007812 3.574219 17.007812 3.574219 17.007812 3.574219 L 17 3.566406 C 17.003906 3.570312 17.003906 3.574219 17.003906 3.574219 "/></g></g></g><g clip-rule="nonzero" clip-path="url(#f75c3f3b07)"><g clip-rule="nonzero" clip-path="url(#d548cd3b65)"><g clip-rule="nonzero" clip-path="url(#93043c52ad)"><path style=" stroke:none;fill-rule:nonzero;fill:#ffb112;fill-opacity:1;" d="M 14.90625 11.320312 L 15.179688 10.660156 L 15.253906 10.480469 C 15.253906 10.480469 15.429688 10.042969 15.433594 10.039062 C 15.472656 9.941406 15.53125 9.84375 15.617188 9.777344 C 15.695312 9.71875 15.789062 9.691406 15.875 9.65625 C 16.015625 9.605469 16.152344 9.550781 16.289062 9.5 L 17.066406 9.203125 C 17.171875 9.164062 17.195312 9.070312 17.125 8.996094 C 17.050781 8.921875 16.902344 8.875 16.792969 8.890625 L 15.925781 9.015625 L 15.34375 9.101562 L 14.664062 8.351562 L 14.613281 8.296875 L 12.675781 6.167969 L 12.773438 6.128906 L 12.773438 6.121094 L 13.34375 5.867188 L 13.347656 5.867188 L 16.820312 4.46875 C 16.890625 4.4375 16.933594 4.390625 16.910156 4.335938 L 16.90625 4.335938 C 16.898438 4.3125 16.882812 4.292969 16.863281 4.269531 L 16.535156 3.9375 C 16.460938 3.863281 16.3125 3.8125 16.207031 3.835938 L 15.203125 4.035156 C 15.195312 4.011719 15.167969 3.996094 15.148438 3.972656 L 15.007812 3.828125 L 14.96875 3.789062 C 14.890625 3.710938 14.78125 3.6875 14.703125 3.765625 L 14.648438 3.820312 C 14.625 3.84375 14.605469 3.875 14.59375 3.910156 C 14.570312 3.984375 14.578125 4.066406 14.628906 4.121094 L 14.660156 4.152344 L 13.785156 4.320312 C 13.777344 4.296875 13.773438 4.261719 13.753906 4.238281 L 13.675781 4.164062 L 13.578125 4.058594 C 13.5 3.984375 13.371094 3.980469 13.292969 4.054688 L 13.238281 4.113281 C 13.1875 4.160156 13.160156 4.242188 13.167969 4.3125 C 13.171875 4.351562 13.1875 4.386719 13.214844 4.414062 L 13.242188 4.441406 L 12.253906 4.636719 L 12.210938 4.644531 L 11.515625 4.78125 L 11.417969 4.800781 L 10.460938 3.722656 L 10.453125 3.710938 C 10.226562 3.464844 9.667969 3.105469 9.289062 3.03125 C 9.160156 3.003906 9.050781 3.015625 8.984375 3.070312 C 8.921875 3.125 8.898438 3.21875 8.910156 3.335938 C 8.9375 3.703125 9.273438 4.292969 9.5 4.542969 C 9.507812 4.546875 9.894531 4.917969 10.460938 5.457031 C 10.480469 5.476562 10.5 5.492188 10.519531 5.511719 C 10.546875 5.539062 10.578125 5.566406 10.605469 5.59375 L 10.59375 5.660156 L 10.582031 5.703125 L 10.449219 6.292969 L 10.195312 7.421875 L 10.167969 7.394531 C 10.09375 7.316406 9.96875 7.3125 9.890625 7.386719 L 9.835938 7.441406 C 9.757812 7.519531 9.777344 7.625 9.855469 7.703125 L 10.03125 7.882812 C 10.050781 7.902344 10.0625 7.933594 10.085938 7.941406 L 9.875 8.835938 L 9.84375 8.804688 C 9.769531 8.726562 9.648438 8.714844 9.570312 8.789062 L 9.511719 8.847656 C 9.433594 8.921875 9.429688 9.058594 9.503906 9.132812 L 9.6875 9.320312 C 9.707031 9.339844 9.730469 9.355469 9.757812 9.367188 L 9.535156 10.367188 C 9.511719 10.472656 9.546875 10.628906 9.621094 10.703125 L 9.945312 11.039062 C 10.023438 11.113281 10.125 11.089844 10.167969 10.992188 L 11.597656 7.691406 L 11.886719 7.023438 L 11.953125 6.871094 C 11.996094 6.910156 12.039062 6.949219 12.082031 6.988281 C 13.234375 8.082031 14.425781 9.214844 14.839844 9.605469 L 14.746094 10.15625 L 14.644531 10.78125 L 14.601562 11.039062 C 14.582031 11.148438 14.628906 11.300781 14.699219 11.371094 C 14.773438 11.445312 14.867188 11.421875 14.90625 11.320312 "/></g></g></g></g></svg>