<svg xmlns="http://www.w3.org/2000/svg" xmlns:xlink="http://www.w3.org/1999/xlink" width="130" zoomAndPan="magnify" viewBox="0 0 97.5 52.499999" height="70" preserveAspectRatio="xMidYMid meet" version="1.2"><defs><clipPath id="d5b7fe9304"><path d="M 85 28 L 86 28 L 86 29 L 85 29 Z M 85 28 "/></clipPath><clipPath id="c5d2c55ba1"><path d="M 86.539062 5.945312 L 92.734375 42.984375 L 75.714844 45.832031 L 69.519531 8.792969 Z M 86.539062 5.945312 "/></clipPath><clipPath id="68d04a8000"><path d="M 75.429688 45.847656 L 69.234375 8.808594 L 86.25 5.960938 L 92.445312 43 Z M 75.429688 45.847656 "/></clipPath><clipPath id="e46ce12560"><path d="M 80 19 L 92 19 L 92 44 L 80 44 Z M 80 19 "/></clipPath><clipPath id="da0ff5653e"><path d="M 86.539062 5.945312 L 92.734375 42.984375 L 75.714844 45.832031 L 69.519531 8.792969 Z M 86.539062 5.945312 "/></clipPath><clipPath id="cb6ea56e1e"><path d="M 75.429688 45.847656 L 69.234375 8.808594 L 86.25 5.960938 L 92.445312 43 Z M 75.429688 45.847656 "/></clipPath><clipPath id="c182fd0821"><path d="M 83.421875 44.511719 L 79.320312 20 L 88.339844 18.492188 L 92.441406 43 Z M 83.421875 44.511719 "/></clipPath><clipPath id="54352e995a"><path d="M 82 10 L 83 10 L 83 11 L 82 11 Z M 82 10 "/></clipPath><clipPath id="88ab8b8b4e"><path d="M 86.539062 5.945312 L 92.734375 42.984375 L 75.714844 45.832031 L 69.519531 8.792969 Z M 86.539062 5.945312 "/></clipPath><clipPath id="6fc666500a"><path d="M 75.429688 45.847656 L 69.234375 8.808594 L 86.25 5.960938 L 92.445312 43 Z M 75.429688 45.847656 "/></clipPath><clipPath id="203233aca7"><path d="M 70 9 L 83 9 L 83 22 L 70 22 Z M 70 9 "/></clipPath><clipPath id="a9db61d294"><path d="M 86.539062 5.945312 L 92.734375 42.984375 L 75.714844 45.832031 L 69.519531 8.792969 Z M 86.539062 5.945312 "/></clipPath><clipPath id="b4a38e5e41"><path d="M 75.429688 45.847656 L 69.234375 8.808594 L 86.25 5.960938 L 92.445312 43 Z M 75.429688 45.847656 "/></clipPath></defs><g id="644666d8f8"><g style="fill:#ffaa1c;fill-opacity:1;"><g transform="translate(13.09516, 39.871762)"><path style="stroke:none" d="M 1.6875 0 L 1.6875 -11.359375 C 1.6875 -12.816406 2.101562 -13.960938 2.9375 -14.796875 C 3.78125 -15.640625 4.941406 -16.0625 6.421875 -16.0625 L 11.09375 -16.0625 L 11.09375 -12.109375 L 7.625 -12.109375 C 7.332031 -12.109375 7.078125 -12.007812 6.859375 -11.8125 C 6.648438 -11.613281 6.546875 -11.351562 6.546875 -11.03125 L 6.546875 0 Z M 1.6875 0 "/></g></g><g style="fill:#ffaa1c;fill-opacity:1;"><g transform="translate(22.880824, 39.871762)"><path style="stroke:none" d="M 8.28125 0.375 C 6.851562 0.375 5.597656 0.0078125 4.515625 -0.71875 C 3.429688 -1.445312 2.582031 -2.429688 1.96875 -3.671875 C 1.363281 -4.921875 1.0625 -6.332031 1.0625 -7.90625 C 1.0625 -9.53125 1.414062 -10.984375 2.125 -12.265625 C 2.84375 -13.554688 3.851562 -14.578125 5.15625 -15.328125 C 6.46875 -16.085938 8.007812 -16.46875 9.78125 -16.46875 C 11.582031 -16.46875 13.113281 -16.09375 14.375 -15.34375 C 15.644531 -14.601562 16.617188 -13.585938 17.296875 -12.296875 C 17.972656 -11.015625 18.3125 -9.582031 18.3125 -8 L 18.3125 0 L 13.546875 0 L 13.546875 -2.578125 L 13.421875 -2.578125 C 13.128906 -2.003906 12.753906 -1.492188 12.296875 -1.046875 C 11.835938 -0.597656 11.273438 -0.25 10.609375 0 C 9.953125 0.25 9.175781 0.375 8.28125 0.375 Z M 9.71875 -3.828125 C 10.445312 -3.828125 11.085938 -4.007812 11.640625 -4.375 C 12.203125 -4.738281 12.628906 -5.242188 12.921875 -5.890625 C 13.210938 -6.546875 13.359375 -7.269531 13.359375 -8.0625 C 13.359375 -8.832031 13.210938 -9.53125 12.921875 -10.15625 C 12.628906 -10.78125 12.203125 -11.273438 11.640625 -11.640625 C 11.085938 -12.015625 10.445312 -12.203125 9.71875 -12.203125 C 8.96875 -12.203125 8.3125 -12.015625 7.75 -11.640625 C 7.1875 -11.273438 6.753906 -10.78125 6.453125 -10.15625 C 6.160156 -9.53125 6.015625 -8.832031 6.015625 -8.0625 C 6.015625 -7.269531 6.160156 -6.546875 6.453125 -5.890625 C 6.753906 -5.242188 7.1875 -4.738281 7.75 -4.375 C 8.3125 -4.007812 8.96875 -3.828125 9.71875 -3.828125 Z M 9.71875 -3.828125 "/></g></g><g style="fill:#ffaa1c;fill-opacity:1;"><g transform="translate(41.323078, 39.871762)"><path style="stroke:none" d="M 1.8125 0 L 1.8125 -22.890625 L 6.671875 -22.890625 L 6.671875 -15.015625 C 7.304688 -15.523438 8 -15.894531 8.75 -16.125 C 9.5 -16.351562 10.25 -16.46875 11 -16.46875 C 12.46875 -16.46875 13.707031 -16.148438 14.71875 -15.515625 C 15.738281 -14.890625 16.503906 -14.035156 17.015625 -12.953125 C 17.523438 -11.867188 17.78125 -10.632812 17.78125 -9.25 L 17.78125 0 L 12.921875 0 L 12.921875 -9.0625 C 12.921875 -9.664062 12.78125 -10.203125 12.5 -10.671875 C 12.21875 -11.148438 11.835938 -11.53125 11.359375 -11.8125 C 10.890625 -12.09375 10.375 -12.234375 9.8125 -12.234375 C 9.25 -12.234375 8.726562 -12.097656 8.25 -11.828125 C 7.769531 -11.554688 7.382812 -11.1875 7.09375 -10.71875 C 6.8125 -10.257812 6.671875 -9.738281 6.671875 -9.15625 L 6.671875 0 Z M 1.8125 0 "/></g></g><g style="fill:#ffaa1c;fill-opacity:1;"><g transform="translate(59.263502, 39.871762)"><path style="stroke:none" d="M 8.28125 0.375 C 6.851562 0.375 5.597656 0.0078125 4.515625 -0.71875 C 3.429688 -1.445312 2.582031 -2.429688 1.96875 -3.671875 C 1.363281 -4.921875 1.0625 -6.332031 1.0625 -7.90625 C 1.0625 -9.53125 1.414062 -10.984375 2.125 -12.265625 C 2.84375 -13.554688 3.851562 -14.578125 5.15625 -15.328125 C 6.46875 -16.085938 8.007812 -16.46875 9.78125 -16.46875 C 11.582031 -16.46875 13.113281 -16.09375 14.375 -15.34375 C 15.644531 -14.601562 16.617188 -13.585938 17.296875 -12.296875 C 17.972656 -11.015625 18.3125 -9.582031 18.3125 -8 L 18.3125 0 L 13.546875 0 L 13.546875 -2.578125 L 13.421875 -2.578125 C 13.128906 -2.003906 12.753906 -1.492188 12.296875 -1.046875 C 11.835938 -0.597656 11.273438 -0.25 10.609375 0 C 9.953125 0.25 9.175781 0.375 8.28125 0.375 Z M 9.71875 -3.828125 C 10.445312 -3.828125 11.085938 -4.007812 11.640625 -4.375 C 12.203125 -4.738281 12.628906 -5.242188 12.921875 -5.890625 C 13.210938 -6.546875 13.359375 -7.269531 13.359375 -8.0625 C 13.359375 -8.832031 13.210938 -9.53125 12.921875 -10.15625 C 12.628906 -10.78125 12.203125 -11.273438 11.640625 -11.640625 C 11.085938 -12.015625 10.445312 -12.203125 9.71875 -12.203125 C 8.96875 -12.203125 8.3125 -12.015625 7.75 -11.640625 C 7.1875 -11.273438 6.753906 -10.78125 6.453125 -10.15625 C 6.160156 -9.53125 6.015625 -8.832031 6.015625 -8.0625 C 6.015625 -7.269531 6.160156 -6.546875 6.453125 -5.890625 C 6.753906 -5.242188 7.1875 -4.738281 7.75 -4.375 C 8.3125 -4.007812 8.96875 -3.828125 9.71875 -3.828125 Z M 9.71875 -3.828125 "/></g></g><g style="fill:#191919;fill-opacity:1;"><g transform="translate(76.510464, 40.414738)"><path style="stroke:none" d="M 1.84375 0 L 1.84375 -23.171875 L 6.765625 -23.171875 L 6.765625 0 Z M 1.84375 0 "/></g></g><g style="fill:#191919;fill-opacity:1;"><g transform="translate(83.400251, 40.414738)"><path style="stroke:none" d="M 1.84375 0 L 1.84375 -23.171875 L 6.765625 -23.171875 L 6.765625 0 Z M 1.84375 0 "/></g></g><g clip-rule="nonzero" clip-path="url(#d5b7fe9304)"><g clip-rule="nonzero" clip-path="url(#c5d2c55ba1)"><g clip-rule="nonzero" clip-path="url(#68d04a8000)"><path style=" stroke:none;fill-rule:nonzero;fill:#ffaa1c;fill-opacity:1;" d="M 85.4375 28.828125 C 85.433594 28.828125 85.429688 28.832031 85.429688 28.832031 C 85.429688 28.832031 85.433594 28.828125 85.4375 28.828125 "/></g></g></g><g clip-rule="nonzero" clip-path="url(#e46ce12560)"><g clip-rule="nonzero" clip-path="url(#da0ff5653e)"><g clip-rule="nonzero" clip-path="url(#cb6ea56e1e)"><g clip-rule="nonzero" clip-path="url(#c182fd0821)"><path style=" stroke:none;fill-rule:nonzero;fill:#ffaa1c;fill-opacity:1;" d="M 90.820312 43.113281 C 91.019531 42.988281 91.199219 42.828125 91.34375 42.644531 C 91.488281 42.460938 91.597656 42.257812 91.679688 42.054688 C 91.84375 41.640625 91.90625 41.222656 91.925781 40.820312 C 91.941406 40.414062 91.914062 40.019531 91.867188 39.628906 C 91.820312 39.242188 91.746094 38.863281 91.660156 38.488281 C 91.484375 37.738281 91.253906 37.011719 90.988281 36.304688 C 90.855469 35.949219 90.714844 35.601562 90.5625 35.253906 C 90.414062 34.90625 90.257812 34.566406 90.09375 34.226562 C 89.839844 33.699219 89.570312 33.175781 89.292969 32.664062 C 89.109375 32.332031 88.921875 32 88.734375 31.675781 C 88.464844 31.210938 88.1875 30.753906 87.910156 30.300781 C 87.441406 29.542969 86.957031 28.792969 86.46875 28.050781 C 86.273438 27.75 86.070312 27.449219 85.871094 27.148438 C 85.738281 26.949219 85.605469 26.75 85.472656 26.550781 C 84.644531 25.316406 83.800781 24.085938 82.941406 22.871094 C 82.367188 22.058594 81.789062 21.242188 81.199219 20.4375 C 81.09375 20.292969 80.917969 20.050781 80.796875 19.890625 C 80.71875 19.785156 80.554688 19.789062 80.488281 19.902344 C 80.484375 19.910156 80.480469 19.917969 80.476562 19.921875 C 80.40625 20.09375 80.4375 20.289062 80.554688 20.433594 C 80.625 20.519531 80.699219 20.609375 80.75 20.671875 C 81.402344 21.460938 82.039062 22.265625 82.652344 23.085938 C 83.539062 24.269531 84.386719 25.488281 85.183594 26.742188 C 85.238281 26.828125 85.292969 26.917969 85.347656 27.003906 C 85.375 27.050781 85.40625 27.09375 85.433594 27.136719 C 85.445312 27.160156 85.457031 27.179688 85.46875 27.199219 C 85.488281 27.230469 85.507812 27.257812 85.523438 27.289062 C 85.542969 27.320312 85.5625 27.347656 85.582031 27.378906 C 85.59375 27.402344 85.609375 27.425781 85.621094 27.445312 C 85.65625 27.5 85.6875 27.554688 85.71875 27.609375 C 85.71875 27.609375 85.722656 27.609375 85.722656 27.609375 C 85.769531 27.6875 85.816406 27.765625 85.863281 27.84375 C 85.90625 27.921875 85.949219 28 85.992188 28.078125 C 86.039062 28.15625 86.085938 28.234375 86.125 28.316406 L 86.125 28.320312 C 86.589844 29.058594 86.984375 29.828125 87.382812 30.601562 C 87.664062 31.140625 87.925781 31.691406 88.199219 32.238281 C 88.367188 32.582031 88.539062 32.921875 88.679688 33.277344 L 88.683594 33.28125 C 88.898438 33.714844 89.082031 34.160156 89.269531 34.601562 C 89.339844 34.769531 89.414062 34.9375 89.484375 35.105469 C 89.554688 35.277344 89.625 35.445312 89.691406 35.617188 C 89.824219 35.957031 89.957031 36.296875 90.082031 36.640625 C 90.328125 37.324219 90.550781 38.015625 90.726562 38.710938 C 90.8125 39.058594 90.882812 39.410156 90.933594 39.757812 C 90.984375 40.105469 91.015625 40.453125 91.007812 40.789062 C 91 41.125 90.960938 41.453125 90.855469 41.738281 C 90.753906 42.019531 90.59375 42.25 90.367188 42.40625 C 90.144531 42.558594 89.847656 42.636719 89.527344 42.652344 C 89.203125 42.667969 88.863281 42.621094 88.523438 42.546875 C 88.179688 42.472656 87.839844 42.363281 87.503906 42.238281 C 87.167969 42.113281 86.832031 41.96875 86.503906 41.8125 C 85.84375 41.5 85.199219 41.140625 84.566406 40.765625 C 83.929688 40.386719 83.308594 39.984375 82.6875 39.574219 L 82.621094 39.660156 C 83.175781 40.15625 83.753906 40.632812 84.355469 41.078125 C 84.953125 41.527344 85.578125 41.949219 86.234375 42.324219 C 86.894531 42.699219 87.585938 43.035156 88.339844 43.253906 C 88.71875 43.363281 89.117188 43.4375 89.539062 43.441406 C 89.75 43.445312 89.96875 43.425781 90.1875 43.371094 C 90.402344 43.320312 90.621094 43.234375 90.820312 43.113281 "/></g></g></g></g><g clip-rule="nonzero" clip-path="url(#54352e995a)"><g clip-rule="nonzero" clip-path="url(#88ab8b8b4e)"><g clip-rule="nonzero" clip-path="url(#6fc666500a)"><path style=" stroke:none;fill-rule:nonzero;fill:#ffaa1c;fill-opacity:1;" d="M 82.011719 10.070312 C 82.011719 10.070312 82.011719 10.070312 82.015625 10.070312 C 82.015625 10.070312 82.015625 10.070312 82.015625 10.066406 L 82.007812 10.058594 C 82.007812 10.0625 82.011719 10.066406 82.011719 10.070312 "/></g></g></g><g clip-rule="nonzero" clip-path="url(#203233aca7)"><g clip-rule="nonzero" clip-path="url(#a9db61d294)"><g clip-rule="nonzero" clip-path="url(#b4a38e5e41)"><path style=" stroke:none;fill-rule:nonzero;fill:#ffaa1c;fill-opacity:1;" d="M 78.964844 21.324219 L 79.359375 20.363281 L 79.464844 20.101562 C 79.464844 20.101562 79.726562 19.46875 79.726562 19.464844 C 79.789062 19.320312 79.871094 19.179688 80 19.085938 C 80.109375 19 80.242188 18.957031 80.375 18.90625 C 80.574219 18.832031 80.773438 18.753906 80.972656 18.679688 L 80.976562 18.679688 L 82.101562 18.25 C 82.253906 18.191406 82.292969 18.058594 82.1875 17.949219 C 82.082031 17.84375 81.863281 17.773438 81.703125 17.796875 L 80.445312 17.976562 L 79.597656 18.101562 L 78.609375 17.011719 L 78.539062 16.933594 L 75.722656 13.835938 L 75.863281 13.78125 L 75.867188 13.78125 L 75.863281 13.769531 L 76.695312 13.402344 L 76.699219 13.402344 L 81.742188 11.367188 C 81.847656 11.324219 81.910156 11.257812 81.875 11.179688 L 81.871094 11.175781 C 81.855469 11.144531 81.835938 11.113281 81.804688 11.082031 L 81.332031 10.601562 C 81.222656 10.488281 81.007812 10.417969 80.855469 10.449219 L 79.394531 10.742188 C 79.382812 10.703125 79.347656 10.679688 79.316406 10.652344 L 79.109375 10.4375 L 79.054688 10.382812 C 78.941406 10.269531 78.785156 10.234375 78.671875 10.347656 L 78.589844 10.425781 C 78.554688 10.460938 78.527344 10.507812 78.511719 10.558594 C 78.476562 10.664062 78.488281 10.785156 78.5625 10.863281 L 78.609375 10.910156 L 77.335938 11.15625 C 77.324219 11.117188 77.316406 11.066406 77.289062 11.035156 L 77.179688 10.925781 L 77.03125 10.773438 C 76.921875 10.664062 76.734375 10.660156 76.621094 10.769531 L 76.539062 10.851562 C 76.46875 10.921875 76.425781 11.039062 76.441406 11.144531 C 76.445312 11.199219 76.46875 11.25 76.503906 11.289062 L 76.542969 11.332031 L 75.109375 11.613281 L 75.046875 11.625 L 74.039062 11.824219 L 73.898438 11.851562 L 72.503906 10.28125 L 72.492188 10.269531 C 72.167969 9.914062 71.355469 9.386719 70.800781 9.28125 C 70.613281 9.242188 70.457031 9.253906 70.359375 9.339844 C 70.265625 9.417969 70.238281 9.554688 70.25 9.722656 C 70.292969 10.257812 70.777344 11.113281 71.109375 11.476562 C 71.117188 11.484375 71.679688 12.023438 72.507812 12.808594 C 72.535156 12.832031 72.5625 12.859375 72.589844 12.882812 C 72.632812 12.921875 72.675781 12.964844 72.714844 13.003906 L 72.695312 13.097656 L 72.683594 13.160156 L 72.488281 14.023438 L 72.121094 15.660156 L 72.078125 15.621094 C 71.96875 15.507812 71.789062 15.5 71.675781 15.609375 L 71.59375 15.6875 C 71.484375 15.800781 71.511719 15.957031 71.621094 16.066406 L 71.878906 16.328125 C 71.910156 16.359375 71.925781 16.402344 71.960938 16.414062 L 71.65625 17.714844 L 71.609375 17.667969 C 71.496094 17.554688 71.320312 17.539062 71.210938 17.648438 L 71.128906 17.730469 C 71.015625 17.839844 71.007812 18.035156 71.117188 18.148438 L 71.378906 18.417969 C 71.410156 18.449219 71.445312 18.46875 71.484375 18.484375 L 71.15625 19.9375 C 71.121094 20.089844 71.175781 20.316406 71.285156 20.429688 L 71.757812 20.914062 C 71.867188 21.027344 72.019531 20.992188 72.082031 20.847656 L 74.160156 16.050781 L 74.578125 15.082031 L 74.675781 14.859375 C 74.734375 14.914062 74.796875 14.972656 74.859375 15.03125 C 76.535156 16.621094 78.265625 18.265625 78.863281 18.832031 L 78.730469 19.632812 L 78.582031 20.542969 L 78.519531 20.914062 C 78.492188 21.074219 78.558594 21.292969 78.664062 21.402344 C 78.769531 21.507812 78.90625 21.472656 78.964844 21.324219 "/></g></g></g><g style="fill:#191919;fill-opacity:1;"><g transform="translate(23.241724, 45.546339)"><path style="stroke:none" d="M 1.5625 -0.5625 L 0.78125 -0.5625 L 0.609375 0 L 0.0625 0 L 0.9375 -2.4375 L 1.4375 -2.4375 L 2.296875 0 L 1.75 0 Z M 1.4375 -0.984375 L 1.1875 -1.765625 L 1.15625 -1.765625 L 0.921875 -0.984375 Z M 1.4375 -0.984375 "/></g></g><g style="fill:#191919;fill-opacity:1;"><g transform="translate(25.59088, 45.546339)"><path style="stroke:none" d="M 0.8125 0.015625 C 0.625 0.015625 0.484375 -0.0078125 0.390625 -0.0625 C 0.304688 -0.125 0.253906 -0.191406 0.234375 -0.265625 C 0.210938 -0.347656 0.203125 -0.453125 0.203125 -0.578125 L 0.203125 -2.609375 L 0.75 -2.609375 L 0.75 -0.6875 C 0.75 -0.601562 0.753906 -0.539062 0.765625 -0.5 C 0.773438 -0.46875 0.796875 -0.4375 0.828125 -0.40625 C 0.867188 -0.382812 0.929688 -0.375 1.015625 -0.375 C 1.054688 -0.375 1.085938 -0.378906 1.109375 -0.390625 L 1.109375 0 C 1.003906 0.0078125 0.90625 0.015625 0.8125 0.015625 Z M 0.8125 0.015625 "/></g></g><g style="fill:#191919;fill-opacity:1;"><g transform="translate(26.816074, 45.546339)"><path style="stroke:none" d="M 0.8125 0.015625 C 0.625 0.015625 0.484375 -0.0078125 0.390625 -0.0625 C 0.304688 -0.125 0.253906 -0.191406 0.234375 -0.265625 C 0.210938 -0.347656 0.203125 -0.453125 0.203125 -0.578125 L 0.203125 -2.609375 L 0.75 -2.609375 L 0.75 -0.6875 C 0.75 -0.601562 0.753906 -0.539062 0.765625 -0.5 C 0.773438 -0.46875 0.796875 -0.4375 0.828125 -0.40625 C 0.867188 -0.382812 0.929688 -0.375 1.015625 -0.375 C 1.054688 -0.375 1.085938 -0.378906 1.109375 -0.390625 L 1.109375 0 C 1.003906 0.0078125 0.90625 0.015625 0.8125 0.015625 Z M 0.8125 0.015625 "/></g></g><g style="fill:#191919;fill-opacity:1;"><g transform="translate(28.041268, 45.546339)"><path style="stroke:none" d="M 0.40625 -1.296875 L 1.65625 -1.296875 L 1.65625 -0.875 L 0.40625 -0.875 Z M 0.40625 -1.296875 "/></g></g><g style="fill:#191919;fill-opacity:1;"><g transform="translate(30.1042, 45.546339)"><path style="stroke:none" d="M 0.25 -1.84375 L 0.78125 -1.84375 L 0.78125 0 L 0.25 0 Z M 0.515625 -2.15625 C 0.429688 -2.15625 0.359375 -2.179688 0.296875 -2.234375 C 0.242188 -2.296875 0.21875 -2.363281 0.21875 -2.4375 C 0.21875 -2.519531 0.242188 -2.585938 0.296875 -2.640625 C 0.359375 -2.703125 0.429688 -2.734375 0.515625 -2.734375 C 0.597656 -2.734375 0.664062 -2.703125 0.71875 -2.640625 C 0.78125 -2.585938 0.8125 -2.519531 0.8125 -2.4375 C 0.8125 -2.363281 0.78125 -2.296875 0.71875 -2.234375 C 0.664062 -2.179688 0.597656 -2.15625 0.515625 -2.15625 Z M 0.515625 -2.15625 "/></g></g><g style="fill:#191919;fill-opacity:1;"><g transform="translate(31.13392, 45.546339)"><path style="stroke:none" d="M 0.1875 -1.84375 L 0.71875 -1.84375 L 0.71875 -1.578125 L 0.75 -1.578125 C 0.789062 -1.660156 0.851562 -1.726562 0.9375 -1.78125 C 1.03125 -1.84375 1.140625 -1.875 1.265625 -1.875 C 1.515625 -1.875 1.679688 -1.796875 1.765625 -1.640625 C 1.859375 -1.492188 1.90625 -1.328125 1.90625 -1.140625 L 1.90625 0 L 1.375 0 L 1.375 -1.046875 C 1.375 -1.171875 1.34375 -1.265625 1.28125 -1.328125 C 1.226562 -1.398438 1.148438 -1.4375 1.046875 -1.4375 C 0.941406 -1.4375 0.859375 -1.398438 0.796875 -1.328125 C 0.742188 -1.253906 0.71875 -1.160156 0.71875 -1.046875 L 0.71875 0 L 0.1875 0 Z M 0.1875 -1.84375 "/></g></g><g style="fill:#191919;fill-opacity:1;"><g transform="translate(33.221286, 45.546339)"><path style="stroke:none" d="M 0.40625 -1.296875 L 1.65625 -1.296875 L 1.65625 -0.875 L 0.40625 -0.875 Z M 0.40625 -1.296875 "/></g></g><g style="fill:#191919;fill-opacity:1;"><g transform="translate(35.284218, 45.546339)"><path style="stroke:none" d="M 1.265625 0.03125 C 1.015625 0.03125 0.804688 -0.0234375 0.640625 -0.140625 C 0.472656 -0.253906 0.34375 -0.40625 0.25 -0.59375 C 0.164062 -0.78125 0.125 -0.988281 0.125 -1.21875 C 0.125 -1.445312 0.164062 -1.65625 0.25 -1.84375 C 0.34375 -2.039062 0.472656 -2.195312 0.640625 -2.3125 C 0.804688 -2.425781 1.015625 -2.484375 1.265625 -2.484375 C 1.492188 -2.484375 1.691406 -2.425781 1.859375 -2.3125 C 2.035156 -2.195312 2.164062 -2.039062 2.25 -1.84375 C 2.332031 -1.65625 2.375 -1.445312 2.375 -1.21875 C 2.375 -0.988281 2.332031 -0.773438 2.25 -0.578125 C 2.164062 -0.390625 2.035156 -0.238281 1.859375 -0.125 C 1.691406 -0.0195312 1.492188 0.03125 1.265625 0.03125 Z M 1.25 -0.453125 C 1.425781 -0.453125 1.5625 -0.523438 1.65625 -0.671875 C 1.75 -0.816406 1.796875 -1 1.796875 -1.21875 C 1.796875 -1.4375 1.75 -1.617188 1.65625 -1.765625 C 1.5625 -1.921875 1.425781 -2 1.25 -2 C 1.132812 -2 1.035156 -1.960938 0.953125 -1.890625 C 0.867188 -1.816406 0.804688 -1.722656 0.765625 -1.609375 C 0.722656 -1.492188 0.703125 -1.363281 0.703125 -1.21875 C 0.703125 -1.007812 0.75 -0.828125 0.84375 -0.671875 C 0.9375 -0.523438 1.070312 -0.453125 1.25 -0.453125 Z M 1.25 -0.453125 "/></g></g><g style="fill:#191919;fill-opacity:1;"><g transform="translate(37.804414, 45.546339)"><path style="stroke:none" d="M 0.1875 -1.84375 L 0.71875 -1.84375 L 0.71875 -1.578125 L 0.75 -1.578125 C 0.789062 -1.660156 0.851562 -1.726562 0.9375 -1.78125 C 1.03125 -1.84375 1.140625 -1.875 1.265625 -1.875 C 1.515625 -1.875 1.679688 -1.796875 1.765625 -1.640625 C 1.859375 -1.492188 1.90625 -1.328125 1.90625 -1.140625 L 1.90625 0 L 1.375 0 L 1.375 -1.046875 C 1.375 -1.171875 1.34375 -1.265625 1.28125 -1.328125 C 1.226562 -1.398438 1.148438 -1.4375 1.046875 -1.4375 C 0.941406 -1.4375 0.859375 -1.398438 0.796875 -1.328125 C 0.742188 -1.253906 0.71875 -1.160156 0.71875 -1.046875 L 0.71875 0 L 0.1875 0 Z M 0.1875 -1.84375 "/></g></g><g style="fill:#191919;fill-opacity:1;"><g transform="translate(39.891781, 45.546339)"><path style="stroke:none" d="M 1.015625 0.03125 C 0.816406 0.03125 0.648438 -0.0078125 0.515625 -0.09375 C 0.390625 -0.1875 0.289062 -0.304688 0.21875 -0.453125 C 0.15625 -0.597656 0.125 -0.753906 0.125 -0.921875 C 0.125 -1.085938 0.15625 -1.242188 0.21875 -1.390625 C 0.289062 -1.535156 0.390625 -1.648438 0.515625 -1.734375 C 0.648438 -1.828125 0.816406 -1.875 1.015625 -1.875 C 1.273438 -1.875 1.484375 -1.789062 1.640625 -1.625 C 1.796875 -1.46875 1.875 -1.234375 1.875 -0.921875 L 1.875 -0.78125 L 0.65625 -0.78125 L 0.65625 -0.75 C 0.65625 -0.65625 0.6875 -0.570312 0.75 -0.5 C 0.8125 -0.425781 0.894531 -0.390625 1 -0.390625 C 1.082031 -0.390625 1.148438 -0.40625 1.203125 -0.4375 C 1.265625 -0.476562 1.304688 -0.53125 1.328125 -0.59375 L 1.859375 -0.59375 C 1.804688 -0.414062 1.707031 -0.265625 1.5625 -0.140625 C 1.425781 -0.0234375 1.242188 0.03125 1.015625 0.03125 Z M 1.359375 -1.125 C 1.347656 -1.25 1.3125 -1.335938 1.25 -1.390625 C 1.1875 -1.453125 1.109375 -1.484375 1.015625 -1.484375 C 0.910156 -1.484375 0.828125 -1.453125 0.765625 -1.390625 C 0.703125 -1.328125 0.671875 -1.238281 0.671875 -1.125 Z M 1.359375 -1.125 "/></g></g><g style="fill:#191919;fill-opacity:1;"><g transform="translate(41.895371, 45.546339)"><path style="stroke:none" d=""/></g></g><g style="fill:#191919;fill-opacity:1;"><g transform="translate(42.698205, 45.546339)"><path style="stroke:none" d="M 0.1875 -2.4375 L 1.21875 -2.4375 C 1.375 -2.4375 1.503906 -2.40625 1.609375 -2.34375 C 1.710938 -2.289062 1.789062 -2.21875 1.84375 -2.125 C 1.894531 -2.03125 1.921875 -1.925781 1.921875 -1.8125 C 1.921875 -1.675781 1.882812 -1.566406 1.8125 -1.484375 C 1.738281 -1.398438 1.65625 -1.34375 1.5625 -1.3125 L 1.5625 -1.296875 C 1.632812 -1.285156 1.707031 -1.253906 1.78125 -1.203125 C 1.863281 -1.160156 1.929688 -1.097656 1.984375 -1.015625 C 2.035156 -0.929688 2.0625 -0.828125 2.0625 -0.703125 C 2.0625 -0.585938 2.035156 -0.472656 1.984375 -0.359375 C 1.929688 -0.253906 1.847656 -0.164062 1.734375 -0.09375 C 1.617188 -0.03125 1.476562 0 1.3125 0 L 0.1875 0 Z M 1.0625 -1.453125 C 1.15625 -1.453125 1.234375 -1.472656 1.296875 -1.515625 C 1.367188 -1.554688 1.40625 -1.628906 1.40625 -1.734375 C 1.40625 -1.828125 1.367188 -1.894531 1.296875 -1.9375 C 1.234375 -1.988281 1.15625 -2.015625 1.0625 -2.015625 L 0.71875 -2.015625 L 0.71875 -1.453125 Z M 1.1875 -0.421875 C 1.28125 -0.421875 1.363281 -0.441406 1.4375 -0.484375 C 1.507812 -0.535156 1.546875 -0.625 1.546875 -0.75 C 1.546875 -0.851562 1.507812 -0.929688 1.4375 -0.984375 C 1.363281 -1.035156 1.28125 -1.0625 1.1875 -1.0625 L 0.71875 -1.0625 L 0.71875 -0.421875 Z M 1.1875 -0.421875 "/></g></g><g style="fill:#191919;fill-opacity:1;"><g transform="translate(44.876324, 45.546339)"><path style="stroke:none" d="M 1.015625 0.03125 C 0.816406 0.03125 0.648438 -0.0078125 0.515625 -0.09375 C 0.390625 -0.175781 0.289062 -0.289062 0.21875 -0.4375 C 0.15625 -0.582031 0.125 -0.742188 0.125 -0.921875 C 0.125 -1.097656 0.15625 -1.257812 0.21875 -1.40625 C 0.289062 -1.550781 0.390625 -1.664062 0.515625 -1.75 C 0.648438 -1.832031 0.816406 -1.875 1.015625 -1.875 C 1.210938 -1.875 1.375 -1.832031 1.5 -1.75 C 1.632812 -1.664062 1.734375 -1.550781 1.796875 -1.40625 C 1.867188 -1.257812 1.90625 -1.097656 1.90625 -0.921875 C 1.90625 -0.753906 1.867188 -0.597656 1.796875 -0.453125 C 1.734375 -0.304688 1.632812 -0.1875 1.5 -0.09375 C 1.375 -0.0078125 1.210938 0.03125 1.015625 0.03125 Z M 1.015625 -0.40625 C 1.140625 -0.40625 1.226562 -0.453125 1.28125 -0.546875 C 1.34375 -0.648438 1.375 -0.78125 1.375 -0.9375 C 1.375 -1.082031 1.34375 -1.203125 1.28125 -1.296875 C 1.226562 -1.398438 1.140625 -1.453125 1.015625 -1.453125 C 0.898438 -1.453125 0.8125 -1.398438 0.75 -1.296875 C 0.6875 -1.203125 0.65625 -1.082031 0.65625 -0.9375 C 0.65625 -0.78125 0.6875 -0.648438 0.75 -0.546875 C 0.8125 -0.453125 0.898438 -0.40625 1.015625 -0.40625 Z M 1.015625 -0.40625 "/></g></g><g style="fill:#191919;fill-opacity:1;"><g transform="translate(46.914823, 45.546339)"><path style="stroke:none" d="M 1.015625 0.03125 C 0.816406 0.03125 0.648438 -0.0078125 0.515625 -0.09375 C 0.390625 -0.175781 0.289062 -0.289062 0.21875 -0.4375 C 0.15625 -0.582031 0.125 -0.742188 0.125 -0.921875 C 0.125 -1.097656 0.15625 -1.257812 0.21875 -1.40625 C 0.289062 -1.550781 0.390625 -1.664062 0.515625 -1.75 C 0.648438 -1.832031 0.816406 -1.875 1.015625 -1.875 C 1.210938 -1.875 1.375 -1.832031 1.5 -1.75 C 1.632812 -1.664062 1.734375 -1.550781 1.796875 -1.40625 C 1.867188 -1.257812 1.90625 -1.097656 1.90625 -0.921875 C 1.90625 -0.753906 1.867188 -0.597656 1.796875 -0.453125 C 1.734375 -0.304688 1.632812 -0.1875 1.5 -0.09375 C 1.375 -0.0078125 1.210938 0.03125 1.015625 0.03125 Z M 1.015625 -0.40625 C 1.140625 -0.40625 1.226562 -0.453125 1.28125 -0.546875 C 1.34375 -0.648438 1.375 -0.78125 1.375 -0.9375 C 1.375 -1.082031 1.34375 -1.203125 1.28125 -1.296875 C 1.226562 -1.398438 1.140625 -1.453125 1.015625 -1.453125 C 0.898438 -1.453125 0.8125 -1.398438 0.75 -1.296875 C 0.6875 -1.203125 0.65625 -1.082031 0.65625 -0.9375 C 0.65625 -0.78125 0.6875 -0.648438 0.75 -0.546875 C 0.8125 -0.453125 0.898438 -0.40625 1.015625 -0.40625 Z M 1.015625 -0.40625 "/></g></g><g style="fill:#191919;fill-opacity:1;"><g transform="translate(48.953321, 45.546339)"><path style="stroke:none" d="M 0.203125 -2.578125 L 0.75 -2.578125 L 0.75 -1.15625 L 0.765625 -1.15625 L 1.28125 -1.84375 L 1.875 -1.84375 L 1.265625 -1 L 1.890625 0 L 1.296875 0 L 0.78125 -0.875 L 0.75 -0.875 L 0.75 0 L 0.203125 0 Z M 0.203125 -2.578125 "/></g></g><g style="fill:#191919;fill-opacity:1;"><g transform="translate(50.963893, 45.546339)"><path style="stroke:none" d="M 0.25 -1.84375 L 0.78125 -1.84375 L 0.78125 0 L 0.25 0 Z M 0.515625 -2.15625 C 0.429688 -2.15625 0.359375 -2.179688 0.296875 -2.234375 C 0.242188 -2.296875 0.21875 -2.363281 0.21875 -2.4375 C 0.21875 -2.519531 0.242188 -2.585938 0.296875 -2.640625 C 0.359375 -2.703125 0.429688 -2.734375 0.515625 -2.734375 C 0.597656 -2.734375 0.664062 -2.703125 0.71875 -2.640625 C 0.78125 -2.585938 0.8125 -2.519531 0.8125 -2.4375 C 0.8125 -2.363281 0.78125 -2.296875 0.71875 -2.234375 C 0.664062 -2.179688 0.597656 -2.15625 0.515625 -2.15625 Z M 0.515625 -2.15625 "/></g></g><g style="fill:#191919;fill-opacity:1;"><g transform="translate(51.993612, 45.546339)"><path style="stroke:none" d="M 0.1875 -1.84375 L 0.71875 -1.84375 L 0.71875 -1.578125 L 0.75 -1.578125 C 0.789062 -1.660156 0.851562 -1.726562 0.9375 -1.78125 C 1.03125 -1.84375 1.140625 -1.875 1.265625 -1.875 C 1.515625 -1.875 1.679688 -1.796875 1.765625 -1.640625 C 1.859375 -1.492188 1.90625 -1.328125 1.90625 -1.140625 L 1.90625 0 L 1.375 0 L 1.375 -1.046875 C 1.375 -1.171875 1.34375 -1.265625 1.28125 -1.328125 C 1.226562 -1.398438 1.148438 -1.4375 1.046875 -1.4375 C 0.941406 -1.4375 0.859375 -1.398438 0.796875 -1.328125 C 0.742188 -1.253906 0.71875 -1.160156 0.71875 -1.046875 L 0.71875 0 L 0.1875 0 Z M 0.1875 -1.84375 "/></g></g><g style="fill:#191919;fill-opacity:1;"><g transform="translate(54.080978, 45.546339)"><path style="stroke:none" d="M 1.078125 0.78125 C 0.992188 0.78125 0.925781 0.773438 0.875 0.765625 C 0.832031 0.765625 0.800781 0.757812 0.78125 0.75 C 0.757812 0.738281 0.75 0.734375 0.75 0.734375 L 0.75 0.296875 C 0.769531 0.304688 0.804688 0.3125 0.859375 0.3125 C 0.910156 0.320312 0.957031 0.328125 1 0.328125 C 1.269531 0.328125 1.40625 0.175781 1.40625 -0.125 L 1.40625 -0.328125 L 1.390625 -0.328125 C 1.347656 -0.253906 1.28125 -0.179688 1.1875 -0.109375 C 1.101562 -0.046875 0.988281 -0.015625 0.84375 -0.015625 C 0.625 -0.015625 0.445312 -0.0976562 0.3125 -0.265625 C 0.1875 -0.429688 0.125 -0.65625 0.125 -0.9375 C 0.125 -1.132812 0.148438 -1.300781 0.203125 -1.4375 C 0.265625 -1.582031 0.347656 -1.691406 0.453125 -1.765625 C 0.566406 -1.847656 0.695312 -1.890625 0.84375 -1.890625 C 1 -1.890625 1.117188 -1.847656 1.203125 -1.765625 C 1.296875 -1.691406 1.359375 -1.617188 1.390625 -1.546875 L 1.40625 -1.546875 L 1.40625 -1.84375 L 1.953125 -1.84375 L 1.953125 -0.125 C 1.953125 0.0820312 1.894531 0.285156 1.78125 0.484375 C 1.664062 0.679688 1.429688 0.78125 1.078125 0.78125 Z M 1.046875 -0.453125 C 1.171875 -0.453125 1.257812 -0.5 1.3125 -0.59375 C 1.375 -0.695312 1.40625 -0.816406 1.40625 -0.953125 C 1.40625 -1.078125 1.375 -1.191406 1.3125 -1.296875 C 1.257812 -1.398438 1.171875 -1.453125 1.046875 -1.453125 C 0.921875 -1.453125 0.828125 -1.398438 0.765625 -1.296875 C 0.710938 -1.203125 0.6875 -1.085938 0.6875 -0.953125 C 0.6875 -0.816406 0.710938 -0.695312 0.765625 -0.59375 C 0.828125 -0.5 0.921875 -0.453125 1.046875 -0.453125 Z M 1.046875 -0.453125 "/></g></g><g style="fill:#191919;fill-opacity:1;"><g transform="translate(56.220701, 45.546339)"><path style="stroke:none" d=""/></g></g><g style="fill:#191919;fill-opacity:1;"><g transform="translate(57.023535, 45.546339)"><path style="stroke:none" d="M 0.1875 -2.4375 L 0.984375 -2.4375 L 1.46875 -1.0625 L 1.484375 -1.0625 L 1.953125 -2.4375 L 2.765625 -2.4375 L 2.765625 0 L 2.234375 0 L 2.234375 -1.671875 L 2.21875 -1.671875 L 1.640625 0 L 1.296875 0 L 0.734375 -1.671875 L 0.71875 -1.671875 L 0.71875 0 L 0.1875 0 Z M 0.1875 -2.4375 "/></g></g><g style="fill:#191919;fill-opacity:1;"><g transform="translate(59.973073, 45.546339)"><path style="stroke:none" d="M 0.828125 0.03125 C 0.597656 0.03125 0.421875 -0.0507812 0.296875 -0.21875 C 0.171875 -0.394531 0.109375 -0.628906 0.109375 -0.921875 C 0.109375 -1.210938 0.171875 -1.441406 0.296875 -1.609375 C 0.429688 -1.785156 0.609375 -1.875 0.828125 -1.875 C 0.984375 -1.875 1.101562 -1.835938 1.1875 -1.765625 C 1.269531 -1.703125 1.328125 -1.640625 1.359375 -1.578125 L 1.390625 -1.578125 L 1.390625 -1.84375 L 1.9375 -1.84375 L 1.9375 0 L 1.390625 0 L 1.390625 -0.296875 L 1.359375 -0.296875 C 1.328125 -0.222656 1.269531 -0.148438 1.1875 -0.078125 C 1.101562 -0.00390625 0.984375 0.03125 0.828125 0.03125 Z M 1.03125 -0.40625 C 1.15625 -0.40625 1.242188 -0.457031 1.296875 -0.5625 C 1.359375 -0.664062 1.390625 -0.785156 1.390625 -0.921875 C 1.390625 -1.066406 1.359375 -1.191406 1.296875 -1.296875 C 1.242188 -1.398438 1.15625 -1.453125 1.03125 -1.453125 C 0.90625 -1.453125 0.8125 -1.398438 0.75 -1.296875 C 0.6875 -1.191406 0.65625 -1.070312 0.65625 -0.9375 C 0.65625 -0.789062 0.6875 -0.664062 0.75 -0.5625 C 0.8125 -0.457031 0.90625 -0.40625 1.03125 -0.40625 Z M 1.03125 -0.40625 "/></g></g><g style="fill:#191919;fill-opacity:1;"><g transform="translate(62.12327, 45.546339)"><path style="stroke:none" d="M 0.1875 -1.84375 L 0.71875 -1.84375 L 0.71875 -1.578125 L 0.75 -1.578125 C 0.789062 -1.660156 0.851562 -1.726562 0.9375 -1.78125 C 1.03125 -1.84375 1.140625 -1.875 1.265625 -1.875 C 1.515625 -1.875 1.679688 -1.796875 1.765625 -1.640625 C 1.859375 -1.492188 1.90625 -1.328125 1.90625 -1.140625 L 1.90625 0 L 1.375 0 L 1.375 -1.046875 C 1.375 -1.171875 1.34375 -1.265625 1.28125 -1.328125 C 1.226562 -1.398438 1.148438 -1.4375 1.046875 -1.4375 C 0.941406 -1.4375 0.859375 -1.398438 0.796875 -1.328125 C 0.742188 -1.253906 0.71875 -1.160156 0.71875 -1.046875 L 0.71875 0 L 0.1875 0 Z M 0.1875 -1.84375 "/></g></g><g style="fill:#191919;fill-opacity:1;"><g transform="translate(64.210636, 45.546339)"><path style="stroke:none" d="M 0.828125 0.03125 C 0.597656 0.03125 0.421875 -0.0507812 0.296875 -0.21875 C 0.171875 -0.394531 0.109375 -0.628906 0.109375 -0.921875 C 0.109375 -1.210938 0.171875 -1.441406 0.296875 -1.609375 C 0.429688 -1.785156 0.609375 -1.875 0.828125 -1.875 C 0.984375 -1.875 1.101562 -1.835938 1.1875 -1.765625 C 1.269531 -1.703125 1.328125 -1.640625 1.359375 -1.578125 L 1.390625 -1.578125 L 1.390625 -1.84375 L 1.9375 -1.84375 L 1.9375 0 L 1.390625 0 L 1.390625 -0.296875 L 1.359375 -0.296875 C 1.328125 -0.222656 1.269531 -0.148438 1.1875 -0.078125 C 1.101562 -0.00390625 0.984375 0.03125 0.828125 0.03125 Z M 1.03125 -0.40625 C 1.15625 -0.40625 1.242188 -0.457031 1.296875 -0.5625 C 1.359375 -0.664062 1.390625 -0.785156 1.390625 -0.921875 C 1.390625 -1.066406 1.359375 -1.191406 1.296875 -1.296875 C 1.242188 -1.398438 1.15625 -1.453125 1.03125 -1.453125 C 0.90625 -1.453125 0.8125 -1.398438 0.75 -1.296875 C 0.6875 -1.191406 0.65625 -1.070312 0.65625 -0.9375 C 0.65625 -0.789062 0.6875 -0.664062 0.75 -0.5625 C 0.8125 -0.457031 0.90625 -0.40625 1.03125 -0.40625 Z M 1.03125 -0.40625 "/></g></g><g style="fill:#191919;fill-opacity:1;"><g transform="translate(66.360833, 45.546339)"><path style="stroke:none" d="M 1.078125 0.78125 C 0.992188 0.78125 0.925781 0.773438 0.875 0.765625 C 0.832031 0.765625 0.800781 0.757812 0.78125 0.75 C 0.757812 0.738281 0.75 0.734375 0.75 0.734375 L 0.75 0.296875 C 0.769531 0.304688 0.804688 0.3125 0.859375 0.3125 C 0.910156 0.320312 0.957031 0.328125 1 0.328125 C 1.269531 0.328125 1.40625 0.175781 1.40625 -0.125 L 1.40625 -0.328125 L 1.390625 -0.328125 C 1.347656 -0.253906 1.28125 -0.179688 1.1875 -0.109375 C 1.101562 -0.046875 0.988281 -0.015625 0.84375 -0.015625 C 0.625 -0.015625 0.445312 -0.0976562 0.3125 -0.265625 C 0.1875 -0.429688 0.125 -0.65625 0.125 -0.9375 C 0.125 -1.132812 0.148438 -1.300781 0.203125 -1.4375 C 0.265625 -1.582031 0.347656 -1.691406 0.453125 -1.765625 C 0.566406 -1.847656 0.695312 -1.890625 0.84375 -1.890625 C 1 -1.890625 1.117188 -1.847656 1.203125 -1.765625 C 1.296875 -1.691406 1.359375 -1.617188 1.390625 -1.546875 L 1.40625 -1.546875 L 1.40625 -1.84375 L 1.953125 -1.84375 L 1.953125 -0.125 C 1.953125 0.0820312 1.894531 0.285156 1.78125 0.484375 C 1.664062 0.679688 1.429688 0.78125 1.078125 0.78125 Z M 1.046875 -0.453125 C 1.171875 -0.453125 1.257812 -0.5 1.3125 -0.59375 C 1.375 -0.695312 1.40625 -0.816406 1.40625 -0.953125 C 1.40625 -1.078125 1.375 -1.191406 1.3125 -1.296875 C 1.257812 -1.398438 1.171875 -1.453125 1.046875 -1.453125 C 0.921875 -1.453125 0.828125 -1.398438 0.765625 -1.296875 C 0.710938 -1.203125 0.6875 -1.085938 0.6875 -0.953125 C 0.6875 -0.816406 0.710938 -0.695312 0.765625 -0.59375 C 0.828125 -0.5 0.921875 -0.453125 1.046875 -0.453125 Z M 1.046875 -0.453125 "/></g></g><g style="fill:#191919;fill-opacity:1;"><g transform="translate(68.500555, 45.546339)"><path style="stroke:none" d="M 1.015625 0.03125 C 0.816406 0.03125 0.648438 -0.0078125 0.515625 -0.09375 C 0.390625 -0.1875 0.289062 -0.304688 0.21875 -0.453125 C 0.15625 -0.597656 0.125 -0.753906 0.125 -0.921875 C 0.125 -1.085938 0.15625 -1.242188 0.21875 -1.390625 C 0.289062 -1.535156 0.390625 -1.648438 0.515625 -1.734375 C 0.648438 -1.828125 0.816406 -1.875 1.015625 -1.875 C 1.273438 -1.875 1.484375 -1.789062 1.640625 -1.625 C 1.796875 -1.46875 1.875 -1.234375 1.875 -0.921875 L 1.875 -0.78125 L 0.65625 -0.78125 L 0.65625 -0.75 C 0.65625 -0.65625 0.6875 -0.570312 0.75 -0.5 C 0.8125 -0.425781 0.894531 -0.390625 1 -0.390625 C 1.082031 -0.390625 1.148438 -0.40625 1.203125 -0.4375 C 1.265625 -0.476562 1.304688 -0.53125 1.328125 -0.59375 L 1.859375 -0.59375 C 1.804688 -0.414062 1.707031 -0.265625 1.5625 -0.140625 C 1.425781 -0.0234375 1.242188 0.03125 1.015625 0.03125 Z M 1.359375 -1.125 C 1.347656 -1.25 1.3125 -1.335938 1.25 -1.390625 C 1.1875 -1.453125 1.109375 -1.484375 1.015625 -1.484375 C 0.910156 -1.484375 0.828125 -1.453125 0.765625 -1.390625 C 0.703125 -1.328125 0.671875 -1.238281 0.671875 -1.125 Z M 1.359375 -1.125 "/></g></g><g style="fill:#191919;fill-opacity:1;"><g transform="translate(70.504145, 45.546339)"><path style="stroke:none" d="M 0.1875 -1.84375 L 0.71875 -1.84375 L 0.71875 -1.5625 L 0.75 -1.5625 C 0.757812 -1.59375 0.78125 -1.628906 0.8125 -1.671875 C 0.851562 -1.722656 0.910156 -1.769531 0.984375 -1.8125 C 1.054688 -1.851562 1.144531 -1.875 1.25 -1.875 C 1.363281 -1.875 1.457031 -1.847656 1.53125 -1.796875 C 1.613281 -1.742188 1.671875 -1.6875 1.703125 -1.625 C 1.742188 -1.570312 1.769531 -1.53125 1.78125 -1.5 L 1.796875 -1.5 C 1.828125 -1.582031 1.882812 -1.664062 1.96875 -1.75 C 2.050781 -1.832031 2.179688 -1.875 2.359375 -1.875 C 2.523438 -1.875 2.65625 -1.832031 2.75 -1.75 C 2.84375 -1.664062 2.90625 -1.566406 2.9375 -1.453125 C 2.96875 -1.347656 2.984375 -1.242188 2.984375 -1.140625 L 2.984375 0 L 2.453125 0 L 2.453125 -1.078125 C 2.453125 -1.191406 2.421875 -1.273438 2.359375 -1.328125 C 2.304688 -1.390625 2.238281 -1.421875 2.15625 -1.421875 C 2.070312 -1.421875 2 -1.390625 1.9375 -1.328125 C 1.882812 -1.273438 1.859375 -1.191406 1.859375 -1.078125 L 1.859375 0 L 1.3125 0 L 1.3125 -1.078125 C 1.3125 -1.191406 1.28125 -1.273438 1.21875 -1.328125 C 1.164062 -1.390625 1.097656 -1.421875 1.015625 -1.421875 C 0.941406 -1.421875 0.875 -1.390625 0.8125 -1.328125 C 0.75 -1.273438 0.71875 -1.191406 0.71875 -1.078125 L 0.71875 0 L 0.1875 0 Z M 0.1875 -1.84375 "/></g></g><g style="fill:#191919;fill-opacity:1;"><g transform="translate(73.670098, 45.546339)"><path style="stroke:none" d="M 1.015625 0.03125 C 0.816406 0.03125 0.648438 -0.0078125 0.515625 -0.09375 C 0.390625 -0.1875 0.289062 -0.304688 0.21875 -0.453125 C 0.15625 -0.597656 0.125 -0.753906 0.125 -0.921875 C 0.125 -1.085938 0.15625 -1.242188 0.21875 -1.390625 C 0.289062 -1.535156 0.390625 -1.648438 0.515625 -1.734375 C 0.648438 -1.828125 0.816406 -1.875 1.015625 -1.875 C 1.273438 -1.875 1.484375 -1.789062 1.640625 -1.625 C 1.796875 -1.46875 1.875 -1.234375 1.875 -0.921875 L 1.875 -0.78125 L 0.65625 -0.78125 L 0.65625 -0.75 C 0.65625 -0.65625 0.6875 -0.570312 0.75 -0.5 C 0.8125 -0.425781 0.894531 -0.390625 1 -0.390625 C 1.082031 -0.390625 1.148438 -0.40625 1.203125 -0.4375 C 1.265625 -0.476562 1.304688 -0.53125 1.328125 -0.59375 L 1.859375 -0.59375 C 1.804688 -0.414062 1.707031 -0.265625 1.5625 -0.140625 C 1.425781 -0.0234375 1.242188 0.03125 1.015625 0.03125 Z M 1.359375 -1.125 C 1.347656 -1.25 1.3125 -1.335938 1.25 -1.390625 C 1.1875 -1.453125 1.109375 -1.484375 1.015625 -1.484375 C 0.910156 -1.484375 0.828125 -1.453125 0.765625 -1.390625 C 0.703125 -1.328125 0.671875 -1.238281 0.671875 -1.125 Z M 1.359375 -1.125 "/></g></g><g style="fill:#191919;fill-opacity:1;"><g transform="translate(75.673688, 45.546339)"><path style="stroke:none" d="M 0.1875 -1.84375 L 0.71875 -1.84375 L 0.71875 -1.578125 L 0.75 -1.578125 C 0.789062 -1.660156 0.851562 -1.726562 0.9375 -1.78125 C 1.03125 -1.84375 1.140625 -1.875 1.265625 -1.875 C 1.515625 -1.875 1.679688 -1.796875 1.765625 -1.640625 C 1.859375 -1.492188 1.90625 -1.328125 1.90625 -1.140625 L 1.90625 0 L 1.375 0 L 1.375 -1.046875 C 1.375 -1.171875 1.34375 -1.265625 1.28125 -1.328125 C 1.226562 -1.398438 1.148438 -1.4375 1.046875 -1.4375 C 0.941406 -1.4375 0.859375 -1.398438 0.796875 -1.328125 C 0.742188 -1.253906 0.71875 -1.160156 0.71875 -1.046875 L 0.71875 0 L 0.1875 0 Z M 0.1875 -1.84375 "/></g></g><g style="fill:#191919;fill-opacity:1;"><g transform="translate(77.761054, 45.546339)"><path style="stroke:none" d="M 0.9375 -1.421875 L 0.9375 -0.6875 C 0.9375 -0.601562 0.9375 -0.539062 0.9375 -0.5 C 0.945312 -0.46875 0.96875 -0.4375 1 -0.40625 C 1.039062 -0.382812 1.109375 -0.375 1.203125 -0.375 C 1.242188 -0.375 1.285156 -0.378906 1.328125 -0.390625 L 1.328125 -0.015625 C 1.304688 -0.00390625 1.257812 0 1.1875 0 C 1.125 0.0078125 1.054688 0.015625 0.984375 0.015625 C 0.804688 0.015625 0.671875 -0.0078125 0.578125 -0.0625 C 0.492188 -0.125 0.441406 -0.191406 0.421875 -0.265625 C 0.398438 -0.335938 0.390625 -0.4375 0.390625 -0.5625 L 0.390625 -1.421875 L 0.09375 -1.421875 L 0.09375 -1.84375 L 0.390625 -1.84375 L 0.390625 -2.4375 L 0.9375 -2.4375 L 0.9375 -1.84375 L 1.328125 -1.84375 L 1.328125 -1.421875 Z M 0.9375 -1.421875 "/></g></g></g></svg>