<svg xmlns="http://www.w3.org/2000/svg" xmlns:xlink="http://www.w3.org/1999/xlink" width="350" zoomAndPan="magnify" viewBox="0 0 262.5 60" height="80" preserveAspectRatio="xMidYMid meet" version="1.2"><defs><clipPath id="330a0af6dd"><path d="M 1.320312 3.367188 L 260.734375 3.367188 L 260.734375 56.367188 L 1.320312 56.367188 Z M 1.320312 3.367188 "/></clipPath><clipPath id="7e6ed213d6"><path d="M 8.808594 3.367188 L 253.195312 3.367188 C 255.179688 3.367188 257.082031 4.15625 258.488281 5.558594 C 259.890625 6.964844 260.679688 8.867188 260.679688 10.851562 L 260.679688 48.882812 C 260.679688 50.867188 259.890625 52.773438 258.488281 54.175781 C 257.082031 55.578125 255.179688 56.367188 253.195312 56.367188 L 8.808594 56.367188 C 6.820312 56.367188 4.917969 55.578125 3.515625 54.175781 C 2.109375 52.773438 1.320312 50.867188 1.320312 48.882812 L 1.320312 10.851562 C 1.320312 8.867188 2.109375 6.964844 3.515625 5.558594 C 4.917969 4.15625 6.820312 3.367188 8.808594 3.367188 Z M 8.808594 3.367188 "/></clipPath><clipPath id="953ffbbf45"><path d="M 203.453125 20.367188 L 254.667969 20.367188 L 254.667969 40.050781 L 203.453125 40.050781 Z M 203.453125 20.367188 "/></clipPath><clipPath id="8dc28e2aca"><path d="M 210.941406 20.367188 L 247.117188 20.367188 C 249.101562 20.367188 251.003906 21.15625 252.410156 22.558594 C 253.8125 23.960938 254.601562 25.867188 254.601562 27.851562 L 254.601562 32.566406 C 254.601562 34.550781 253.8125 36.453125 252.410156 37.859375 C 251.003906 39.261719 249.101562 40.050781 247.117188 40.050781 L 210.941406 40.050781 C 208.953125 40.050781 207.050781 39.261719 205.648438 37.859375 C 204.242188 36.453125 203.453125 34.550781 203.453125 32.566406 L 203.453125 27.851562 C 203.453125 25.867188 204.242188 23.960938 205.648438 22.558594 C 207.050781 21.15625 208.953125 20.367188 210.941406 20.367188 Z M 210.941406 20.367188 "/></clipPath><filter x="0%" y="0%" width="100%" filterUnits="objectBoundingBox" id="68d3e52265" height="100%"><feColorMatrix values="0 0 0 0 1 0 0 0 0 1 0 0 0 0 1 0 0 0 1 0" type="matrix" in="SourceGraphic"/></filter><clipPath id="7171e0ffa9"><path d="M 0.257812 0.96875 L 2 0.96875 L 2 14.625 L 0.257812 14.625 Z M 0.257812 0.96875 "/></clipPath><clipPath id="5a5fd71ff8"><rect x="0" width="3" y="0" height="15"/></clipPath></defs><g id="bfa90acad1"><g clip-rule="nonzero" clip-path="url(#330a0af6dd)"><g clip-rule="nonzero" clip-path="url(#7e6ed213d6)"><path style=" stroke:none;fill-rule:nonzero;fill:#f5f3eb;fill-opacity:1;" d="M 1.320312 3.367188 L 260.734375 3.367188 L 260.734375 56.367188 L 1.320312 56.367188 Z M 1.320312 3.367188 "/></g></g><g clip-rule="nonzero" clip-path="url(#953ffbbf45)"><g clip-rule="nonzero" clip-path="url(#8dc28e2aca)"><path style=" stroke:none;fill-rule:nonzero;fill:#ec6408;fill-opacity:1;" d="M 203.453125 20.367188 L 254.589844 20.367188 L 254.589844 40.050781 L 203.453125 40.050781 Z M 203.453125 20.367188 "/></g></g><g mask="url(#cba72a6acd)" transform="matrix(1,0,0,1,74,24)"><g clip-path="url(#5a5fd71ff8)"><g clip-rule="nonzero" clip-path="url(#7171e0ffa9)"><path style="fill:none;stroke-width:2;stroke-linecap:butt;stroke-linejoin:miter;stroke:#5f6977;stroke-opacity:1;stroke-miterlimit:4;" d="M 0.00222353 0.999718 L 15.85528 0.999718 " transform="matrix(0,0.748574,-0.748574,0,1.990551,1.728804)"/></g></g><mask id="cba72a6acd"><g filter="url(#68d3e52265)"><rect x="0" width="262.5" y="0" height="60" style="fill:#000000;fill-opacity:0.3;stroke:none;"/></g></mask></g><g style="fill:#ffffff;fill-opacity:1;"><g transform="translate(210.940009, 32.183834)"><path style="stroke:none" d="M 1.203125 -1.4375 C 1.203125 -1.207031 1.285156 -1.023438 1.453125 -0.890625 C 1.628906 -0.753906 1.878906 -0.6875 2.203125 -0.6875 C 2.515625 -0.6875 2.753906 -0.738281 2.921875 -0.84375 C 3.085938 -0.945312 3.171875 -1.097656 3.171875 -1.296875 C 3.171875 -1.410156 3.128906 -1.507812 3.046875 -1.59375 C 2.960938 -1.6875 2.757812 -1.769531 2.4375 -1.84375 L 1.640625 -2.03125 C 1.140625 -2.144531 0.796875 -2.304688 0.609375 -2.515625 C 0.429688 -2.722656 0.34375 -3.003906 0.34375 -3.359375 C 0.34375 -3.785156 0.488281 -4.128906 0.78125 -4.390625 C 1.082031 -4.660156 1.535156 -4.796875 2.140625 -4.796875 C 2.734375 -4.796875 3.179688 -4.644531 3.484375 -4.34375 C 3.796875 -4.039062 3.957031 -3.691406 3.96875 -3.296875 L 3.03125 -3.296875 C 3.007812 -3.523438 2.914062 -3.695312 2.75 -3.8125 C 2.59375 -3.9375 2.363281 -4 2.0625 -4 C 1.820312 -4 1.625 -3.945312 1.46875 -3.84375 C 1.320312 -3.738281 1.25 -3.601562 1.25 -3.4375 C 1.25 -3.3125 1.28125 -3.207031 1.34375 -3.125 C 1.414062 -3.050781 1.523438 -3 1.671875 -2.96875 L 2.921875 -2.65625 C 3.367188 -2.539062 3.675781 -2.378906 3.84375 -2.171875 C 4.019531 -1.972656 4.109375 -1.71875 4.109375 -1.40625 C 4.109375 -0.894531 3.929688 -0.507812 3.578125 -0.25 C 3.222656 0 2.785156 0.125 2.265625 0.125 C 1.597656 0.125 1.097656 -0.015625 0.765625 -0.296875 C 0.429688 -0.585938 0.265625 -0.96875 0.265625 -1.4375 Z M 1.203125 -1.4375 "/></g><g transform="translate(215.305257, 32.183834)"><path style="stroke:none" d="M 2.609375 -2.078125 C 2.585938 -2.296875 2.515625 -2.472656 2.390625 -2.609375 C 2.265625 -2.742188 2.101562 -2.8125 1.90625 -2.8125 C 1.46875 -2.8125 1.21875 -2.566406 1.15625 -2.078125 Z M 3.5 -1.015625 C 3.394531 -0.660156 3.207031 -0.382812 2.9375 -0.1875 C 2.664062 0 2.347656 0.09375 1.984375 0.09375 C 1.410156 0.09375 0.972656 -0.0625 0.671875 -0.375 C 0.367188 -0.695312 0.21875 -1.132812 0.21875 -1.6875 C 0.21875 -2.25 0.359375 -2.703125 0.640625 -3.046875 C 0.929688 -3.390625 1.359375 -3.5625 1.921875 -3.5625 C 2.421875 -3.5625 2.816406 -3.398438 3.109375 -3.078125 C 3.398438 -2.753906 3.546875 -2.273438 3.546875 -1.640625 L 3.546875 -1.484375 L 1.140625 -1.484375 C 1.160156 -1.203125 1.238281 -0.988281 1.375 -0.84375 C 1.519531 -0.707031 1.71875 -0.640625 1.96875 -0.640625 C 2.113281 -0.640625 2.238281 -0.671875 2.34375 -0.734375 C 2.457031 -0.804688 2.53125 -0.898438 2.5625 -1.015625 Z M 3.5 -1.015625 "/></g><g transform="translate(219.037813, 32.183834)"><path style="stroke:none" d="M 2.4375 -1.6875 C 2.320312 -1.601562 2.101562 -1.535156 1.78125 -1.484375 C 1.507812 -1.453125 1.332031 -1.394531 1.25 -1.3125 C 1.164062 -1.226562 1.125 -1.117188 1.125 -0.984375 C 1.125 -0.835938 1.164062 -0.726562 1.25 -0.65625 C 1.34375 -0.59375 1.453125 -0.5625 1.578125 -0.5625 C 1.804688 -0.5625 2.003906 -0.625 2.171875 -0.75 C 2.347656 -0.882812 2.4375 -1.050781 2.4375 -1.25 Z M 3.328125 -0.671875 C 3.328125 -0.515625 3.335938 -0.390625 3.359375 -0.296875 C 3.390625 -0.210938 3.445312 -0.160156 3.53125 -0.140625 L 3.53125 0 L 2.546875 0 C 2.503906 -0.113281 2.472656 -0.25 2.453125 -0.40625 C 2.160156 -0.0703125 1.773438 0.09375 1.296875 0.09375 C 0.972656 0.09375 0.707031 0.00390625 0.5 -0.171875 C 0.300781 -0.359375 0.203125 -0.609375 0.203125 -0.921875 C 0.203125 -1.210938 0.289062 -1.453125 0.46875 -1.640625 C 0.644531 -1.835938 0.90625 -1.960938 1.25 -2.015625 L 2.109375 -2.140625 C 2.222656 -2.160156 2.304688 -2.191406 2.359375 -2.234375 C 2.410156 -2.285156 2.4375 -2.347656 2.4375 -2.421875 C 2.4375 -2.554688 2.382812 -2.65625 2.28125 -2.71875 C 2.1875 -2.789062 2.039062 -2.828125 1.84375 -2.828125 C 1.632812 -2.828125 1.476562 -2.789062 1.375 -2.71875 C 1.28125 -2.644531 1.222656 -2.519531 1.203125 -2.34375 L 0.3125 -2.34375 C 0.363281 -2.769531 0.507812 -3.078125 0.75 -3.265625 C 0.988281 -3.460938 1.375 -3.5625 1.90625 -3.5625 C 2.34375 -3.5625 2.6875 -3.472656 2.9375 -3.296875 C 3.195312 -3.128906 3.328125 -2.882812 3.328125 -2.5625 Z M 3.328125 -0.671875 "/></g><g transform="translate(222.757653, 32.183834)"><path style="stroke:none" d="M 0.453125 -3.46875 L 1.3125 -3.46875 L 1.3125 -2.859375 L 1.328125 -2.859375 C 1.429688 -3.085938 1.554688 -3.257812 1.703125 -3.375 C 1.859375 -3.5 2.050781 -3.5625 2.28125 -3.5625 C 2.34375 -3.5625 2.398438 -3.554688 2.453125 -3.546875 L 2.453125 -2.625 C 2.410156 -2.625 2.328125 -2.625 2.203125 -2.625 C 1.910156 -2.625 1.695312 -2.554688 1.5625 -2.421875 C 1.425781 -2.285156 1.359375 -2.078125 1.359375 -1.796875 L 1.359375 0 L 0.453125 0 Z M 0.453125 -3.46875 "/></g><g transform="translate(225.326567, 32.183834)"><path style="stroke:none" d="M 3.421875 -1.265625 C 3.367188 -0.859375 3.207031 -0.53125 2.9375 -0.28125 C 2.664062 -0.03125 2.300781 0.09375 1.84375 0.09375 C 1.320312 0.09375 0.921875 -0.0546875 0.640625 -0.359375 C 0.367188 -0.671875 0.234375 -1.097656 0.234375 -1.640625 C 0.234375 -2.273438 0.378906 -2.753906 0.671875 -3.078125 C 0.960938 -3.398438 1.375 -3.5625 1.90625 -3.5625 C 2.3125 -3.5625 2.65625 -3.445312 2.9375 -3.21875 C 3.226562 -2.988281 3.390625 -2.660156 3.421875 -2.234375 L 2.5 -2.234375 C 2.46875 -2.421875 2.398438 -2.5625 2.296875 -2.65625 C 2.191406 -2.75 2.0625 -2.796875 1.90625 -2.796875 C 1.664062 -2.796875 1.484375 -2.703125 1.359375 -2.515625 C 1.234375 -2.328125 1.171875 -2.082031 1.171875 -1.78125 C 1.171875 -1.34375 1.234375 -1.046875 1.359375 -0.890625 C 1.492188 -0.734375 1.664062 -0.65625 1.875 -0.65625 C 2.050781 -0.65625 2.195312 -0.710938 2.3125 -0.828125 C 2.425781 -0.953125 2.488281 -1.097656 2.5 -1.265625 Z M 3.421875 -1.265625 "/></g><g transform="translate(228.960564, 32.183834)"><path style="stroke:none" d="M 3.578125 0 L 2.671875 0 L 2.671875 -2.15625 C 2.671875 -2.363281 2.617188 -2.519531 2.515625 -2.625 C 2.421875 -2.738281 2.273438 -2.796875 2.078125 -2.796875 C 1.847656 -2.796875 1.671875 -2.71875 1.546875 -2.5625 C 1.421875 -2.414062 1.359375 -2.222656 1.359375 -1.984375 L 1.359375 0 L 0.453125 0 L 0.453125 -4.671875 L 1.359375 -4.671875 L 1.359375 -3.03125 L 1.375 -3.03125 C 1.582031 -3.382812 1.921875 -3.5625 2.390625 -3.5625 C 2.742188 -3.5625 3.03125 -3.453125 3.25 -3.234375 C 3.46875 -3.023438 3.578125 -2.75 3.578125 -2.40625 Z M 3.578125 0 "/></g><g transform="translate(232.934752, 32.183834)"><path style="stroke:none" d=""/></g><g transform="translate(234.683394, 32.183834)"><path style="stroke:none" d="M 2.484375 0 L 1.515625 0 L 1.515625 -3.84375 L 0.09375 -3.84375 L 0.09375 -4.671875 L 3.90625 -4.671875 L 3.90625 -3.84375 L 2.484375 -3.84375 Z M 2.484375 0 "/></g><g transform="translate(238.676657, 32.183834)"><path style="stroke:none" d="M 0.453125 -3.46875 L 1.3125 -3.46875 L 1.3125 -2.859375 L 1.328125 -2.859375 C 1.429688 -3.085938 1.554688 -3.257812 1.703125 -3.375 C 1.859375 -3.5 2.050781 -3.5625 2.28125 -3.5625 C 2.34375 -3.5625 2.398438 -3.554688 2.453125 -3.546875 L 2.453125 -2.625 C 2.410156 -2.625 2.328125 -2.625 2.203125 -2.625 C 1.910156 -2.625 1.695312 -2.554688 1.5625 -2.421875 C 1.425781 -2.285156 1.359375 -2.078125 1.359375 -1.796875 L 1.359375 0 L 0.453125 0 Z M 0.453125 -3.46875 "/></g><g transform="translate(241.245572, 32.183834)"><path style="stroke:none" d="M 1.359375 -3.875 L 0.453125 -3.875 L 0.453125 -4.71875 L 1.359375 -4.71875 Z M 1.359375 -3.46875 L 1.359375 0 L 0.453125 0 L 0.453125 -3.46875 Z M 1.359375 -3.46875 "/></g><g transform="translate(243.048263, 32.183834)"><path style="stroke:none" d="M 1.3125 -1.65625 C 1.3125 -1.351562 1.378906 -1.109375 1.515625 -0.921875 C 1.660156 -0.742188 1.863281 -0.65625 2.125 -0.65625 C 2.351562 -0.65625 2.535156 -0.753906 2.671875 -0.953125 C 2.804688 -1.160156 2.875 -1.410156 2.875 -1.703125 C 2.875 -2.046875 2.800781 -2.304688 2.65625 -2.484375 C 2.519531 -2.671875 2.332031 -2.765625 2.09375 -2.765625 C 1.832031 -2.765625 1.632812 -2.671875 1.5 -2.484375 C 1.375 -2.296875 1.3125 -2.019531 1.3125 -1.65625 Z M 1.3125 -2.96875 L 1.328125 -2.96875 C 1.554688 -3.363281 1.898438 -3.5625 2.359375 -3.5625 C 2.773438 -3.5625 3.117188 -3.398438 3.390625 -3.078125 C 3.671875 -2.765625 3.8125 -2.328125 3.8125 -1.765625 C 3.8125 -1.222656 3.679688 -0.773438 3.421875 -0.421875 C 3.171875 -0.078125 2.8125 0.09375 2.34375 0.09375 C 1.882812 0.09375 1.5625 -0.0820312 1.375 -0.4375 L 1.359375 -0.4375 L 1.359375 1.34375 L 0.453125 1.34375 L 0.453125 -3.46875 L 1.3125 -3.46875 Z M 1.3125 -2.96875 "/></g></g><g style="fill:#000000;fill-opacity:1;"><g transform="translate(10.706185, 30.361052)"><path style="stroke:none" d="M 1.5 -0.875 L 3.890625 -0.875 L 3.890625 0 L 0.484375 0 L 0.484375 -4.828125 L 1.5 -4.828125 Z M 1.5 -0.875 "/></g><g transform="translate(14.720278, 30.361052)"><path style="stroke:none" d="M 2.90625 -1.78125 C 2.90625 -2.125 2.832031 -2.390625 2.6875 -2.578125 C 2.550781 -2.773438 2.34375 -2.875 2.0625 -2.875 C 1.800781 -2.875 1.59375 -2.78125 1.4375 -2.59375 C 1.289062 -2.414062 1.21875 -2.144531 1.21875 -1.78125 C 1.21875 -1.425781 1.289062 -1.15625 1.4375 -0.96875 C 1.582031 -0.789062 1.789062 -0.703125 2.0625 -0.703125 C 2.34375 -0.703125 2.550781 -0.796875 2.6875 -0.984375 C 2.832031 -1.171875 2.90625 -1.4375 2.90625 -1.78125 Z M 3.875 -1.78125 C 3.875 -1.195312 3.707031 -0.738281 3.375 -0.40625 C 3.039062 -0.0703125 2.601562 0.09375 2.0625 0.09375 C 1.53125 0.09375 1.09375 -0.0703125 0.75 -0.40625 C 0.414062 -0.738281 0.25 -1.195312 0.25 -1.78125 C 0.25 -2.375 0.414062 -2.835938 0.75 -3.171875 C 1.09375 -3.503906 1.53125 -3.671875 2.0625 -3.671875 C 2.601562 -3.671875 3.039062 -3.5 3.375 -3.15625 C 3.707031 -2.820312 3.875 -2.363281 3.875 -1.78125 Z M 3.875 -1.78125 "/></g><g transform="translate(18.849247, 30.361052)"><path style="stroke:none" d="M 3.53125 -1.296875 C 3.476562 -0.878906 3.3125 -0.539062 3.03125 -0.28125 C 2.75 -0.03125 2.367188 0.09375 1.890625 0.09375 C 1.359375 0.09375 0.953125 -0.0625 0.671875 -0.375 C 0.390625 -0.695312 0.25 -1.132812 0.25 -1.6875 C 0.25 -2.34375 0.394531 -2.835938 0.6875 -3.171875 C 0.988281 -3.503906 1.410156 -3.671875 1.953125 -3.671875 C 2.378906 -3.671875 2.738281 -3.550781 3.03125 -3.3125 C 3.332031 -3.082031 3.5 -2.742188 3.53125 -2.296875 L 2.578125 -2.296875 C 2.546875 -2.492188 2.476562 -2.640625 2.375 -2.734375 C 2.269531 -2.828125 2.128906 -2.875 1.953125 -2.875 C 1.710938 -2.875 1.53125 -2.78125 1.40625 -2.59375 C 1.28125 -2.40625 1.21875 -2.15625 1.21875 -1.84375 C 1.21875 -1.394531 1.28125 -1.085938 1.40625 -0.921875 C 1.539062 -0.753906 1.71875 -0.671875 1.9375 -0.671875 C 2.113281 -0.671875 2.257812 -0.734375 2.375 -0.859375 C 2.5 -0.984375 2.566406 -1.128906 2.578125 -1.296875 Z M 3.53125 -1.296875 "/></g><g transform="translate(22.600767, 30.361052)"><path style="stroke:none" d="M 2.515625 -1.734375 C 2.390625 -1.648438 2.160156 -1.582031 1.828125 -1.53125 C 1.546875 -1.5 1.363281 -1.4375 1.28125 -1.34375 C 1.195312 -1.257812 1.15625 -1.144531 1.15625 -1 C 1.15625 -0.863281 1.203125 -0.757812 1.296875 -0.6875 C 1.390625 -0.613281 1.5 -0.578125 1.625 -0.578125 C 1.863281 -0.578125 2.070312 -0.644531 2.25 -0.78125 C 2.425781 -0.914062 2.515625 -1.082031 2.515625 -1.28125 Z M 3.421875 -0.703125 C 3.421875 -0.535156 3.4375 -0.40625 3.46875 -0.3125 C 3.5 -0.21875 3.554688 -0.160156 3.640625 -0.140625 L 3.640625 0 L 2.625 0 C 2.582031 -0.125 2.550781 -0.265625 2.53125 -0.421875 C 2.226562 -0.078125 1.832031 0.09375 1.34375 0.09375 C 1 0.09375 0.722656 0 0.515625 -0.1875 C 0.316406 -0.375 0.21875 -0.628906 0.21875 -0.953125 C 0.21875 -1.253906 0.304688 -1.503906 0.484375 -1.703125 C 0.660156 -1.898438 0.929688 -2.023438 1.296875 -2.078125 L 2.171875 -2.21875 C 2.296875 -2.226562 2.382812 -2.257812 2.4375 -2.3125 C 2.488281 -2.363281 2.515625 -2.425781 2.515625 -2.5 C 2.515625 -2.632812 2.460938 -2.738281 2.359375 -2.8125 C 2.253906 -2.882812 2.097656 -2.921875 1.890625 -2.921875 C 1.679688 -2.921875 1.523438 -2.878906 1.421875 -2.796875 C 1.316406 -2.722656 1.253906 -2.597656 1.234375 -2.421875 L 0.328125 -2.421875 C 0.367188 -2.859375 0.515625 -3.175781 0.765625 -3.375 C 1.015625 -3.570312 1.414062 -3.671875 1.96875 -3.671875 C 2.414062 -3.671875 2.769531 -3.582031 3.03125 -3.40625 C 3.289062 -3.226562 3.421875 -2.972656 3.421875 -2.640625 Z M 3.421875 -0.703125 "/></g><g transform="translate(26.440905, 30.361052)"><path style="stroke:none" d="M 1.515625 -3.578125 L 2.09375 -3.578125 L 2.09375 -2.90625 L 1.515625 -2.90625 L 1.515625 -0.90625 C 1.515625 -0.8125 1.535156 -0.75 1.578125 -0.71875 C 1.628906 -0.6875 1.710938 -0.671875 1.828125 -0.671875 C 1.929688 -0.671875 2.019531 -0.675781 2.09375 -0.6875 L 2.09375 0.015625 C 1.957031 0.0351562 1.785156 0.046875 1.578125 0.046875 C 1.210938 0.046875 0.953125 -0.0078125 0.796875 -0.125 C 0.640625 -0.238281 0.5625 -0.441406 0.5625 -0.734375 L 0.5625 -2.90625 L 0.078125 -2.90625 L 0.078125 -3.578125 L 0.5625 -3.578125 L 0.5625 -4.546875 L 1.515625 -4.546875 Z M 1.515625 -3.578125 "/></g><g transform="translate(28.699037, 30.361052)"><path style="stroke:none" d="M 1.40625 -4 L 0.453125 -4 L 0.453125 -4.875 L 1.40625 -4.875 Z M 1.40625 -3.578125 L 1.40625 0 L 0.453125 0 L 0.453125 -3.578125 Z M 1.40625 -3.578125 "/></g><g transform="translate(30.560027, 30.361052)"><path style="stroke:none" d="M 2.90625 -1.78125 C 2.90625 -2.125 2.832031 -2.390625 2.6875 -2.578125 C 2.550781 -2.773438 2.34375 -2.875 2.0625 -2.875 C 1.800781 -2.875 1.59375 -2.78125 1.4375 -2.59375 C 1.289062 -2.414062 1.21875 -2.144531 1.21875 -1.78125 C 1.21875 -1.425781 1.289062 -1.15625 1.4375 -0.96875 C 1.582031 -0.789062 1.789062 -0.703125 2.0625 -0.703125 C 2.34375 -0.703125 2.550781 -0.796875 2.6875 -0.984375 C 2.832031 -1.171875 2.90625 -1.4375 2.90625 -1.78125 Z M 3.875 -1.78125 C 3.875 -1.195312 3.707031 -0.738281 3.375 -0.40625 C 3.039062 -0.0703125 2.601562 0.09375 2.0625 0.09375 C 1.53125 0.09375 1.09375 -0.0703125 0.75 -0.40625 C 0.414062 -0.738281 0.25 -1.195312 0.25 -1.78125 C 0.25 -2.375 0.414062 -2.835938 0.75 -3.171875 C 1.09375 -3.503906 1.53125 -3.671875 2.0625 -3.671875 C 2.601562 -3.671875 3.039062 -3.5 3.375 -3.15625 C 3.707031 -2.820312 3.875 -2.363281 3.875 -1.78125 Z M 3.875 -1.78125 "/></g><g transform="translate(34.688996, 30.361052)"><path style="stroke:none" d="M 3.6875 0 L 2.75 0 L 2.75 -2.21875 C 2.75 -2.425781 2.703125 -2.585938 2.609375 -2.703125 C 2.515625 -2.816406 2.359375 -2.875 2.140625 -2.875 C 1.910156 -2.875 1.726562 -2.800781 1.59375 -2.65625 C 1.46875 -2.507812 1.40625 -2.304688 1.40625 -2.046875 L 1.40625 0 L 0.453125 0 L 0.453125 -3.578125 L 1.359375 -3.578125 L 1.359375 -3.046875 L 1.375 -3.046875 C 1.601562 -3.460938 1.957031 -3.671875 2.4375 -3.671875 C 2.800781 -3.671875 3.097656 -3.566406 3.328125 -3.359375 C 3.566406 -3.148438 3.6875 -2.851562 3.6875 -2.46875 Z M 3.6875 0 "/></g></g><g style="fill:#8b8b8b;fill-opacity:1;"><g transform="translate(10.706185, 39.017142)"><path style="stroke:none" d="M 3.5 0 L 0.46875 0 L 0.46875 -4.109375 L 3.453125 -4.109375 L 3.453125 -3.609375 L 1.015625 -3.609375 L 1.015625 -2.359375 L 3.265625 -2.359375 L 3.265625 -1.859375 L 1.015625 -1.859375 L 1.015625 -0.484375 L 3.5 -0.484375 Z M 3.5 0 "/></g><g transform="translate(14.426093, 39.017142)"><path style="stroke:none" d="M 2.8125 0 L 2.3125 0 L 2.3125 -1.84375 C 2.3125 -2.125 2.257812 -2.320312 2.15625 -2.4375 C 2.0625 -2.5625 1.898438 -2.625 1.671875 -2.625 C 1.441406 -2.625 1.25 -2.535156 1.09375 -2.359375 C 0.945312 -2.191406 0.875 -1.945312 0.875 -1.625 L 0.875 0 L 0.375 0 L 0.375 -2.984375 L 0.859375 -2.984375 L 0.859375 -2.5625 C 1.097656 -2.90625 1.398438 -3.078125 1.765625 -3.078125 C 2.109375 -3.078125 2.367188 -2.984375 2.546875 -2.796875 C 2.722656 -2.617188 2.8125 -2.363281 2.8125 -2.03125 Z M 2.8125 0 "/></g><g transform="translate(17.584241, 39.017142)"><path style="stroke:none" d="M 0.984375 -2.578125 L 0.984375 -0.625 C 0.984375 -0.550781 1.003906 -0.492188 1.046875 -0.453125 C 1.085938 -0.410156 1.160156 -0.390625 1.265625 -0.390625 L 1.46875 -0.390625 L 1.46875 0 C 1.28125 0.03125 1.15625 0.046875 1.09375 0.046875 C 0.875 0.046875 0.71875 -0.00390625 0.625 -0.109375 C 0.53125 -0.210938 0.484375 -0.375 0.484375 -0.59375 L 0.484375 -2.578125 L 0.078125 -2.578125 L 0.078125 -2.984375 L 0.484375 -2.984375 L 0.484375 -3.828125 L 0.984375 -3.828125 L 0.984375 -2.984375 L 1.46875 -2.984375 L 1.46875 -2.578125 Z M 0.984375 -2.578125 "/></g><g transform="translate(19.168905, 39.017142)"><path style="stroke:none" d="M 2.421875 -1.734375 C 2.398438 -2.054688 2.316406 -2.285156 2.171875 -2.421875 C 2.023438 -2.554688 1.832031 -2.625 1.59375 -2.625 C 1.351562 -2.625 1.15625 -2.535156 1 -2.359375 C 0.851562 -2.191406 0.773438 -1.984375 0.765625 -1.734375 Z M 2.90625 -0.9375 C 2.851562 -0.625 2.703125 -0.367188 2.453125 -0.171875 C 2.234375 0.00390625 1.945312 0.09375 1.59375 0.09375 C 1.175781 0.09375 0.84375 -0.0390625 0.59375 -0.3125 C 0.351562 -0.582031 0.234375 -0.945312 0.234375 -1.40625 C 0.234375 -1.9375 0.359375 -2.347656 0.609375 -2.640625 C 0.859375 -2.929688 1.210938 -3.078125 1.671875 -3.078125 C 2.066406 -3.078125 2.378906 -2.925781 2.609375 -2.625 C 2.835938 -2.320312 2.953125 -1.890625 2.953125 -1.328125 L 0.765625 -1.328125 C 0.765625 -1.015625 0.835938 -0.769531 0.984375 -0.59375 C 1.128906 -0.425781 1.347656 -0.34375 1.640625 -0.34375 C 1.835938 -0.34375 2.007812 -0.40625 2.15625 -0.53125 C 2.3125 -0.65625 2.394531 -0.789062 2.40625 -0.9375 Z M 2.90625 -0.9375 "/></g><g transform="translate(22.341028, 39.017142)"><path style="stroke:none" d="M 0.875 0 L 0.375 0 L 0.375 -2.984375 L 0.859375 -2.984375 L 0.859375 -2.5 C 1.078125 -2.882812 1.359375 -3.078125 1.703125 -3.078125 C 1.753906 -3.078125 1.796875 -3.070312 1.828125 -3.0625 L 1.828125 -2.53125 L 1.640625 -2.53125 C 1.421875 -2.53125 1.238281 -2.453125 1.09375 -2.296875 C 0.945312 -2.148438 0.875 -1.960938 0.875 -1.734375 Z M 0.875 0 "/></g><g transform="translate(24.205174, 39.017142)"><path style="stroke:none" d=""/></g><g transform="translate(25.602585, 39.017142)"><path style="stroke:none" d="M 2.234375 -2.984375 L 2.78125 -2.984375 L 1.703125 -0.0625 C 1.691406 -0.0078125 1.675781 0.0390625 1.65625 0.09375 C 1.488281 0.519531 1.347656 0.8125 1.234375 0.96875 C 1.117188 1.132812 0.929688 1.21875 0.671875 1.21875 C 0.523438 1.21875 0.410156 1.203125 0.328125 1.171875 L 0.328125 0.71875 C 0.421875 0.75 0.523438 0.765625 0.640625 0.765625 C 0.765625 0.765625 0.851562 0.722656 0.90625 0.640625 C 0.96875 0.566406 1.050781 0.382812 1.15625 0.09375 L 0.046875 -2.984375 L 0.609375 -2.984375 L 1.421875 -0.5625 L 1.4375 -0.5625 Z M 2.234375 -2.984375 "/></g><g transform="translate(28.442124, 39.017142)"><path style="stroke:none" d="M 0.71875 -1.5 C 0.71875 -1.164062 0.789062 -0.890625 0.9375 -0.671875 C 1.09375 -0.460938 1.3125 -0.359375 1.59375 -0.359375 C 1.882812 -0.359375 2.101562 -0.46875 2.25 -0.6875 C 2.394531 -0.914062 2.46875 -1.1875 2.46875 -1.5 C 2.46875 -1.8125 2.394531 -2.078125 2.25 -2.296875 C 2.101562 -2.523438 1.882812 -2.640625 1.59375 -2.640625 C 1.320312 -2.640625 1.109375 -2.535156 0.953125 -2.328125 C 0.796875 -2.117188 0.71875 -1.84375 0.71875 -1.5 Z M 0.21875 -1.5 C 0.21875 -1.945312 0.335938 -2.320312 0.578125 -2.625 C 0.828125 -2.925781 1.164062 -3.078125 1.59375 -3.078125 C 2.03125 -3.078125 2.367188 -2.921875 2.609375 -2.609375 C 2.859375 -2.304688 2.984375 -1.9375 2.984375 -1.5 C 2.984375 -1.0625 2.859375 -0.6875 2.609375 -0.375 C 2.367188 -0.0625 2.03125 0.09375 1.59375 0.09375 C 1.164062 0.09375 0.828125 -0.0546875 0.578125 -0.359375 C 0.335938 -0.660156 0.21875 -1.039062 0.21875 -1.5 Z M 0.21875 -1.5 "/></g><g transform="translate(31.642194, 39.017142)"><path style="stroke:none" d="M 0.34375 -2.984375 L 0.859375 -2.984375 L 0.859375 -1 C 0.859375 -0.78125 0.90625 -0.613281 1 -0.5 C 1.101562 -0.394531 1.25 -0.34375 1.4375 -0.34375 C 1.6875 -0.34375 1.882812 -0.4375 2.03125 -0.625 C 2.175781 -0.8125 2.25 -1.050781 2.25 -1.34375 L 2.25 -2.984375 L 2.75 -2.984375 L 2.75 0 L 2.28125 0 L 2.28125 -0.4375 L 2.265625 -0.453125 C 2.078125 -0.0859375 1.765625 0.09375 1.328125 0.09375 C 1.035156 0.09375 0.796875 0.015625 0.609375 -0.140625 C 0.429688 -0.296875 0.34375 -0.53125 0.34375 -0.84375 Z M 0.34375 -2.984375 "/></g><g transform="translate(34.777984, 39.017142)"><path style="stroke:none" d="M 0.875 0 L 0.375 0 L 0.375 -2.984375 L 0.859375 -2.984375 L 0.859375 -2.5 C 1.078125 -2.882812 1.359375 -3.078125 1.703125 -3.078125 C 1.753906 -3.078125 1.796875 -3.070312 1.828125 -3.0625 L 1.828125 -2.53125 L 1.640625 -2.53125 C 1.421875 -2.53125 1.238281 -2.453125 1.09375 -2.296875 C 0.945312 -2.148438 0.875 -1.960938 0.875 -1.734375 Z M 0.875 0 "/></g><g transform="translate(36.64213, 39.017142)"><path style="stroke:none" d=""/></g><g transform="translate(38.039541, 39.017142)"><path style="stroke:none" d="M 0.875 0 L 0.375 0 L 0.375 -4.109375 L 0.875 -4.109375 Z M 0.875 0 "/></g><g transform="translate(39.300006, 39.017142)"><path style="stroke:none" d="M 0.71875 -1.5 C 0.71875 -1.164062 0.789062 -0.890625 0.9375 -0.671875 C 1.09375 -0.460938 1.3125 -0.359375 1.59375 -0.359375 C 1.882812 -0.359375 2.101562 -0.46875 2.25 -0.6875 C 2.394531 -0.914062 2.46875 -1.1875 2.46875 -1.5 C 2.46875 -1.8125 2.394531 -2.078125 2.25 -2.296875 C 2.101562 -2.523438 1.882812 -2.640625 1.59375 -2.640625 C 1.320312 -2.640625 1.109375 -2.535156 0.953125 -2.328125 C 0.796875 -2.117188 0.71875 -1.84375 0.71875 -1.5 Z M 0.21875 -1.5 C 0.21875 -1.945312 0.335938 -2.320312 0.578125 -2.625 C 0.828125 -2.925781 1.164062 -3.078125 1.59375 -3.078125 C 2.03125 -3.078125 2.367188 -2.921875 2.609375 -2.609375 C 2.859375 -2.304688 2.984375 -1.9375 2.984375 -1.5 C 2.984375 -1.0625 2.859375 -0.6875 2.609375 -0.375 C 2.367188 -0.0625 2.03125 0.09375 1.59375 0.09375 C 1.164062 0.09375 0.828125 -0.0546875 0.578125 -0.359375 C 0.335938 -0.660156 0.21875 -1.039062 0.21875 -1.5 Z M 0.21875 -1.5 "/></g><g transform="translate(42.500076, 39.017142)"><path style="stroke:none" d="M 2.265625 -1.984375 C 2.191406 -2.410156 1.957031 -2.625 1.5625 -2.625 C 1.3125 -2.625 1.109375 -2.523438 0.953125 -2.328125 C 0.804688 -2.128906 0.734375 -1.851562 0.734375 -1.5 C 0.734375 -1.113281 0.800781 -0.820312 0.9375 -0.625 C 1.082031 -0.4375 1.285156 -0.34375 1.546875 -0.34375 C 1.722656 -0.34375 1.875 -0.410156 2 -0.546875 C 2.132812 -0.679688 2.222656 -0.851562 2.265625 -1.0625 L 2.75 -1.0625 C 2.695312 -0.6875 2.566406 -0.398438 2.359375 -0.203125 C 2.148438 -0.00390625 1.875 0.09375 1.53125 0.09375 C 1.144531 0.09375 0.828125 -0.0390625 0.578125 -0.3125 C 0.328125 -0.582031 0.203125 -0.945312 0.203125 -1.40625 C 0.203125 -1.914062 0.328125 -2.320312 0.578125 -2.625 C 0.828125 -2.925781 1.175781 -3.078125 1.625 -3.078125 C 1.957031 -3.078125 2.222656 -2.976562 2.421875 -2.78125 C 2.617188 -2.582031 2.726562 -2.316406 2.75 -1.984375 Z M 2.265625 -1.984375 "/></g><g transform="translate(45.434639, 39.017142)"><path style="stroke:none" d="M 2.1875 -1.53125 C 2.15625 -1.488281 2.082031 -1.453125 1.96875 -1.421875 C 1.863281 -1.398438 1.660156 -1.375 1.359375 -1.34375 C 1.140625 -1.3125 0.976562 -1.253906 0.875 -1.171875 C 0.769531 -1.085938 0.71875 -0.984375 0.71875 -0.859375 C 0.71875 -0.691406 0.757812 -0.5625 0.84375 -0.46875 C 0.9375 -0.375 1.082031 -0.328125 1.28125 -0.328125 C 1.519531 -0.328125 1.726562 -0.394531 1.90625 -0.53125 C 2.09375 -0.675781 2.1875 -0.84375 2.1875 -1.03125 Z M 0.359375 -2.078125 C 0.367188 -2.410156 0.476562 -2.660156 0.6875 -2.828125 C 0.894531 -2.992188 1.195312 -3.078125 1.59375 -3.078125 C 1.90625 -3.078125 2.164062 -3.003906 2.375 -2.859375 C 2.59375 -2.710938 2.703125 -2.507812 2.703125 -2.25 L 2.703125 -0.515625 C 2.703125 -0.398438 2.753906 -0.34375 2.859375 -0.34375 C 2.898438 -0.34375 2.957031 -0.347656 3.03125 -0.359375 L 3.03125 0 C 2.9375 0.0390625 2.84375 0.0625 2.75 0.0625 C 2.570312 0.0625 2.441406 0.0234375 2.359375 -0.046875 C 2.273438 -0.128906 2.234375 -0.25 2.234375 -0.40625 C 1.941406 -0.0703125 1.582031 0.09375 1.15625 0.09375 C 0.863281 0.09375 0.632812 0.015625 0.46875 -0.140625 C 0.300781 -0.304688 0.21875 -0.519531 0.21875 -0.78125 C 0.21875 -1.039062 0.289062 -1.25 0.4375 -1.40625 C 0.582031 -1.570312 0.800781 -1.671875 1.09375 -1.703125 L 1.96875 -1.8125 C 2.132812 -1.84375 2.21875 -1.960938 2.21875 -2.171875 C 2.21875 -2.328125 2.15625 -2.445312 2.03125 -2.53125 C 1.914062 -2.613281 1.742188 -2.65625 1.515625 -2.65625 C 1.296875 -2.65625 1.128906 -2.609375 1.015625 -2.515625 C 0.910156 -2.421875 0.847656 -2.273438 0.828125 -2.078125 Z M 0.359375 -2.078125 "/></g><g transform="translate(48.578814, 39.017142)"><path style="stroke:none" d="M 0.984375 -2.578125 L 0.984375 -0.625 C 0.984375 -0.550781 1.003906 -0.492188 1.046875 -0.453125 C 1.085938 -0.410156 1.160156 -0.390625 1.265625 -0.390625 L 1.46875 -0.390625 L 1.46875 0 C 1.28125 0.03125 1.15625 0.046875 1.09375 0.046875 C 0.875 0.046875 0.71875 -0.00390625 0.625 -0.109375 C 0.53125 -0.210938 0.484375 -0.375 0.484375 -0.59375 L 0.484375 -2.578125 L 0.078125 -2.578125 L 0.078125 -2.984375 L 0.484375 -2.984375 L 0.484375 -3.828125 L 0.984375 -3.828125 L 0.984375 -2.984375 L 1.46875 -2.984375 L 1.46875 -2.578125 Z M 0.984375 -2.578125 "/></g><g transform="translate(50.163478, 39.017142)"><path style="stroke:none" d="M 0.375 -3.53125 L 0.375 -4.109375 L 0.875 -4.109375 L 0.875 -3.53125 Z M 0.875 0 L 0.375 0 L 0.375 -2.984375 L 0.875 -2.984375 Z M 0.875 0 "/></g><g transform="translate(51.423942, 39.017142)"><path style="stroke:none" d="M 0.71875 -1.5 C 0.71875 -1.164062 0.789062 -0.890625 0.9375 -0.671875 C 1.09375 -0.460938 1.3125 -0.359375 1.59375 -0.359375 C 1.882812 -0.359375 2.101562 -0.46875 2.25 -0.6875 C 2.394531 -0.914062 2.46875 -1.1875 2.46875 -1.5 C 2.46875 -1.8125 2.394531 -2.078125 2.25 -2.296875 C 2.101562 -2.523438 1.882812 -2.640625 1.59375 -2.640625 C 1.320312 -2.640625 1.109375 -2.535156 0.953125 -2.328125 C 0.796875 -2.117188 0.71875 -1.84375 0.71875 -1.5 Z M 0.21875 -1.5 C 0.21875 -1.945312 0.335938 -2.320312 0.578125 -2.625 C 0.828125 -2.925781 1.164062 -3.078125 1.59375 -3.078125 C 2.03125 -3.078125 2.367188 -2.921875 2.609375 -2.609375 C 2.859375 -2.304688 2.984375 -1.9375 2.984375 -1.5 C 2.984375 -1.0625 2.859375 -0.6875 2.609375 -0.375 C 2.367188 -0.0625 2.03125 0.09375 1.59375 0.09375 C 1.164062 0.09375 0.828125 -0.0546875 0.578125 -0.359375 C 0.335938 -0.660156 0.21875 -1.039062 0.21875 -1.5 Z M 0.21875 -1.5 "/></g><g transform="translate(54.624013, 39.017142)"><path style="stroke:none" d="M 2.8125 0 L 2.3125 0 L 2.3125 -1.84375 C 2.3125 -2.125 2.257812 -2.320312 2.15625 -2.4375 C 2.0625 -2.5625 1.898438 -2.625 1.671875 -2.625 C 1.441406 -2.625 1.25 -2.535156 1.09375 -2.359375 C 0.945312 -2.191406 0.875 -1.945312 0.875 -1.625 L 0.875 0 L 0.375 0 L 0.375 -2.984375 L 0.859375 -2.984375 L 0.859375 -2.5625 C 1.097656 -2.90625 1.398438 -3.078125 1.765625 -3.078125 C 2.109375 -3.078125 2.367188 -2.984375 2.546875 -2.796875 C 2.722656 -2.617188 2.8125 -2.363281 2.8125 -2.03125 Z M 2.8125 0 "/></g></g><g style="fill:#000000;fill-opacity:1;"><g transform="translate(80.596028, 30.361052)"><path style="stroke:none" d="M 1.484375 -0.828125 L 2.453125 -0.828125 C 2.804688 -0.828125 3.078125 -0.972656 3.265625 -1.265625 C 3.460938 -1.554688 3.5625 -1.953125 3.5625 -2.453125 C 3.5625 -2.972656 3.472656 -3.359375 3.296875 -3.609375 C 3.117188 -3.867188 2.847656 -4 2.484375 -4 L 1.484375 -4 Z M 0.484375 -4.828125 L 2.625 -4.828125 C 3.269531 -4.828125 3.753906 -4.613281 4.078125 -4.1875 C 4.410156 -3.757812 4.578125 -3.207031 4.578125 -2.53125 C 4.578125 -1.769531 4.398438 -1.15625 4.046875 -0.6875 C 3.703125 -0.226562 3.210938 0 2.578125 0 L 0.484375 0 Z M 0.484375 -4.828125 "/></g><g transform="translate(85.476614, 30.361052)"><path style="stroke:none" d="M 2.515625 -1.734375 C 2.390625 -1.648438 2.160156 -1.582031 1.828125 -1.53125 C 1.546875 -1.5 1.363281 -1.4375 1.28125 -1.34375 C 1.195312 -1.257812 1.15625 -1.144531 1.15625 -1 C 1.15625 -0.863281 1.203125 -0.757812 1.296875 -0.6875 C 1.390625 -0.613281 1.5 -0.578125 1.625 -0.578125 C 1.863281 -0.578125 2.070312 -0.644531 2.25 -0.78125 C 2.425781 -0.914062 2.515625 -1.082031 2.515625 -1.28125 Z M 3.421875 -0.703125 C 3.421875 -0.535156 3.4375 -0.40625 3.46875 -0.3125 C 3.5 -0.21875 3.554688 -0.160156 3.640625 -0.140625 L 3.640625 0 L 2.625 0 C 2.582031 -0.125 2.550781 -0.265625 2.53125 -0.421875 C 2.226562 -0.078125 1.832031 0.09375 1.34375 0.09375 C 1 0.09375 0.722656 0 0.515625 -0.1875 C 0.316406 -0.375 0.21875 -0.628906 0.21875 -0.953125 C 0.21875 -1.253906 0.304688 -1.503906 0.484375 -1.703125 C 0.660156 -1.898438 0.929688 -2.023438 1.296875 -2.078125 L 2.171875 -2.21875 C 2.296875 -2.226562 2.382812 -2.257812 2.4375 -2.3125 C 2.488281 -2.363281 2.515625 -2.425781 2.515625 -2.5 C 2.515625 -2.632812 2.460938 -2.738281 2.359375 -2.8125 C 2.253906 -2.882812 2.097656 -2.921875 1.890625 -2.921875 C 1.679688 -2.921875 1.523438 -2.878906 1.421875 -2.796875 C 1.316406 -2.722656 1.253906 -2.597656 1.234375 -2.421875 L 0.328125 -2.421875 C 0.367188 -2.859375 0.515625 -3.175781 0.765625 -3.375 C 1.015625 -3.570312 1.414062 -3.671875 1.96875 -3.671875 C 2.414062 -3.671875 2.769531 -3.582031 3.03125 -3.40625 C 3.289062 -3.226562 3.421875 -2.972656 3.421875 -2.640625 Z M 3.421875 -0.703125 "/></g><g transform="translate(89.316752, 30.361052)"><path style="stroke:none" d="M 1.515625 -3.578125 L 2.09375 -3.578125 L 2.09375 -2.90625 L 1.515625 -2.90625 L 1.515625 -0.90625 C 1.515625 -0.8125 1.535156 -0.75 1.578125 -0.71875 C 1.628906 -0.6875 1.710938 -0.671875 1.828125 -0.671875 C 1.929688 -0.671875 2.019531 -0.675781 2.09375 -0.6875 L 2.09375 0.015625 C 1.957031 0.0351562 1.785156 0.046875 1.578125 0.046875 C 1.210938 0.046875 0.953125 -0.0078125 0.796875 -0.125 C 0.640625 -0.238281 0.5625 -0.441406 0.5625 -0.734375 L 0.5625 -2.90625 L 0.078125 -2.90625 L 0.078125 -3.578125 L 0.5625 -3.578125 L 0.5625 -4.546875 L 1.515625 -4.546875 Z M 1.515625 -3.578125 "/></g><g transform="translate(91.574884, 30.361052)"><path style="stroke:none" d="M 2.6875 -2.140625 C 2.664062 -2.367188 2.585938 -2.550781 2.453125 -2.6875 C 2.328125 -2.820312 2.164062 -2.890625 1.96875 -2.890625 C 1.519531 -2.890625 1.265625 -2.640625 1.203125 -2.140625 Z M 3.609375 -1.046875 C 3.503906 -0.671875 3.3125 -0.382812 3.03125 -0.1875 C 2.75 0 2.421875 0.09375 2.046875 0.09375 C 1.453125 0.09375 1 -0.0664062 0.6875 -0.390625 C 0.382812 -0.710938 0.234375 -1.160156 0.234375 -1.734375 C 0.234375 -2.316406 0.378906 -2.785156 0.671875 -3.140625 C 0.960938 -3.492188 1.394531 -3.671875 1.96875 -3.671875 C 2.488281 -3.671875 2.898438 -3.503906 3.203125 -3.171875 C 3.503906 -2.835938 3.65625 -2.347656 3.65625 -1.703125 L 3.65625 -1.53125 L 1.171875 -1.53125 C 1.191406 -1.238281 1.273438 -1.019531 1.421875 -0.875 C 1.578125 -0.726562 1.78125 -0.65625 2.03125 -0.65625 C 2.1875 -0.65625 2.316406 -0.691406 2.421875 -0.765625 C 2.535156 -0.835938 2.609375 -0.929688 2.640625 -1.046875 Z M 3.609375 -1.046875 "/></g></g><g style="fill:#8b8b8b;fill-opacity:1;"><g transform="translate(80.596028, 39.017142)"><path style="stroke:none" d="M 3.3125 -2.875 C 3.25 -3.15625 3.117188 -3.363281 2.921875 -3.5 C 2.734375 -3.644531 2.484375 -3.71875 2.171875 -3.71875 C 1.765625 -3.71875 1.4375 -3.570312 1.1875 -3.28125 C 0.945312 -2.988281 0.828125 -2.59375 0.828125 -2.09375 C 0.828125 -1.519531 0.941406 -1.085938 1.171875 -0.796875 C 1.398438 -0.515625 1.738281 -0.375 2.1875 -0.375 C 2.476562 -0.375 2.726562 -0.46875 2.9375 -0.65625 C 3.144531 -0.851562 3.285156 -1.140625 3.359375 -1.515625 L 3.890625 -1.515625 C 3.816406 -0.984375 3.613281 -0.578125 3.28125 -0.296875 C 2.957031 -0.0234375 2.5625 0.109375 2.09375 0.109375 C 1.539062 0.109375 1.09375 -0.0820312 0.75 -0.46875 C 0.414062 -0.851562 0.25 -1.390625 0.25 -2.078125 C 0.25 -2.734375 0.421875 -3.253906 0.765625 -3.640625 C 1.117188 -4.023438 1.585938 -4.21875 2.171875 -4.21875 C 2.640625 -4.21875 3.019531 -4.09375 3.3125 -3.84375 C 3.613281 -3.59375 3.796875 -3.269531 3.859375 -2.875 Z M 3.3125 -2.875 "/></g><g transform="translate(84.735159, 39.017142)"><path style="stroke:none" d="M 2.8125 0 L 2.3125 0 L 2.3125 -1.953125 C 2.3125 -2.191406 2.265625 -2.363281 2.171875 -2.46875 C 2.078125 -2.570312 1.925781 -2.625 1.71875 -2.625 C 1.457031 -2.625 1.25 -2.539062 1.09375 -2.375 C 0.945312 -2.207031 0.875 -1.957031 0.875 -1.625 L 0.875 0 L 0.375 0 L 0.375 -4.109375 L 0.875 -4.109375 L 0.875 -2.59375 L 0.890625 -2.59375 C 1.117188 -2.914062 1.410156 -3.078125 1.765625 -3.078125 C 2.097656 -3.078125 2.351562 -2.988281 2.53125 -2.8125 C 2.71875 -2.644531 2.8125 -2.382812 2.8125 -2.03125 Z M 2.8125 0 "/></g><g transform="translate(87.893308, 39.017142)"><path style="stroke:none" d="M 2.421875 -1.734375 C 2.398438 -2.054688 2.316406 -2.285156 2.171875 -2.421875 C 2.023438 -2.554688 1.832031 -2.625 1.59375 -2.625 C 1.351562 -2.625 1.15625 -2.535156 1 -2.359375 C 0.851562 -2.191406 0.773438 -1.984375 0.765625 -1.734375 Z M 2.90625 -0.9375 C 2.851562 -0.625 2.703125 -0.367188 2.453125 -0.171875 C 2.234375 0.00390625 1.945312 0.09375 1.59375 0.09375 C 1.175781 0.09375 0.84375 -0.0390625 0.59375 -0.3125 C 0.351562 -0.582031 0.234375 -0.945312 0.234375 -1.40625 C 0.234375 -1.9375 0.359375 -2.347656 0.609375 -2.640625 C 0.859375 -2.929688 1.210938 -3.078125 1.671875 -3.078125 C 2.066406 -3.078125 2.378906 -2.925781 2.609375 -2.625 C 2.835938 -2.320312 2.953125 -1.890625 2.953125 -1.328125 L 0.765625 -1.328125 C 0.765625 -1.015625 0.835938 -0.769531 0.984375 -0.59375 C 1.128906 -0.425781 1.347656 -0.34375 1.640625 -0.34375 C 1.835938 -0.34375 2.007812 -0.40625 2.15625 -0.53125 C 2.3125 -0.65625 2.394531 -0.789062 2.40625 -0.9375 Z M 2.90625 -0.9375 "/></g><g transform="translate(91.06543, 39.017142)"><path style="stroke:none" d="M 2.265625 -1.984375 C 2.191406 -2.410156 1.957031 -2.625 1.5625 -2.625 C 1.3125 -2.625 1.109375 -2.523438 0.953125 -2.328125 C 0.804688 -2.128906 0.734375 -1.851562 0.734375 -1.5 C 0.734375 -1.113281 0.800781 -0.820312 0.9375 -0.625 C 1.082031 -0.4375 1.285156 -0.34375 1.546875 -0.34375 C 1.722656 -0.34375 1.875 -0.410156 2 -0.546875 C 2.132812 -0.679688 2.222656 -0.851562 2.265625 -1.0625 L 2.75 -1.0625 C 2.695312 -0.6875 2.566406 -0.398438 2.359375 -0.203125 C 2.148438 -0.00390625 1.875 0.09375 1.53125 0.09375 C 1.144531 0.09375 0.828125 -0.0390625 0.578125 -0.3125 C 0.328125 -0.582031 0.203125 -0.945312 0.203125 -1.40625 C 0.203125 -1.914062 0.328125 -2.320312 0.578125 -2.625 C 0.828125 -2.925781 1.175781 -3.078125 1.625 -3.078125 C 1.957031 -3.078125 2.222656 -2.976562 2.421875 -2.78125 C 2.617188 -2.582031 2.726562 -2.316406 2.75 -1.984375 Z M 2.265625 -1.984375 "/></g><g transform="translate(93.999993, 39.017142)"><path style="stroke:none" d="M 2.859375 0 L 2.21875 0 L 1.28125 -1.515625 L 0.859375 -1.140625 L 0.859375 0 L 0.375 0 L 0.375 -4.109375 L 0.859375 -4.109375 L 0.859375 -1.71875 L 2.15625 -2.984375 L 2.796875 -2.984375 L 1.640625 -1.875 Z M 2.859375 0 "/></g><g transform="translate(96.86189, 39.017142)"><path style="stroke:none" d=""/></g><g transform="translate(98.259301, 39.017142)"><path style="stroke:none" d="M 0.375 -3.53125 L 0.375 -4.109375 L 0.875 -4.109375 L 0.875 -3.53125 Z M 0.875 0 L 0.375 0 L 0.375 -2.984375 L 0.875 -2.984375 Z M 0.875 0 "/></g><g transform="translate(99.519766, 39.017142)"><path style="stroke:none" d="M 2.8125 0 L 2.3125 0 L 2.3125 -1.84375 C 2.3125 -2.125 2.257812 -2.320312 2.15625 -2.4375 C 2.0625 -2.5625 1.898438 -2.625 1.671875 -2.625 C 1.441406 -2.625 1.25 -2.535156 1.09375 -2.359375 C 0.945312 -2.191406 0.875 -1.945312 0.875 -1.625 L 0.875 0 L 0.375 0 L 0.375 -2.984375 L 0.859375 -2.984375 L 0.859375 -2.5625 C 1.097656 -2.90625 1.398438 -3.078125 1.765625 -3.078125 C 2.109375 -3.078125 2.367188 -2.984375 2.546875 -2.796875 C 2.722656 -2.617188 2.8125 -2.363281 2.8125 -2.03125 Z M 2.8125 0 "/></g><g transform="translate(102.677914, 39.017142)"><path style="stroke:none" d=""/></g><g transform="translate(104.075325, 39.017142)"><path style="stroke:none" d="M 1.65625 -1.328125 L 0.25 -1.328125 L 0.25 -1.84375 L 1.65625 -1.84375 Z M 1.65625 -1.328125 "/></g><g transform="translate(105.981394, 39.017142)"><path style="stroke:none" d=""/></g><g transform="translate(107.378804, 39.017142)"><path style="stroke:none" d="M 3.3125 -2.875 C 3.25 -3.15625 3.117188 -3.363281 2.921875 -3.5 C 2.734375 -3.644531 2.484375 -3.71875 2.171875 -3.71875 C 1.765625 -3.71875 1.4375 -3.570312 1.1875 -3.28125 C 0.945312 -2.988281 0.828125 -2.59375 0.828125 -2.09375 C 0.828125 -1.519531 0.941406 -1.085938 1.171875 -0.796875 C 1.398438 -0.515625 1.738281 -0.375 2.1875 -0.375 C 2.476562 -0.375 2.726562 -0.46875 2.9375 -0.65625 C 3.144531 -0.851562 3.285156 -1.140625 3.359375 -1.515625 L 3.890625 -1.515625 C 3.816406 -0.984375 3.613281 -0.578125 3.28125 -0.296875 C 2.957031 -0.0234375 2.5625 0.109375 2.09375 0.109375 C 1.539062 0.109375 1.09375 -0.0820312 0.75 -0.46875 C 0.414062 -0.851562 0.25 -1.390625 0.25 -2.078125 C 0.25 -2.734375 0.421875 -3.253906 0.765625 -3.640625 C 1.117188 -4.023438 1.585938 -4.21875 2.171875 -4.21875 C 2.640625 -4.21875 3.019531 -4.09375 3.3125 -3.84375 C 3.613281 -3.59375 3.796875 -3.269531 3.859375 -2.875 Z M 3.3125 -2.875 "/></g><g transform="translate(111.517935, 39.017142)"><path style="stroke:none" d="M 2.8125 0 L 2.3125 0 L 2.3125 -1.953125 C 2.3125 -2.191406 2.265625 -2.363281 2.171875 -2.46875 C 2.078125 -2.570312 1.925781 -2.625 1.71875 -2.625 C 1.457031 -2.625 1.25 -2.539062 1.09375 -2.375 C 0.945312 -2.207031 0.875 -1.957031 0.875 -1.625 L 0.875 0 L 0.375 0 L 0.375 -4.109375 L 0.875 -4.109375 L 0.875 -2.59375 L 0.890625 -2.59375 C 1.117188 -2.914062 1.410156 -3.078125 1.765625 -3.078125 C 2.097656 -3.078125 2.351562 -2.988281 2.53125 -2.8125 C 2.71875 -2.644531 2.8125 -2.382812 2.8125 -2.03125 Z M 2.8125 0 "/></g><g transform="translate(114.676084, 39.017142)"><path style="stroke:none" d="M 2.421875 -1.734375 C 2.398438 -2.054688 2.316406 -2.285156 2.171875 -2.421875 C 2.023438 -2.554688 1.832031 -2.625 1.59375 -2.625 C 1.351562 -2.625 1.15625 -2.535156 1 -2.359375 C 0.851562 -2.191406 0.773438 -1.984375 0.765625 -1.734375 Z M 2.90625 -0.9375 C 2.851562 -0.625 2.703125 -0.367188 2.453125 -0.171875 C 2.234375 0.00390625 1.945312 0.09375 1.59375 0.09375 C 1.175781 0.09375 0.84375 -0.0390625 0.59375 -0.3125 C 0.351562 -0.582031 0.234375 -0.945312 0.234375 -1.40625 C 0.234375 -1.9375 0.359375 -2.347656 0.609375 -2.640625 C 0.859375 -2.929688 1.210938 -3.078125 1.671875 -3.078125 C 2.066406 -3.078125 2.378906 -2.925781 2.609375 -2.625 C 2.835938 -2.320312 2.953125 -1.890625 2.953125 -1.328125 L 0.765625 -1.328125 C 0.765625 -1.015625 0.835938 -0.769531 0.984375 -0.59375 C 1.128906 -0.425781 1.347656 -0.34375 1.640625 -0.34375 C 1.835938 -0.34375 2.007812 -0.40625 2.15625 -0.53125 C 2.3125 -0.65625 2.394531 -0.789062 2.40625 -0.9375 Z M 2.90625 -0.9375 "/></g><g transform="translate(117.848206, 39.017142)"><path style="stroke:none" d="M 2.265625 -1.984375 C 2.191406 -2.410156 1.957031 -2.625 1.5625 -2.625 C 1.3125 -2.625 1.109375 -2.523438 0.953125 -2.328125 C 0.804688 -2.128906 0.734375 -1.851562 0.734375 -1.5 C 0.734375 -1.113281 0.800781 -0.820312 0.9375 -0.625 C 1.082031 -0.4375 1.285156 -0.34375 1.546875 -0.34375 C 1.722656 -0.34375 1.875 -0.410156 2 -0.546875 C 2.132812 -0.679688 2.222656 -0.851562 2.265625 -1.0625 L 2.75 -1.0625 C 2.695312 -0.6875 2.566406 -0.398438 2.359375 -0.203125 C 2.148438 -0.00390625 1.875 0.09375 1.53125 0.09375 C 1.144531 0.09375 0.828125 -0.0390625 0.578125 -0.3125 C 0.328125 -0.582031 0.203125 -0.945312 0.203125 -1.40625 C 0.203125 -1.914062 0.328125 -2.320312 0.578125 -2.625 C 0.828125 -2.925781 1.175781 -3.078125 1.625 -3.078125 C 1.957031 -3.078125 2.222656 -2.976562 2.421875 -2.78125 C 2.617188 -2.582031 2.726562 -2.316406 2.75 -1.984375 Z M 2.265625 -1.984375 "/></g><g transform="translate(120.782769, 39.017142)"><path style="stroke:none" d="M 2.859375 0 L 2.21875 0 L 1.28125 -1.515625 L 0.859375 -1.140625 L 0.859375 0 L 0.375 0 L 0.375 -4.109375 L 0.859375 -4.109375 L 0.859375 -1.71875 L 2.15625 -2.984375 L 2.796875 -2.984375 L 1.640625 -1.875 Z M 2.859375 0 "/></g><g transform="translate(123.644666, 39.017142)"><path style="stroke:none" d=""/></g><g transform="translate(125.042077, 39.017142)"><path style="stroke:none" d="M 0.71875 -1.5 C 0.71875 -1.164062 0.789062 -0.890625 0.9375 -0.671875 C 1.09375 -0.460938 1.3125 -0.359375 1.59375 -0.359375 C 1.882812 -0.359375 2.101562 -0.46875 2.25 -0.6875 C 2.394531 -0.914062 2.46875 -1.1875 2.46875 -1.5 C 2.46875 -1.8125 2.394531 -2.078125 2.25 -2.296875 C 2.101562 -2.523438 1.882812 -2.640625 1.59375 -2.640625 C 1.320312 -2.640625 1.109375 -2.535156 0.953125 -2.328125 C 0.796875 -2.117188 0.71875 -1.84375 0.71875 -1.5 Z M 0.21875 -1.5 C 0.21875 -1.945312 0.335938 -2.320312 0.578125 -2.625 C 0.828125 -2.925781 1.164062 -3.078125 1.59375 -3.078125 C 2.03125 -3.078125 2.367188 -2.921875 2.609375 -2.609375 C 2.859375 -2.304688 2.984375 -1.9375 2.984375 -1.5 C 2.984375 -1.0625 2.859375 -0.6875 2.609375 -0.375 C 2.367188 -0.0625 2.03125 0.09375 1.59375 0.09375 C 1.164062 0.09375 0.828125 -0.0546875 0.578125 -0.359375 C 0.335938 -0.660156 0.21875 -1.039062 0.21875 -1.5 Z M 0.21875 -1.5 "/></g><g transform="translate(128.242148, 39.017142)"><path style="stroke:none" d="M 0.34375 -2.984375 L 0.859375 -2.984375 L 0.859375 -1 C 0.859375 -0.78125 0.90625 -0.613281 1 -0.5 C 1.101562 -0.394531 1.25 -0.34375 1.4375 -0.34375 C 1.6875 -0.34375 1.882812 -0.4375 2.03125 -0.625 C 2.175781 -0.8125 2.25 -1.050781 2.25 -1.34375 L 2.25 -2.984375 L 2.75 -2.984375 L 2.75 0 L 2.28125 0 L 2.28125 -0.4375 L 2.265625 -0.453125 C 2.078125 -0.0859375 1.765625 0.09375 1.328125 0.09375 C 1.035156 0.09375 0.796875 0.015625 0.609375 -0.140625 C 0.429688 -0.296875 0.34375 -0.53125 0.34375 -0.84375 Z M 0.34375 -2.984375 "/></g><g transform="translate(131.377938, 39.017142)"><path style="stroke:none" d="M 0.984375 -2.578125 L 0.984375 -0.625 C 0.984375 -0.550781 1.003906 -0.492188 1.046875 -0.453125 C 1.085938 -0.410156 1.160156 -0.390625 1.265625 -0.390625 L 1.46875 -0.390625 L 1.46875 0 C 1.28125 0.03125 1.15625 0.046875 1.09375 0.046875 C 0.875 0.046875 0.71875 -0.00390625 0.625 -0.109375 C 0.53125 -0.210938 0.484375 -0.375 0.484375 -0.59375 L 0.484375 -2.578125 L 0.078125 -2.578125 L 0.078125 -2.984375 L 0.484375 -2.984375 L 0.484375 -3.828125 L 0.984375 -3.828125 L 0.984375 -2.984375 L 1.46875 -2.984375 L 1.46875 -2.578125 Z M 0.984375 -2.578125 "/></g></g><g style="fill:#000000;fill-opacity:1;"><g transform="translate(155.728812, 30.472819)"><path style="stroke:none" d="M 2.78125 -2.59375 L 4.796875 -2.59375 L 4.796875 0 L 4.125 0 L 4.015625 -0.609375 C 3.648438 -0.117188 3.144531 0.125 2.5 0.125 C 1.851562 0.125 1.320312 -0.101562 0.90625 -0.5625 C 0.5 -1.019531 0.296875 -1.628906 0.296875 -2.390625 C 0.296875 -3.160156 0.503906 -3.78125 0.921875 -4.25 C 1.347656 -4.71875 1.925781 -4.953125 2.65625 -4.953125 C 3.28125 -4.953125 3.773438 -4.796875 4.140625 -4.484375 C 4.515625 -4.171875 4.722656 -3.785156 4.765625 -3.328125 L 3.765625 -3.328125 C 3.703125 -3.566406 3.570312 -3.757812 3.375 -3.90625 C 3.1875 -4.050781 2.960938 -4.125 2.703125 -4.125 C 2.273438 -4.125 1.9375 -3.96875 1.6875 -3.65625 C 1.445312 -3.34375 1.328125 -2.921875 1.328125 -2.390625 C 1.328125 -1.859375 1.441406 -1.445312 1.671875 -1.15625 C 1.910156 -0.863281 2.257812 -0.71875 2.71875 -0.71875 C 2.976562 -0.71875 3.21875 -0.800781 3.4375 -0.96875 C 3.65625 -1.144531 3.804688 -1.414062 3.890625 -1.78125 L 2.78125 -1.78125 Z M 2.78125 -2.59375 "/></g><g transform="translate(160.980283, 30.472819)"><path style="stroke:none" d="M 3.65625 0 L 2.765625 0 L 2.765625 -0.5 L 2.75 -0.5 C 2.507812 -0.101562 2.144531 0.09375 1.65625 0.09375 C 1.28125 0.09375 0.984375 -0.015625 0.765625 -0.234375 C 0.546875 -0.460938 0.4375 -0.789062 0.4375 -1.21875 L 0.4375 -3.578125 L 1.390625 -3.578125 L 1.390625 -1.359375 C 1.390625 -1.128906 1.441406 -0.960938 1.546875 -0.859375 C 1.648438 -0.753906 1.800781 -0.703125 2 -0.703125 C 2.207031 -0.703125 2.378906 -0.769531 2.515625 -0.90625 C 2.648438 -1.050781 2.71875 -1.253906 2.71875 -1.515625 L 2.71875 -3.578125 L 3.65625 -3.578125 Z M 3.65625 0 "/></g><g transform="translate(165.102687, 30.472819)"><path style="stroke:none" d="M 2.6875 -2.140625 C 2.664062 -2.367188 2.585938 -2.550781 2.453125 -2.6875 C 2.328125 -2.820312 2.164062 -2.890625 1.96875 -2.890625 C 1.519531 -2.890625 1.265625 -2.640625 1.203125 -2.140625 Z M 3.609375 -1.046875 C 3.503906 -0.671875 3.3125 -0.382812 3.03125 -0.1875 C 2.75 0 2.421875 0.09375 2.046875 0.09375 C 1.453125 0.09375 1 -0.0664062 0.6875 -0.390625 C 0.382812 -0.710938 0.234375 -1.160156 0.234375 -1.734375 C 0.234375 -2.316406 0.378906 -2.785156 0.671875 -3.140625 C 0.960938 -3.492188 1.394531 -3.671875 1.96875 -3.671875 C 2.488281 -3.671875 2.898438 -3.503906 3.203125 -3.171875 C 3.503906 -2.835938 3.65625 -2.347656 3.65625 -1.703125 L 3.65625 -1.53125 L 1.171875 -1.53125 C 1.191406 -1.238281 1.273438 -1.019531 1.421875 -0.875 C 1.578125 -0.726562 1.78125 -0.65625 2.03125 -0.65625 C 2.1875 -0.65625 2.316406 -0.691406 2.421875 -0.765625 C 2.535156 -0.835938 2.609375 -0.929688 2.640625 -1.046875 Z M 3.609375 -1.046875 "/></g><g transform="translate(168.955954, 30.472819)"><path style="stroke:none" d="M 2.453125 -2.484375 C 2.441406 -2.640625 2.382812 -2.757812 2.28125 -2.84375 C 2.1875 -2.925781 2.035156 -2.96875 1.828125 -2.96875 C 1.628906 -2.96875 1.484375 -2.9375 1.390625 -2.875 C 1.304688 -2.8125 1.265625 -2.734375 1.265625 -2.640625 C 1.265625 -2.546875 1.300781 -2.472656 1.375 -2.421875 C 1.457031 -2.367188 1.757812 -2.28125 2.28125 -2.15625 C 2.8125 -2.03125 3.144531 -1.882812 3.28125 -1.71875 C 3.425781 -1.550781 3.5 -1.347656 3.5 -1.109375 C 3.5 -0.710938 3.359375 -0.40625 3.078125 -0.1875 C 2.804688 0.0195312 2.394531 0.125 1.84375 0.125 C 1.351562 0.125 0.96875 0.0234375 0.6875 -0.171875 C 0.414062 -0.378906 0.257812 -0.695312 0.21875 -1.125 L 1.171875 -1.125 C 1.171875 -0.9375 1.226562 -0.796875 1.34375 -0.703125 C 1.46875 -0.617188 1.65625 -0.578125 1.90625 -0.578125 C 2.101562 -0.578125 2.253906 -0.609375 2.359375 -0.671875 C 2.472656 -0.734375 2.53125 -0.816406 2.53125 -0.921875 C 2.53125 -1.023438 2.488281 -1.101562 2.40625 -1.15625 C 2.332031 -1.21875 2.066406 -1.296875 1.609375 -1.390625 C 1.085938 -1.503906 0.742188 -1.648438 0.578125 -1.828125 C 0.410156 -2.003906 0.328125 -2.210938 0.328125 -2.453125 C 0.328125 -2.804688 0.453125 -3.097656 0.703125 -3.328125 C 0.960938 -3.554688 1.34375 -3.671875 1.84375 -3.671875 C 2.320312 -3.671875 2.691406 -3.566406 2.953125 -3.359375 C 3.210938 -3.160156 3.351562 -2.867188 3.375 -2.484375 Z M 2.453125 -2.484375 "/></g><g transform="translate(172.691063, 30.472819)"><path style="stroke:none" d="M 1.515625 -3.578125 L 2.09375 -3.578125 L 2.09375 -2.90625 L 1.515625 -2.90625 L 1.515625 -0.90625 C 1.515625 -0.8125 1.535156 -0.75 1.578125 -0.71875 C 1.628906 -0.6875 1.710938 -0.671875 1.828125 -0.671875 C 1.929688 -0.671875 2.019531 -0.675781 2.09375 -0.6875 L 2.09375 0.015625 C 1.957031 0.0351562 1.785156 0.046875 1.578125 0.046875 C 1.210938 0.046875 0.953125 -0.0078125 0.796875 -0.125 C 0.640625 -0.238281 0.5625 -0.441406 0.5625 -0.734375 L 0.5625 -2.90625 L 0.078125 -2.90625 L 0.078125 -3.578125 L 0.5625 -3.578125 L 0.5625 -4.546875 L 1.515625 -4.546875 Z M 1.515625 -3.578125 "/></g></g><g style="fill:#8b8b8b;fill-opacity:1;"><g transform="translate(155.728812, 39.128909)"><path style="stroke:none" d="M 0.25 -2.578125 C 0.25 -3.054688 0.367188 -3.414062 0.609375 -3.65625 C 0.859375 -3.894531 1.203125 -4.015625 1.640625 -4.015625 C 2.003906 -4.015625 2.304688 -3.898438 2.546875 -3.671875 C 2.785156 -3.453125 2.90625 -3.164062 2.90625 -2.8125 C 2.90625 -2.539062 2.835938 -2.3125 2.703125 -2.125 C 2.566406 -1.9375 2.363281 -1.769531 2.09375 -1.625 L 1.40625 -1.25 C 1 -1.019531 0.769531 -0.757812 0.71875 -0.46875 L 2.90625 -0.46875 L 2.90625 0 L 0.140625 0 C 0.160156 -0.375 0.242188 -0.6875 0.390625 -0.9375 C 0.535156 -1.195312 0.769531 -1.414062 1.09375 -1.59375 L 1.8125 -2.015625 C 2 -2.117188 2.132812 -2.226562 2.21875 -2.34375 C 2.3125 -2.46875 2.359375 -2.632812 2.359375 -2.84375 C 2.359375 -3.050781 2.285156 -3.222656 2.140625 -3.359375 C 2.003906 -3.492188 1.8125 -3.5625 1.5625 -3.5625 C 1.289062 -3.5625 1.085938 -3.472656 0.953125 -3.296875 C 0.828125 -3.117188 0.757812 -2.878906 0.75 -2.578125 Z M 0.25 -2.578125 "/></g><g transform="translate(158.912114, 39.128909)"><path style="stroke:none" d=""/></g><g transform="translate(160.309525, 39.128909)"><path style="stroke:none" d="M 2.515625 -1.6875 L 1.90625 -3.5 L 1.234375 -1.6875 Z M 1.0625 -1.1875 L 0.640625 0 L 0.0625 0 L 1.609375 -4.109375 L 2.25 -4.109375 L 3.734375 0 L 3.125 0 L 2.71875 -1.1875 Z M 1.0625 -1.1875 "/></g><g transform="translate(164.127251, 39.128909)"><path style="stroke:none" d="M 0.75 -1.5 C 0.75 -1.132812 0.820312 -0.847656 0.96875 -0.640625 C 1.113281 -0.441406 1.3125 -0.34375 1.5625 -0.34375 C 1.789062 -0.34375 1.984375 -0.425781 2.140625 -0.59375 C 2.296875 -0.769531 2.375 -1.023438 2.375 -1.359375 C 2.375 -1.773438 2.304688 -2.085938 2.171875 -2.296875 C 2.035156 -2.515625 1.832031 -2.625 1.5625 -2.625 C 1.300781 -2.625 1.097656 -2.535156 0.953125 -2.359375 C 0.816406 -2.191406 0.75 -1.90625 0.75 -1.5 Z M 2.875 0 L 2.40625 0 L 2.40625 -0.40625 L 2.390625 -0.40625 C 2.203125 -0.0703125 1.914062 0.09375 1.53125 0.09375 C 1.113281 0.09375 0.789062 -0.0625 0.5625 -0.375 C 0.34375 -0.695312 0.234375 -1.097656 0.234375 -1.578125 C 0.234375 -2.023438 0.34375 -2.382812 0.5625 -2.65625 C 0.789062 -2.9375 1.09375 -3.078125 1.46875 -3.078125 C 1.84375 -3.078125 2.144531 -2.90625 2.375 -2.5625 L 2.375 -4.109375 L 2.875 -4.109375 Z M 2.875 0 "/></g><g transform="translate(167.388808, 39.128909)"><path style="stroke:none" d="M 0.34375 -2.984375 L 0.859375 -2.984375 L 0.859375 -1 C 0.859375 -0.78125 0.90625 -0.613281 1 -0.5 C 1.101562 -0.394531 1.25 -0.34375 1.4375 -0.34375 C 1.6875 -0.34375 1.882812 -0.4375 2.03125 -0.625 C 2.175781 -0.8125 2.25 -1.050781 2.25 -1.34375 L 2.25 -2.984375 L 2.75 -2.984375 L 2.75 0 L 2.28125 0 L 2.28125 -0.4375 L 2.265625 -0.453125 C 2.078125 -0.0859375 1.765625 0.09375 1.328125 0.09375 C 1.035156 0.09375 0.796875 0.015625 0.609375 -0.140625 C 0.429688 -0.296875 0.34375 -0.53125 0.34375 -0.84375 Z M 0.34375 -2.984375 "/></g><g transform="translate(170.524598, 39.128909)"><path style="stroke:none" d="M 0.875 0 L 0.375 0 L 0.375 -4.109375 L 0.875 -4.109375 Z M 0.875 0 "/></g><g transform="translate(171.785062, 39.128909)"><path style="stroke:none" d="M 0.984375 -2.578125 L 0.984375 -0.625 C 0.984375 -0.550781 1.003906 -0.492188 1.046875 -0.453125 C 1.085938 -0.410156 1.160156 -0.390625 1.265625 -0.390625 L 1.46875 -0.390625 L 1.46875 0 C 1.28125 0.03125 1.15625 0.046875 1.09375 0.046875 C 0.875 0.046875 0.71875 -0.00390625 0.625 -0.109375 C 0.53125 -0.210938 0.484375 -0.375 0.484375 -0.59375 L 0.484375 -2.578125 L 0.078125 -2.578125 L 0.078125 -2.984375 L 0.484375 -2.984375 L 0.484375 -3.828125 L 0.984375 -3.828125 L 0.984375 -2.984375 L 1.46875 -2.984375 L 1.46875 -2.578125 Z M 0.984375 -2.578125 "/></g><g transform="translate(173.369726, 39.128909)"><path style="stroke:none" d="M 2.0625 -2.140625 C 2.050781 -2.316406 1.984375 -2.441406 1.859375 -2.515625 C 1.742188 -2.597656 1.578125 -2.640625 1.359375 -2.640625 C 1.191406 -2.640625 1.050781 -2.601562 0.9375 -2.53125 C 0.820312 -2.457031 0.765625 -2.351562 0.765625 -2.21875 C 0.765625 -2.113281 0.796875 -2.035156 0.859375 -1.984375 C 0.929688 -1.929688 1.082031 -1.875 1.3125 -1.8125 L 1.8125 -1.6875 C 2.113281 -1.613281 2.328125 -1.515625 2.453125 -1.390625 C 2.578125 -1.273438 2.640625 -1.113281 2.640625 -0.90625 C 2.640625 -0.613281 2.53125 -0.375 2.3125 -0.1875 C 2.101562 0 1.820312 0.09375 1.46875 0.09375 C 1.039062 0.09375 0.71875 0.00390625 0.5 -0.171875 C 0.289062 -0.347656 0.1875 -0.609375 0.1875 -0.953125 L 0.671875 -0.953125 C 0.679688 -0.753906 0.75 -0.601562 0.875 -0.5 C 1 -0.394531 1.191406 -0.34375 1.453125 -0.34375 C 1.660156 -0.34375 1.828125 -0.382812 1.953125 -0.46875 C 2.078125 -0.550781 2.140625 -0.671875 2.140625 -0.828125 C 2.140625 -0.929688 2.097656 -1.015625 2.015625 -1.078125 C 1.941406 -1.140625 1.785156 -1.195312 1.546875 -1.25 L 0.96875 -1.390625 C 0.726562 -1.453125 0.550781 -1.539062 0.4375 -1.65625 C 0.332031 -1.78125 0.28125 -1.9375 0.28125 -2.125 C 0.28125 -2.414062 0.382812 -2.644531 0.59375 -2.8125 C 0.800781 -2.988281 1.070312 -3.078125 1.40625 -3.078125 C 1.769531 -3.078125 2.046875 -2.988281 2.234375 -2.8125 C 2.429688 -2.632812 2.535156 -2.410156 2.546875 -2.140625 Z M 2.0625 -2.140625 "/></g></g></g></svg>