<svg xmlns="http://www.w3.org/2000/svg" xmlns:xlink="http://www.w3.org/1999/xlink" width="350" zoomAndPan="magnify" viewBox="0 0 262.5 60" height="80" preserveAspectRatio="xMidYMid meet" version="1.2"><defs><clipPath id="9e7665f8cb"><path d="M 54.964844 3.402344 L 103.21875 3.402344 L 103.21875 56.9375 L 54.964844 56.9375 Z M 54.964844 3.402344 "/></clipPath><clipPath id="3780e05b87"><path d="M 62.449219 3.402344 L 95.734375 3.402344 C 99.867188 3.402344 103.21875 6.753906 103.21875 10.886719 L 103.21875 49.425781 C 103.21875 53.558594 99.867188 56.910156 95.734375 56.910156 L 62.449219 56.910156 C 58.316406 56.910156 54.964844 53.558594 54.964844 49.425781 L 54.964844 10.886719 C 54.964844 6.753906 58.316406 3.402344 62.449219 3.402344 Z M 62.449219 3.402344 "/></clipPath><clipPath id="eff1cc1454"><path d="M 107.105469 3.402344 L 155.363281 3.402344 L 155.363281 56.9375 L 107.105469 56.9375 Z M 107.105469 3.402344 "/></clipPath><clipPath id="c2b1600e1e"><path d="M 114.589844 3.402344 L 147.875 3.402344 C 152.011719 3.402344 155.363281 6.753906 155.363281 10.886719 L 155.363281 49.425781 C 155.363281 53.558594 152.011719 56.910156 147.875 56.910156 L 114.589844 56.910156 C 110.457031 56.910156 107.105469 53.558594 107.105469 49.425781 L 107.105469 10.886719 C 107.105469 6.753906 110.457031 3.402344 114.589844 3.402344 Z M 114.589844 3.402344 "/></clipPath><clipPath id="31481f5b89"><path d="M 2.996094 3.402344 L 51.25 3.402344 L 51.25 56.9375 L 2.996094 56.9375 Z M 2.996094 3.402344 "/></clipPath><clipPath id="8d6c43a076"><path d="M 10.480469 3.402344 L 43.765625 3.402344 C 47.898438 3.402344 51.25 6.753906 51.25 10.886719 L 51.25 49.425781 C 51.25 53.558594 47.898438 56.910156 43.765625 56.910156 L 10.480469 56.910156 C 6.347656 56.910156 2.996094 53.558594 2.996094 49.425781 L 2.996094 10.886719 C 2.996094 6.753906 6.347656 3.402344 10.480469 3.402344 Z M 10.480469 3.402344 "/></clipPath><clipPath id="a35bcd7549"><path d="M 24 20.515625 L 29 20.515625 L 29 22 L 24 22 Z M 24 20.515625 "/></clipPath><clipPath id="87b47246cb"><path d="M 22.28125 28 L 32 28 L 32 33 L 22.28125 33 Z M 22.28125 28 "/></clipPath><clipPath id="b63198a1d1"><path d="M 31 25 L 35 25 L 35 33.242188 L 31 33.242188 Z M 31 25 "/></clipPath><clipPath id="6a474c6f7b"><path d="M 74.054688 30 L 86.78125 30 L 86.78125 33.242188 L 74.054688 33.242188 Z M 74.054688 30 "/></clipPath><clipPath id="5bc232fc27"><path d="M 74.054688 22 L 80 22 L 80 31 L 74.054688 31 Z M 74.054688 22 "/></clipPath><clipPath id="a09e95b00c"><path d="M 78 20.515625 L 86 20.515625 L 86 32 L 78 32 Z M 78 20.515625 "/></clipPath><clipPath id="4c69bcc0c1"><path d="M 158.914062 3.402344 L 207.171875 3.402344 L 207.171875 56.9375 L 158.914062 56.9375 Z M 158.914062 3.402344 "/></clipPath><clipPath id="cc28e3bb1a"><path d="M 166.398438 3.402344 L 199.683594 3.402344 C 203.820312 3.402344 207.171875 6.753906 207.171875 10.886719 L 207.171875 49.425781 C 207.171875 53.558594 203.820312 56.910156 199.683594 56.910156 L 166.398438 56.910156 C 162.265625 56.910156 158.914062 53.558594 158.914062 49.425781 L 158.914062 10.886719 C 158.914062 6.753906 162.265625 3.402344 166.398438 3.402344 Z M 166.398438 3.402344 "/></clipPath><clipPath id="b4df06e02a"><path d="M 125.480469 25 L 136.707031 25 L 136.707031 32.492188 L 125.480469 32.492188 Z M 125.480469 25 "/></clipPath><clipPath id="17f2012213"><path d="M 125.480469 21 L 136.707031 21 L 136.707031 26 L 125.480469 26 Z M 125.480469 21 "/></clipPath><clipPath id="c9362c11e5"><path d="M 128 20.515625 L 129 20.515625 L 129 24 L 128 24 Z M 128 20.515625 "/></clipPath><clipPath id="0f2d26bdd5"><path d="M 133 20.515625 L 135 20.515625 L 135 24 L 133 24 Z M 133 20.515625 "/></clipPath><clipPath id="cc37e4e2c8"><path d="M 178 21 L 189.957031 21 L 189.957031 32 L 178 32 Z M 178 21 "/></clipPath><clipPath id="1ca1b9a338"><path d="M 177.976562 31 L 189.957031 31 L 189.957031 33 L 177.976562 33 Z M 177.976562 31 "/></clipPath><clipPath id="066112cbea"><path d="M 179 17.832031 L 189 17.832031 L 189 20 L 179 20 Z M 179 17.832031 "/></clipPath><clipPath id="4600ac8fd9"><path d="M 210.75 3.402344 L 259.007812 3.402344 L 259.007812 56.9375 L 210.75 56.9375 Z M 210.75 3.402344 "/></clipPath><clipPath id="5d950378ad"><path d="M 218.234375 3.402344 L 251.519531 3.402344 C 255.65625 3.402344 259.007812 6.753906 259.007812 10.886719 L 259.007812 49.425781 C 259.007812 53.558594 255.65625 56.910156 251.519531 56.910156 L 218.234375 56.910156 C 214.101562 56.910156 210.75 53.558594 210.75 49.425781 L 210.75 10.886719 C 210.75 6.753906 214.101562 3.402344 218.234375 3.402344 Z M 218.234375 3.402344 "/></clipPath><clipPath id="bfd0d21dab"><path d="M 233.28125 25.070312 L 236.605469 25.070312 L 236.605469 28.375 L 233.28125 28.375 Z M 233.28125 25.070312 "/></clipPath><clipPath id="ef79e29b68"><path d="M 227.507812 25.070312 L 230.832031 25.070312 L 230.832031 28.375 L 227.507812 28.375 Z M 227.507812 25.070312 "/></clipPath><clipPath id="37411efcdf"><path d="M 239.050781 25.070312 L 242.375 25.070312 L 242.375 28.375 L 239.050781 28.375 Z M 239.050781 25.070312 "/></clipPath></defs><g id="c14a449b70"><g clip-rule="nonzero" clip-path="url(#9e7665f8cb)"><g clip-rule="nonzero" clip-path="url(#3780e05b87)"><path style=" stroke:none;fill-rule:nonzero;fill:#f5f3eb;fill-opacity:1;" d="M 54.964844 3.402344 L 103.21875 3.402344 L 103.21875 56.9375 L 54.964844 56.9375 Z M 54.964844 3.402344 "/></g></g><g clip-rule="nonzero" clip-path="url(#eff1cc1454)"><g clip-rule="nonzero" clip-path="url(#c2b1600e1e)"><path style=" stroke:none;fill-rule:nonzero;fill:#f5f3eb;fill-opacity:1;" d="M 107.105469 3.402344 L 155.363281 3.402344 L 155.363281 56.9375 L 107.105469 56.9375 Z M 107.105469 3.402344 "/></g></g><g clip-rule="nonzero" clip-path="url(#31481f5b89)"><g clip-rule="nonzero" clip-path="url(#8d6c43a076)"><path style=" stroke:none;fill-rule:nonzero;fill:#f5f3eb;fill-opacity:1;" d="M 2.996094 3.402344 L 51.25 3.402344 L 51.25 56.9375 L 2.996094 56.9375 Z M 2.996094 3.402344 "/></g></g><path style=" stroke:none;fill-rule:nonzero;fill:#ec6408;fill-opacity:1;" d="M 28.785156 23.578125 C 28.785156 23.503906 28.722656 23.445312 28.652344 23.445312 L 24.882812 23.445312 C 24.8125 23.445312 24.75 23.503906 24.75 23.578125 L 24.75 25.066406 C 24.75 26.183594 25.648438 27.101562 26.753906 27.109375 C 27.003906 27.113281 27.25 27.070312 27.480469 26.980469 C 28.261719 26.6875 28.785156 25.929688 28.785156 25.09375 Z M 28.785156 23.578125 "/><path style=" stroke:none;fill-rule:nonzero;fill:#ec6408;fill-opacity:1;" d="M 27.652344 28.246094 L 27.371094 27.386719 C 27.175781 27.4375 26.972656 27.464844 26.765625 27.464844 L 26.75 27.464844 C 26.535156 27.464844 26.328125 27.433594 26.128906 27.378906 L 25.851562 28.277344 C 26.359375 28.710938 27.128906 28.699219 27.652344 28.246094 Z M 27.652344 28.246094 "/><g clip-rule="nonzero" clip-path="url(#a35bcd7549)"><path style=" stroke:none;fill-rule:nonzero;fill:#ec6408;fill-opacity:1;" d="M 28.664062 21.835938 L 28.632812 21.648438 C 28.523438 20.992188 27.964844 20.519531 27.300781 20.519531 L 26.234375 20.519531 C 25.570312 20.519531 25.011719 20.992188 24.902344 21.648438 L 24.871094 21.835938 C 25.445312 21.699219 26.09375 21.625 26.765625 21.625 C 27.441406 21.625 28.089844 21.699219 28.664062 21.835938 Z M 28.664062 21.835938 "/></g><path style=" stroke:none;fill-rule:nonzero;fill:#ec6408;fill-opacity:1;" d="M 24.398438 24.234375 L 24.398438 23.578125 C 24.398438 23.308594 24.617188 23.089844 24.882812 23.089844 L 28.652344 23.089844 C 28.921875 23.089844 29.140625 23.308594 29.140625 23.578125 L 29.140625 24.234375 C 29.832031 23.984375 30.246094 23.632812 30.246094 23.292969 C 30.246094 22.902344 29.707031 22.503906 28.839844 22.25 C 28.835938 22.25 28.835938 22.25 28.835938 22.25 C 28.230469 22.074219 27.515625 21.980469 26.765625 21.980469 C 26.019531 21.980469 25.304688 22.074219 24.699219 22.25 C 24.699219 22.25 24.695312 22.25 24.695312 22.25 C 23.828125 22.503906 23.289062 22.902344 23.289062 23.292969 C 23.289062 23.632812 23.703125 23.984375 24.398438 24.234375 Z M 24.398438 24.234375 "/><path style=" stroke:none;fill-rule:nonzero;fill:#ec6408;fill-opacity:1;" d="M 27.480469 31.894531 L 27.480469 30.109375 L 26.054688 30.109375 L 26.054688 31.894531 Z M 26.589844 30.46875 L 26.945312 30.46875 C 27.042969 30.46875 27.125 30.546875 27.125 30.644531 C 27.125 30.742188 27.042969 30.824219 26.945312 30.824219 L 26.589844 30.824219 C 26.492188 30.824219 26.410156 30.742188 26.410156 30.644531 C 26.410156 30.546875 26.492188 30.46875 26.589844 30.46875 Z M 26.589844 31.179688 L 26.945312 31.179688 C 27.042969 31.179688 27.125 31.261719 27.125 31.359375 C 27.125 31.457031 27.042969 31.535156 26.945312 31.535156 L 26.589844 31.535156 C 26.492188 31.535156 26.410156 31.457031 26.410156 31.359375 C 26.410156 31.261719 26.492188 31.179688 26.589844 31.179688 Z M 26.589844 31.179688 "/><path style=" stroke:none;fill-rule:nonzero;fill:#ec6408;fill-opacity:1;" d="M 28.59375 28.746094 L 27.898438 28.503906 C 27.5625 28.800781 27.144531 28.949219 26.726562 28.949219 C 26.324219 28.949219 25.921875 28.8125 25.605469 28.53125 L 24.953125 28.761719 L 25.949219 29.757812 L 27.585938 29.757812 Z M 28.59375 28.746094 "/><g clip-rule="nonzero" clip-path="url(#87b47246cb)"><path style=" stroke:none;fill-rule:nonzero;fill:#ec6408;fill-opacity:1;" d="M 30.625 29.460938 C 30.621094 29.457031 30.617188 29.457031 30.617188 29.457031 L 28.964844 28.878906 L 27.835938 30.007812 L 27.835938 32.070312 C 27.835938 32.167969 27.757812 32.25 27.660156 32.25 L 25.875 32.25 C 25.777344 32.25 25.699219 32.167969 25.699219 32.070312 L 25.699219 30.007812 L 24.582031 28.890625 L 22.890625 29.484375 C 22.886719 29.488281 22.882812 29.488281 22.882812 29.488281 C 22.496094 29.605469 22.28125 29.890625 22.28125 30.296875 L 22.28125 32.875 L 31.222656 32.875 L 31.222656 30.269531 C 31.222656 29.863281 31.011719 29.574219 30.625 29.460938 Z M 30.625 29.460938 "/></g><g clip-rule="nonzero" clip-path="url(#b63198a1d1)"><path style=" stroke:none;fill-rule:nonzero;fill:#ec6408;fill-opacity:1;" d="M 34.695312 27.105469 L 32.171875 25.679688 C 32.117188 25.648438 32.046875 25.652344 31.992188 25.683594 C 31.941406 25.714844 31.90625 25.773438 31.90625 25.835938 L 31.90625 33.050781 C 31.90625 33.148438 31.984375 33.230469 32.082031 33.230469 C 32.179688 33.230469 32.261719 33.148438 32.261719 33.050781 L 32.261719 28.789062 L 34.695312 27.414062 C 34.75 27.382812 34.785156 27.324219 34.785156 27.261719 C 34.785156 27.195312 34.75 27.136719 34.695312 27.105469 Z M 34.695312 27.105469 "/></g><g clip-rule="nonzero" clip-path="url(#6a474c6f7b)"><path style=" stroke:none;fill-rule:nonzero;fill:#ec6408;fill-opacity:1;" d="M 74.054688 31.34375 L 75.050781 31.320312 L 77.480469 31.195312 C 77.917969 31.175781 78.488281 31.171875 79.199219 31.179688 L 82.539062 31.0625 C 82.929688 31.082031 83.675781 31.070312 84.773438 31.035156 C 85.253906 31.003906 85.550781 30.96875 85.664062 30.933594 C 85.882812 30.890625 86.195312 30.78125 86.605469 30.605469 C 86.648438 30.597656 86.671875 30.597656 86.675781 30.609375 C 86.636719 31.183594 86.375 31.734375 85.898438 32.265625 C 85.734375 32.503906 85.171875 32.773438 84.207031 33.0625 C 84.007812 33.109375 83.550781 33.15625 82.847656 33.203125 L 81.820312 33.226562 L 80.234375 33.148438 L 76.769531 33.105469 L 75.011719 33.003906 Z M 74.054688 31.34375 "/></g><g clip-rule="nonzero" clip-path="url(#5bc232fc27)"><path style=" stroke:none;fill-rule:nonzero;fill:#ec6408;fill-opacity:1;" d="M 78.394531 22.226562 C 78.519531 23.5 78.1875 25.019531 77.40625 26.789062 C 76.714844 28.246094 75.875 29.4375 74.878906 30.367188 C 74.859375 30.394531 74.988281 30.402344 75.261719 30.390625 C 76.261719 30.222656 76.871094 30.167969 77.085938 30.230469 C 77.160156 30.230469 77.359375 30.273438 77.683594 30.355469 C 77.726562 30.355469 77.964844 30.472656 78.398438 30.707031 C 78.4375 30.730469 78.46875 30.71875 78.492188 30.675781 C 79.132812 29.824219 79.5 28.3125 79.605469 26.148438 C 79.585938 25.460938 79.566406 25.113281 79.539062 25.109375 C 79.332031 24.128906 79.175781 23.472656 79.070312 23.144531 C 78.957031 22.71875 78.753906 22.378906 78.46875 22.128906 Z M 78.394531 22.226562 "/></g><g clip-rule="nonzero" clip-path="url(#a09e95b00c)"><path style=" stroke:none;fill-rule:nonzero;fill:#ec6408;fill-opacity:1;" d="M 78.261719 20.769531 C 79.390625 22.066406 80.035156 23.789062 80.199219 25.9375 C 80.183594 27.023438 80.0625 27.863281 79.839844 28.457031 C 79.496094 29.371094 79.039062 30.222656 78.46875 31.007812 C 80.035156 30.441406 81.109375 30.160156 81.691406 30.164062 C 82.445312 30.011719 83.652344 30.15625 85.316406 30.601562 C 85.339844 30.597656 85.351562 30.558594 85.355469 30.484375 C 85.371094 30.125 85.371094 29.894531 85.359375 29.789062 C 85.398438 29.300781 85.082031 28.152344 84.40625 26.347656 C 84.035156 25.425781 83.640625 24.710938 83.230469 24.203125 C 82.703125 23.398438 81.78125 22.507812 80.460938 21.53125 C 79.554688 20.914062 78.816406 20.582031 78.246094 20.527344 Z M 78.261719 20.769531 "/></g><g clip-rule="nonzero" clip-path="url(#4c69bcc0c1)"><g clip-rule="nonzero" clip-path="url(#cc28e3bb1a)"><path style=" stroke:none;fill-rule:nonzero;fill:#f5f3eb;fill-opacity:1;" d="M 158.914062 3.402344 L 207.171875 3.402344 L 207.171875 56.9375 L 158.914062 56.9375 Z M 158.914062 3.402344 "/></g></g><g clip-rule="nonzero" clip-path="url(#b4df06e02a)"><path style=" stroke:none;fill-rule:nonzero;fill:#ec6408;fill-opacity:1;" d="M 135.582031 32.488281 L 126.605469 32.488281 C 126.457031 32.488281 126.3125 32.457031 126.175781 32.402344 C 126.039062 32.34375 125.917969 32.261719 125.8125 32.160156 C 125.707031 32.054688 125.625 31.933594 125.566406 31.792969 C 125.511719 31.65625 125.480469 31.515625 125.480469 31.363281 L 125.480469 25.753906 L 126.230469 25.753906 L 126.230469 31.363281 C 126.230469 31.46875 126.265625 31.554688 126.339844 31.628906 C 126.414062 31.703125 126.5 31.738281 126.605469 31.738281 L 135.582031 31.738281 C 135.683594 31.738281 135.773438 31.703125 135.847656 31.628906 C 135.917969 31.554688 135.957031 31.46875 135.957031 31.363281 L 135.957031 25.753906 L 136.703125 25.753906 L 136.703125 31.363281 C 136.703125 31.515625 136.675781 31.65625 136.617188 31.792969 C 136.5625 31.933594 136.480469 32.054688 136.375 32.160156 C 136.269531 32.261719 136.148438 32.34375 136.011719 32.402344 C 135.875 32.457031 135.730469 32.488281 135.582031 32.488281 Z M 135.582031 32.488281 "/></g><g clip-rule="nonzero" clip-path="url(#17f2012213)"><path style=" stroke:none;fill-rule:nonzero;fill:#ec6408;fill-opacity:1;" d="M 136.332031 21.640625 L 134.460938 21.640625 L 134.460938 22.761719 C 134.460938 22.96875 134.386719 23.144531 134.242188 23.289062 C 134.09375 23.4375 133.917969 23.507812 133.710938 23.507812 C 133.503906 23.507812 133.328125 23.4375 133.183594 23.289062 C 133.035156 23.144531 132.964844 22.96875 132.964844 22.761719 L 132.964844 21.640625 L 129.222656 21.640625 L 129.222656 22.761719 C 129.222656 22.96875 129.148438 23.144531 129.003906 23.289062 C 128.859375 23.4375 128.679688 23.507812 128.476562 23.507812 C 128.269531 23.507812 128.089844 23.4375 127.945312 23.289062 C 127.800781 23.144531 127.726562 22.96875 127.726562 22.761719 L 127.726562 21.640625 L 125.855469 21.640625 C 125.753906 21.640625 125.664062 21.675781 125.589844 21.75 C 125.519531 21.820312 125.480469 21.910156 125.480469 22.011719 L 125.480469 25.003906 L 136.703125 25.003906 L 136.703125 22.011719 C 136.703125 21.910156 136.667969 21.820312 136.59375 21.75 C 136.523438 21.675781 136.433594 21.640625 136.332031 21.640625 Z M 136.332031 21.640625 "/></g><g clip-rule="nonzero" clip-path="url(#c9362c11e5)"><path style=" stroke:none;fill-rule:nonzero;fill:#ec6408;fill-opacity:1;" d="M 128.476562 23.136719 C 128.371094 23.136719 128.285156 23.097656 128.210938 23.027344 C 128.136719 22.953125 128.101562 22.863281 128.101562 22.761719 L 128.101562 20.890625 C 128.101562 20.789062 128.136719 20.699219 128.210938 20.625 C 128.285156 20.554688 128.371094 20.515625 128.476562 20.515625 C 128.578125 20.515625 128.667969 20.554688 128.738281 20.625 C 128.8125 20.699219 128.847656 20.789062 128.847656 20.890625 L 128.847656 22.761719 C 128.847656 22.863281 128.8125 22.953125 128.738281 23.027344 C 128.667969 23.097656 128.578125 23.136719 128.476562 23.136719 Z M 128.476562 23.136719 "/></g><g clip-rule="nonzero" clip-path="url(#0f2d26bdd5)"><path style=" stroke:none;fill-rule:nonzero;fill:#ec6408;fill-opacity:1;" d="M 133.710938 23.136719 C 133.609375 23.136719 133.519531 23.097656 133.445312 23.027344 C 133.375 22.953125 133.335938 22.863281 133.335938 22.761719 L 133.335938 20.890625 C 133.335938 20.789062 133.375 20.699219 133.445312 20.625 C 133.519531 20.554688 133.609375 20.515625 133.710938 20.515625 C 133.816406 20.515625 133.902344 20.554688 133.976562 20.625 C 134.050781 20.699219 134.085938 20.789062 134.085938 20.890625 L 134.085938 22.761719 C 134.085938 22.863281 134.050781 22.953125 133.976562 23.027344 C 133.902344 23.097656 133.816406 23.136719 133.710938 23.136719 Z M 133.710938 23.136719 "/></g><path style=" stroke:none;fill-rule:nonzero;fill:#ec6408;fill-opacity:1;" d="M 129.9375 30.429688 C 129.898438 30.429688 129.863281 30.417969 129.828125 30.394531 C 129.765625 30.351562 129.742188 30.289062 129.753906 30.210938 L 129.972656 28.953125 L 129.089844 28.0625 C 129.035156 28.007812 129.023438 27.941406 129.046875 27.871094 C 129.070312 27.796875 129.117188 27.757812 129.191406 27.746094 L 130.390625 27.5625 L 130.925781 26.421875 C 130.957031 26.347656 131.011719 26.3125 131.09375 26.3125 C 131.171875 26.3125 131.230469 26.347656 131.261719 26.421875 L 131.796875 27.5625 L 132.992188 27.746094 C 133.070312 27.757812 133.117188 27.796875 133.140625 27.871094 C 133.164062 27.941406 133.152344 28.007812 133.097656 28.0625 L 132.214844 28.953125 L 132.421875 30.210938 C 132.433594 30.289062 132.410156 30.351562 132.347656 30.394531 C 132.3125 30.417969 132.277344 30.429688 132.238281 30.429688 C 132.207031 30.429688 132.175781 30.421875 132.148438 30.40625 L 131.09375 29.816406 L 130.027344 30.40625 C 130 30.421875 129.96875 30.429688 129.9375 30.429688 Z M 129.9375 30.429688 "/><g clip-rule="nonzero" clip-path="url(#cc37e4e2c8)"><path style=" stroke:none;fill-rule:evenodd;fill:#ec6408;fill-opacity:1;" d="M 186.722656 31.238281 L 186.722656 28.402344 C 186.722656 28.136719 186.5 27.898438 186.21875 27.898438 L 184.042969 27.898438 C 184.015625 27.890625 183.992188 27.886719 183.964844 27.886719 C 183.941406 27.886719 183.917969 27.890625 183.890625 27.898438 L 181.730469 27.898438 C 181.445312 27.898438 181.210938 28.121094 181.210938 28.402344 L 181.210938 31.238281 L 178.628906 31.238281 L 178.628906 21.285156 C 178.628906 21.160156 178.726562 21.0625 178.851562 21.0625 L 189.109375 21.0625 C 189.230469 21.0625 189.328125 21.160156 189.328125 21.285156 L 189.328125 31.238281 Z M 184.1875 31.238281 L 184.1875 28.332031 L 186.21875 28.332031 C 186.253906 28.332031 186.289062 28.367188 186.289062 28.402344 L 186.289062 31.238281 Z M 183.746094 28.332031 L 183.746094 31.238281 L 181.644531 31.238281 L 181.644531 28.402344 C 181.644531 28.367188 181.675781 28.332031 181.730469 28.332031 Z M 181.210938 23.386719 L 179.921875 23.386719 C 179.796875 23.386719 179.699219 23.289062 179.699219 23.167969 L 179.699219 21.921875 C 179.699219 21.800781 179.796875 21.703125 179.921875 21.703125 L 181.210938 21.703125 C 181.335938 21.703125 181.433594 21.800781 181.433594 21.921875 L 181.433594 23.167969 C 181.433594 23.289062 181.335938 23.386719 181.210938 23.386719 Z M 180.144531 22.957031 L 181 22.957031 L 181 22.144531 L 180.144531 22.144531 Z M 183.472656 23.386719 L 182.183594 23.386719 C 182.0625 23.386719 181.964844 23.289062 181.964844 23.167969 L 181.964844 21.921875 C 181.964844 21.800781 182.0625 21.703125 182.183594 21.703125 L 183.472656 21.703125 C 183.597656 21.703125 183.695312 21.800781 183.695312 21.921875 L 183.695312 23.167969 C 183.695312 23.289062 183.597656 23.386719 183.472656 23.386719 Z M 182.40625 22.957031 L 183.265625 22.957031 L 183.265625 22.144531 L 182.40625 22.144531 Z M 185.75 23.386719 L 184.460938 23.386719 C 184.335938 23.386719 184.238281 23.289062 184.238281 23.167969 L 184.238281 21.921875 C 184.238281 21.800781 184.335938 21.703125 184.460938 21.703125 L 185.75 21.703125 C 185.871094 21.703125 185.96875 21.800781 185.96875 21.921875 L 185.96875 23.167969 C 185.960938 23.289062 185.863281 23.386719 185.75 23.386719 Z M 184.667969 22.957031 L 185.527344 22.957031 L 185.527344 22.144531 L 184.667969 22.144531 Z M 188.023438 23.386719 L 186.734375 23.386719 C 186.613281 23.386719 186.515625 23.289062 186.515625 23.167969 L 186.515625 21.921875 C 186.515625 21.800781 186.613281 21.703125 186.734375 21.703125 L 188.023438 21.703125 C 188.148438 21.703125 188.246094 21.800781 188.246094 21.921875 L 188.246094 23.167969 C 188.234375 23.289062 188.136719 23.386719 188.023438 23.386719 Z M 186.941406 22.957031 L 187.804688 22.957031 L 187.804688 22.144531 L 186.941406 22.144531 Z M 181.210938 25.402344 L 179.921875 25.402344 C 179.796875 25.402344 179.699219 25.304688 179.699219 25.183594 L 179.699219 23.941406 C 179.699219 23.816406 179.796875 23.71875 179.921875 23.71875 L 181.210938 23.71875 C 181.335938 23.71875 181.433594 23.816406 181.433594 23.941406 L 181.433594 25.195312 C 181.433594 25.304688 181.335938 25.402344 181.210938 25.402344 Z M 180.144531 24.972656 L 181 24.972656 L 181 24.148438 L 180.144531 24.148438 Z M 183.472656 25.402344 L 182.183594 25.402344 C 182.0625 25.402344 181.964844 25.304688 181.964844 25.183594 L 181.964844 23.941406 C 181.964844 23.816406 182.0625 23.71875 182.183594 23.71875 L 183.472656 23.71875 C 183.597656 23.71875 183.695312 23.816406 183.695312 23.941406 L 183.695312 25.195312 C 183.695312 25.304688 183.597656 25.402344 183.472656 25.402344 Z M 182.40625 24.972656 L 183.265625 24.972656 L 183.265625 24.148438 L 182.40625 24.148438 Z M 185.75 25.402344 L 184.460938 25.402344 C 184.335938 25.402344 184.238281 25.304688 184.238281 25.183594 L 184.238281 23.941406 C 184.238281 23.816406 184.335938 23.71875 184.460938 23.71875 L 185.75 23.71875 C 185.871094 23.71875 185.96875 23.816406 185.96875 23.941406 L 185.96875 25.195312 C 185.960938 25.304688 185.863281 25.402344 185.75 25.402344 Z M 184.667969 24.972656 L 185.527344 24.972656 L 185.527344 24.148438 L 184.667969 24.148438 Z M 188.023438 25.402344 L 186.734375 25.402344 C 186.613281 25.402344 186.515625 25.304688 186.515625 25.183594 L 186.515625 23.941406 C 186.515625 23.816406 186.613281 23.71875 186.734375 23.71875 L 188.023438 23.71875 C 188.148438 23.71875 188.246094 23.816406 188.246094 23.941406 L 188.246094 25.195312 C 188.234375 25.304688 188.136719 25.402344 188.023438 25.402344 Z M 186.941406 24.972656 L 187.804688 24.972656 L 187.804688 24.148438 L 186.941406 24.148438 Z M 181.210938 27.421875 L 179.921875 27.421875 C 179.796875 27.421875 179.699219 27.324219 179.699219 27.199219 L 179.699219 25.957031 C 179.699219 25.835938 179.796875 25.738281 179.921875 25.738281 L 181.210938 25.738281 C 181.335938 25.738281 181.433594 25.835938 181.433594 25.957031 L 181.433594 27.199219 C 181.433594 27.324219 181.335938 27.421875 181.210938 27.421875 Z M 180.144531 26.988281 L 181 26.988281 L 181 26.164062 L 180.144531 26.164062 Z M 183.472656 27.421875 L 182.183594 27.421875 C 182.0625 27.421875 181.964844 27.324219 181.964844 27.199219 L 181.964844 25.957031 C 181.964844 25.835938 182.0625 25.738281 182.183594 25.738281 L 183.472656 25.738281 C 183.597656 25.738281 183.695312 25.835938 183.695312 25.957031 L 183.695312 27.199219 C 183.695312 27.324219 183.597656 27.421875 183.472656 27.421875 Z M 182.40625 26.988281 L 183.265625 26.988281 L 183.265625 26.164062 L 182.40625 26.164062 Z M 185.75 27.421875 L 184.460938 27.421875 C 184.335938 27.421875 184.238281 27.324219 184.238281 27.199219 L 184.238281 25.957031 C 184.238281 25.835938 184.335938 25.738281 184.460938 25.738281 L 185.75 25.738281 C 185.871094 25.738281 185.96875 25.835938 185.96875 25.957031 L 185.96875 27.199219 C 185.960938 27.324219 185.863281 27.421875 185.75 27.421875 Z M 184.667969 26.988281 L 185.527344 26.988281 L 185.527344 26.164062 L 184.667969 26.164062 Z M 188.023438 27.421875 L 186.734375 27.421875 C 186.613281 27.421875 186.515625 27.324219 186.515625 27.199219 L 186.515625 25.957031 C 186.515625 25.835938 186.613281 25.738281 186.734375 25.738281 L 188.023438 25.738281 C 188.148438 25.738281 188.246094 25.835938 188.246094 25.957031 L 188.246094 27.199219 C 188.234375 27.324219 188.136719 27.421875 188.023438 27.421875 Z M 186.941406 26.988281 L 187.804688 26.988281 L 187.804688 26.164062 L 186.941406 26.164062 Z M 186.941406 26.988281 "/></g><g clip-rule="nonzero" clip-path="url(#1ca1b9a338)"><path style=" stroke:none;fill-rule:evenodd;fill:#ec6408;fill-opacity:1;" d="M 189.734375 32.96875 L 178.199219 32.96875 C 178.074219 32.96875 177.976562 32.867188 177.976562 32.746094 L 177.976562 31.875 C 177.976562 31.746094 178.074219 31.648438 178.199219 31.648438 L 189.734375 31.648438 C 189.859375 31.648438 189.957031 31.746094 189.957031 31.875 L 189.957031 32.746094 C 189.945312 32.867188 189.859375 32.96875 189.734375 32.96875 Z M 189.734375 32.96875 "/></g><path style=" stroke:none;fill-rule:evenodd;fill:#ec6408;fill-opacity:1;" d="M 179.035156 20.648438 L 179.035156 20.359375 C 179.035156 20.238281 179.132812 20.140625 179.257812 20.140625 L 188.652344 20.140625 C 188.777344 20.140625 188.875 20.238281 188.875 20.359375 L 188.875 20.648438 Z M 179.035156 20.648438 "/><g clip-rule="nonzero" clip-path="url(#066112cbea)"><path style=" stroke:none;fill-rule:evenodd;fill:#ec6408;fill-opacity:1;" d="M 179.402344 19.726562 L 179.402344 18.207031 C 179.402344 18.011719 179.574219 17.839844 179.785156 17.839844 L 188.046875 17.839844 C 188.257812 17.839844 188.429688 18 188.429688 18.207031 L 188.429688 19.726562 Z M 181.136719 19.003906 L 180.929688 19.003906 L 180.929688 19.335938 C 180.929688 19.445312 180.832031 19.542969 180.707031 19.542969 C 180.582031 19.542969 180.484375 19.445312 180.484375 19.339844 L 180.484375 18.242188 C 180.484375 18.117188 180.582031 18.019531 180.707031 18.019531 C 180.832031 18.019531 180.929688 18.117188 180.929688 18.242188 L 180.929688 18.5625 L 181.136719 18.5625 L 181.136719 18.242188 C 181.136719 18.117188 181.234375 18.019531 181.359375 18.019531 C 181.480469 18.019531 181.578125 18.117188 181.578125 18.242188 L 181.578125 19.335938 C 181.570312 19.445312 181.46875 19.542969 181.359375 19.542969 C 181.234375 19.542969 181.136719 19.445312 181.136719 19.339844 Z M 184.238281 19.542969 C 184.113281 19.542969 184.015625 19.445312 184.015625 19.339844 L 184.015625 18.476562 L 183.953125 18.476562 C 183.832031 18.476562 183.730469 18.375 183.730469 18.253906 C 183.730469 18.132812 183.84375 18.042969 183.953125 18.042969 L 184.535156 18.042969 C 184.65625 18.042969 184.753906 18.140625 184.753906 18.269531 C 184.753906 18.390625 184.65625 18.476562 184.535156 18.476562 L 184.460938 18.476562 L 184.460938 19.339844 C 184.460938 19.445312 184.359375 19.542969 184.238281 19.542969 Z M 185.921875 19.015625 L 185.566406 19.015625 L 185.566406 19.113281 L 185.921875 19.113281 C 186.046875 19.113281 186.144531 19.210938 186.144531 19.339844 C 186.144531 19.460938 186.046875 19.542969 185.921875 19.542969 L 185.34375 19.542969 C 185.21875 19.542969 185.121094 19.445312 185.121094 19.339844 L 185.121094 18.253906 C 185.121094 18.171875 185.175781 18.105469 185.246094 18.070312 C 185.269531 18.054688 185.300781 18.046875 185.328125 18.042969 L 185.921875 18.042969 C 186.046875 18.042969 186.144531 18.140625 186.144531 18.269531 C 186.144531 18.390625 186.046875 18.476562 185.921875 18.476562 L 185.566406 18.476562 L 185.566406 18.574219 L 185.921875 18.574219 C 186.046875 18.574219 186.144531 18.671875 186.144531 18.792969 C 186.144531 18.917969 186.046875 19.015625 185.921875 19.015625 Z M 187.152344 19.542969 L 186.734375 19.542969 C 186.613281 19.542969 186.515625 19.445312 186.515625 19.339844 L 186.515625 18.269531 C 186.515625 18.140625 186.613281 18.042969 186.734375 18.042969 C 186.855469 18.042969 186.957031 18.140625 186.957031 18.269531 L 186.957031 19.128906 L 187.152344 19.128906 C 187.273438 19.128906 187.371094 19.226562 187.371094 19.347656 C 187.371094 19.472656 187.273438 19.542969 187.152344 19.542969 Z M 182.722656 19.542969 C 182.304688 19.542969 181.964844 19.203125 181.964844 18.792969 C 181.964844 18.375 182.304688 18.035156 182.722656 18.035156 C 183.140625 18.035156 183.472656 18.375 183.472656 18.792969 C 183.472656 19.210938 183.132812 19.542969 182.722656 19.542969 Z M 182.722656 18.464844 C 182.539062 18.464844 182.390625 18.609375 182.390625 18.792969 C 182.390625 18.980469 182.539062 19.113281 182.722656 19.113281 C 182.910156 19.113281 183.042969 18.96875 183.042969 18.792969 C 183.042969 18.609375 182.898438 18.464844 182.722656 18.464844 Z M 182.722656 18.464844 "/></g><g style="fill:#000000;fill-opacity:1;"><g transform="translate(71.566249, 40.702747)"><path style="stroke:none" d="M 3.589844 -2.6875 C 4.054688 -2.875 4.3125 -3.253906 4.3125 -3.773438 C 4.3125 -4.542969 3.757812 -4.992188 2.847656 -4.992188 L 0.597656 -4.992188 L 0.597656 0 L 2.894531 0 C 3.933594 0 4.542969 -0.546875 4.542969 -1.453125 C 4.542969 -2.089844 4.234375 -2.488281 3.589844 -2.6875 Z M 2.769531 -4.425781 C 3.335938 -4.425781 3.644531 -4.179688 3.644531 -3.679688 C 3.644531 -3.167969 3.316406 -2.875 2.707031 -2.875 L 1.25 -2.875 L 1.25 -4.425781 Z M 1.25 -0.566406 L 1.25 -2.328125 L 2.847656 -2.328125 C 3.519531 -2.328125 3.878906 -2.027344 3.878906 -1.453125 C 3.878906 -0.871094 3.527344 -0.566406 2.847656 -0.566406 Z M 1.25 -0.566406 "/></g></g><g style="fill:#000000;fill-opacity:1;"><g transform="translate(76.397472, 40.702747)"><path style="stroke:none" d="M 2.089844 0.0898438 C 3.105469 0.0898438 3.835938 -0.703125 3.835938 -1.835938 C 3.835938 -2.988281 3.121094 -3.710938 2.109375 -3.710938 C 1.074219 -3.710938 0.351562 -2.972656 0.351562 -1.808594 C 0.351562 -0.671875 1.050781 0.0898438 2.089844 0.0898438 Z M 2.089844 -0.449219 C 1.410156 -0.449219 0.996094 -0.988281 0.996094 -1.808594 C 0.996094 -2.628906 1.402344 -3.167969 2.089844 -3.167969 C 2.789062 -3.167969 3.191406 -2.65625 3.191406 -1.835938 C 3.191406 -1.015625 2.789062 -0.449219 2.089844 -0.449219 Z M 2.089844 -0.449219 "/></g></g><g style="fill:#000000;fill-opacity:1;"><g transform="translate(80.345192, 40.702747)"><path style="stroke:none" d="M 3.75 -0.476562 C 3.511719 -0.476562 3.4375 -0.554688 3.4375 -0.792969 L 3.4375 -2.558594 C 3.4375 -3.351562 2.917969 -3.714844 2.019531 -3.714844 C 1.085938 -3.714844 0.574219 -3.335938 0.511719 -2.539062 L 1.148438 -2.539062 C 1.191406 -3.023438 1.453125 -3.183594 1.96875 -3.183594 C 2.53125 -3.183594 2.785156 -3 2.785156 -2.621094 L 2.785156 -2.480469 C 2.785156 -2.3125 2.699219 -2.230469 2.523438 -2.207031 L 1.597656 -2.089844 C 0.722656 -1.976562 0.363281 -1.554688 0.363281 -0.960938 C 0.363281 -0.292969 0.839844 0.0898438 1.578125 0.0898438 C 2.195312 0.0898438 2.65625 -0.183594 2.890625 -0.53125 C 2.917969 -0.175781 3.128906 0 3.511719 0 L 3.855469 0 L 3.855469 -0.476562 Z M 1.695312 -0.40625 C 1.277344 -0.40625 1.003906 -0.617188 1.003906 -0.988281 C 1.003906 -1.3125 1.199219 -1.535156 1.703125 -1.613281 L 2.785156 -1.773438 L 2.785156 -1.269531 C 2.785156 -0.804688 2.277344 -0.40625 1.695312 -0.40625 Z M 1.695312 -0.40625 "/></g></g><g style="fill:#000000;fill-opacity:1;"><g transform="translate(84.103589, 40.702747)"><path style="stroke:none" d="M 2.292969 -3.121094 L 2.292969 -3.617188 L 1.464844 -3.589844 L 1.464844 -4.726562 L 0.820312 -4.726562 L 0.820312 -3.597656 L 0.28125 -3.617188 L 0.28125 -3.121094 L 0.820312 -3.148438 L 0.820312 -0.804688 C 0.820312 -0.246094 1.066406 0 1.625 0 L 2.285156 0 L 2.285156 -0.539062 L 1.816406 -0.539062 C 1.550781 -0.539062 1.464844 -0.625 1.464844 -0.890625 L 1.464844 -3.148438 Z M 2.292969 -3.121094 "/></g></g><g style="fill:#000000;fill-opacity:1;"><g transform="translate(122.165406, 40.702747)"><path style="stroke:none" d="M 1.25 -2.285156 L 3.90625 -2.285156 L 3.90625 -2.855469 L 1.25 -2.855469 L 1.25 -4.425781 L 4.128906 -4.425781 L 4.128906 -4.992188 L 0.597656 -4.992188 L 0.597656 0 L 4.191406 0 L 4.191406 -0.566406 L 1.25 -0.566406 Z M 1.25 -2.285156 "/></g></g><g style="fill:#000000;fill-opacity:1;"><g transform="translate(126.575915, 40.702747)"><path style="stroke:none" d="M 2.1875 -1.527344 L 1.894531 -0.554688 L 1.589844 -1.527344 L 0.871094 -3.617188 L 0.175781 -3.617188 L 1.5625 0 L 2.203125 0 L 3.527344 -3.617188 L 2.875 -3.617188 Z M 2.1875 -1.527344 "/></g></g><g style="fill:#000000;fill-opacity:1;"><g transform="translate(130.039814, 40.702747)"><path style="stroke:none" d="M 3.710938 -1.894531 C 3.710938 -3.023438 3.070312 -3.703125 2.054688 -3.703125 C 0.976562 -3.703125 0.351562 -2.929688 0.351562 -1.824219 C 0.351562 -0.707031 0.988281 0.0859375 2.070312 0.0859375 C 2.839844 0.0859375 3.429688 -0.324219 3.660156 -1.03125 L 3.070312 -1.101562 C 2.902344 -0.679688 2.59375 -0.441406 2.089844 -0.441406 C 1.4375 -0.441406 1.015625 -0.839844 0.996094 -1.65625 L 3.710938 -1.65625 Z M 2.0625 -3.175781 C 2.652344 -3.175781 3.023438 -2.804688 3.105469 -2.117188 L 1.003906 -2.117188 C 1.066406 -2.824219 1.488281 -3.175781 2.0625 -3.175781 Z M 2.0625 -3.175781 "/></g></g><g style="fill:#000000;fill-opacity:1;"><g transform="translate(133.861319, 40.702747)"><path style="stroke:none" d="M 2.378906 -3.710938 C 1.84375 -3.710938 1.410156 -3.492188 1.164062 -3.105469 L 1.164062 -3.617188 L 0.5625 -3.617188 L 0.5625 0 L 1.207031 0 L 1.207031 -2.011719 C 1.207031 -2.875 1.738281 -3.148438 2.238281 -3.148438 C 2.726562 -3.148438 2.960938 -2.882812 2.960938 -2.382812 L 2.960938 0 L 3.605469 0 L 3.605469 -2.511719 C 3.605469 -3.273438 3.132812 -3.710938 2.378906 -3.710938 Z M 2.378906 -3.710938 "/></g></g><g style="fill:#000000;fill-opacity:1;"><g transform="translate(137.788007, 40.702747)"><path style="stroke:none" d="M 2.292969 -3.121094 L 2.292969 -3.617188 L 1.464844 -3.589844 L 1.464844 -4.726562 L 0.820312 -4.726562 L 0.820312 -3.597656 L 0.28125 -3.617188 L 0.28125 -3.121094 L 0.820312 -3.148438 L 0.820312 -0.804688 C 0.820312 -0.246094 1.066406 0 1.625 0 L 2.285156 0 L 2.285156 -0.539062 L 1.816406 -0.539062 C 1.550781 -0.539062 1.464844 -0.625 1.464844 -0.890625 L 1.464844 -3.148438 Z M 2.292969 -3.121094 "/></g></g><g style="fill:#000000;fill-opacity:1;"><g transform="translate(20.190793, 40.702747)"><path style="stroke:none" d="M 0.246094 -4.992188 L 0.246094 -4.425781 L 1.914062 -4.425781 L 1.914062 0 L 2.566406 0 L 2.566406 -4.425781 L 4.234375 -4.425781 L 4.234375 -4.992188 Z M 0.246094 -4.992188 "/></g></g><g style="fill:#000000;fill-opacity:1;"><g transform="translate(23.591594, 40.702747)"><path style="stroke:none" d="M 2.089844 0.0898438 C 3.105469 0.0898438 3.835938 -0.703125 3.835938 -1.835938 C 3.835938 -2.988281 3.121094 -3.710938 2.109375 -3.710938 C 1.074219 -3.710938 0.351562 -2.972656 0.351562 -1.808594 C 0.351562 -0.671875 1.050781 0.0898438 2.089844 0.0898438 Z M 2.089844 -0.449219 C 1.410156 -0.449219 0.996094 -0.988281 0.996094 -1.808594 C 0.996094 -2.628906 1.402344 -3.167969 2.089844 -3.167969 C 2.789062 -3.167969 3.191406 -2.65625 3.191406 -1.835938 C 3.191406 -1.015625 2.789062 -0.449219 2.089844 -0.449219 Z M 2.089844 -0.449219 "/></g></g><g style="fill:#000000;fill-opacity:1;"><g transform="translate(27.539314, 40.702747)"><path style="stroke:none" d="M 2.960938 -1.605469 C 2.960938 -0.742188 2.425781 -0.46875 1.929688 -0.46875 C 1.4375 -0.46875 1.207031 -0.734375 1.207031 -1.234375 L 1.207031 -3.617188 L 0.5625 -3.617188 L 0.5625 -1.109375 C 0.5625 -0.34375 1.03125 0.0898438 1.789062 0.0898438 C 2.320312 0.0898438 2.753906 -0.125 3 -0.511719 L 3 0 L 3.605469 0 L 3.605469 -3.617188 L 2.960938 -3.617188 Z M 2.960938 -1.605469 "/></g></g><g style="fill:#000000;fill-opacity:1;"><g transform="translate(31.466002, 40.702747)"><path style="stroke:none" d="M 2.277344 -3.714844 C 1.730469 -3.714844 1.382812 -3.40625 1.164062 -2.925781 L 1.164062 -3.617188 L 0.5625 -3.617188 L 0.5625 0 L 1.207031 0 L 1.207031 -1.976562 C 1.234375 -2.714844 1.765625 -3.085938 2.242188 -3.085938 C 2.308594 -3.085938 2.378906 -3.085938 2.476562 -3.078125 L 2.476562 -3.703125 C 2.410156 -3.710938 2.347656 -3.714844 2.277344 -3.714844 Z M 2.277344 -3.714844 "/></g></g><g style="fill:#000000;fill-opacity:1;"><g transform="translate(174.686774, 40.702747)"><path style="stroke:none" d="M 3.890625 -2.9375 L 1.25 -2.9375 L 1.25 -4.992188 L 0.597656 -4.992188 L 0.597656 0 L 1.25 0 L 1.25 -2.371094 L 3.890625 -2.371094 L 3.890625 0 L 4.542969 0 L 4.542969 -4.992188 L 3.890625 -4.992188 Z M 3.890625 -2.9375 "/></g></g><g style="fill:#000000;fill-opacity:1;"><g transform="translate(179.588121, 40.702747)"><path style="stroke:none" d="M 2.089844 0.0898438 C 3.105469 0.0898438 3.835938 -0.703125 3.835938 -1.835938 C 3.835938 -2.988281 3.121094 -3.710938 2.109375 -3.710938 C 1.074219 -3.710938 0.351562 -2.972656 0.351562 -1.808594 C 0.351562 -0.671875 1.050781 0.0898438 2.089844 0.0898438 Z M 2.089844 -0.449219 C 1.410156 -0.449219 0.996094 -0.988281 0.996094 -1.808594 C 0.996094 -2.628906 1.402344 -3.167969 2.089844 -3.167969 C 2.789062 -3.167969 3.191406 -2.65625 3.191406 -1.835938 C 3.191406 -1.015625 2.789062 -0.449219 2.089844 -0.449219 Z M 2.089844 -0.449219 "/></g></g><g style="fill:#000000;fill-opacity:1;"><g transform="translate(183.535841, 40.702747)"><path style="stroke:none" d="M 2.292969 -3.121094 L 2.292969 -3.617188 L 1.464844 -3.589844 L 1.464844 -4.726562 L 0.820312 -4.726562 L 0.820312 -3.597656 L 0.28125 -3.617188 L 0.28125 -3.121094 L 0.820312 -3.148438 L 0.820312 -0.804688 C 0.820312 -0.246094 1.066406 0 1.625 0 L 2.285156 0 L 2.285156 -0.539062 L 1.816406 -0.539062 C 1.550781 -0.539062 1.464844 -0.625 1.464844 -0.890625 L 1.464844 -3.148438 Z M 2.292969 -3.121094 "/></g></g><g style="fill:#000000;fill-opacity:1;"><g transform="translate(185.8007, 40.702747)"><path style="stroke:none" d="M 3.710938 -1.894531 C 3.710938 -3.023438 3.070312 -3.703125 2.054688 -3.703125 C 0.976562 -3.703125 0.351562 -2.929688 0.351562 -1.824219 C 0.351562 -0.707031 0.988281 0.0859375 2.070312 0.0859375 C 2.839844 0.0859375 3.429688 -0.324219 3.660156 -1.03125 L 3.070312 -1.101562 C 2.902344 -0.679688 2.59375 -0.441406 2.089844 -0.441406 C 1.4375 -0.441406 1.015625 -0.839844 0.996094 -1.65625 L 3.710938 -1.65625 Z M 2.0625 -3.175781 C 2.652344 -3.175781 3.023438 -2.804688 3.105469 -2.117188 L 1.003906 -2.117188 C 1.066406 -2.824219 1.488281 -3.175781 2.0625 -3.175781 Z M 2.0625 -3.175781 "/></g></g><g style="fill:#000000;fill-opacity:1;"><g transform="translate(189.622204, 40.702747)"><path style="stroke:none" d="M 1.207031 0 L 1.207031 -4.992188 L 0.5625 -4.992188 L 0.5625 0 Z M 1.207031 0 "/></g></g><g clip-rule="nonzero" clip-path="url(#4600ac8fd9)"><g clip-rule="nonzero" clip-path="url(#5d950378ad)"><path style=" stroke:none;fill-rule:nonzero;fill:#f5f3eb;fill-opacity:1;" d="M 210.75 3.402344 L 259.007812 3.402344 L 259.007812 56.9375 L 210.75 56.9375 Z M 210.75 3.402344 "/></g></g><g clip-rule="nonzero" clip-path="url(#bfd0d21dab)"><path style=" stroke:none;fill-rule:nonzero;fill:#ec6408;fill-opacity:1;" d="M 234.941406 25.070312 C 233.914062 25.058594 233.113281 26.035156 233.320312 27.042969 C 233.515625 28.054688 234.628906 28.648438 235.574219 28.246094 C 237.230469 27.515625 236.753906 25.109375 234.941406 25.070312 "/></g><g clip-rule="nonzero" clip-path="url(#ef79e29b68)"><path style=" stroke:none;fill-rule:nonzero;fill:#ec6408;fill-opacity:1;" d="M 229.160156 25.070312 C 228.132812 25.058594 227.332031 26.035156 227.539062 27.042969 C 227.730469 28.054688 228.847656 28.648438 229.792969 28.246094 C 231.449219 27.515625 230.972656 25.109375 229.160156 25.070312 "/></g><g clip-rule="nonzero" clip-path="url(#37411efcdf)"><path style=" stroke:none;fill-rule:nonzero;fill:#ec6408;fill-opacity:1;" d="M 240.722656 25.070312 C 239.695312 25.058594 238.894531 26.035156 239.105469 27.042969 C 239.296875 28.054688 240.410156 28.648438 241.355469 28.246094 C 243.011719 27.515625 242.535156 25.109375 240.722656 25.070312 "/></g><g style="fill:#002a22;fill-opacity:1;"><g transform="translate(219.875435, 40.568259)"><path style="stroke:none" d="M 2.398438 0.105469 C 3.78125 0.105469 4.328125 -0.582031 4.328125 -1.375 C 4.328125 -2.152344 3.820312 -2.59375 2.894531 -2.789062 L 2.019531 -2.980469 C 1.394531 -3.113281 1.148438 -3.335938 1.148438 -3.730469 C 1.148438 -4.257812 1.570312 -4.558594 2.285156 -4.558594 C 3.050781 -4.558594 3.492188 -4.222656 3.546875 -3.589844 L 4.171875 -3.589844 C 4.089844 -4.550781 3.414062 -5.089844 2.308594 -5.089844 C 1.15625 -5.089844 0.53125 -4.515625 0.53125 -3.675781 C 0.53125 -2.882812 1.121094 -2.546875 1.933594 -2.378906 L 2.636719 -2.230469 C 3.414062 -2.070312 3.695312 -1.808594 3.695312 -1.339844 C 3.695312 -0.777344 3.273438 -0.425781 2.417969 -0.425781 C 1.554688 -0.425781 1.050781 -0.785156 0.980469 -1.613281 L 0.359375 -1.613281 C 0.441406 -0.460938 1.148438 0.105469 2.398438 0.105469 Z M 2.398438 0.105469 "/></g></g><g style="fill:#002a22;fill-opacity:1;"><g transform="translate(224.321002, 40.568259)"><path style="stroke:none" d="M 3.710938 -1.894531 C 3.710938 -3.023438 3.070312 -3.703125 2.054688 -3.703125 C 0.976562 -3.703125 0.351562 -2.929688 0.351562 -1.824219 C 0.351562 -0.707031 0.988281 0.0859375 2.070312 0.0859375 C 2.839844 0.0859375 3.429688 -0.324219 3.660156 -1.03125 L 3.070312 -1.101562 C 2.902344 -0.679688 2.59375 -0.441406 2.089844 -0.441406 C 1.4375 -0.441406 1.015625 -0.839844 0.996094 -1.65625 L 3.710938 -1.65625 Z M 2.0625 -3.175781 C 2.652344 -3.175781 3.023438 -2.804688 3.105469 -2.117188 L 1.003906 -2.117188 C 1.066406 -2.824219 1.488281 -3.175781 2.0625 -3.175781 Z M 2.0625 -3.175781 "/></g></g><g style="fill:#002a22;fill-opacity:1;"><g transform="translate(228.142507, 40.568259)"><path style="stroke:none" d="M 3.710938 -1.894531 C 3.710938 -3.023438 3.070312 -3.703125 2.054688 -3.703125 C 0.976562 -3.703125 0.351562 -2.929688 0.351562 -1.824219 C 0.351562 -0.707031 0.988281 0.0859375 2.070312 0.0859375 C 2.839844 0.0859375 3.429688 -0.324219 3.660156 -1.03125 L 3.070312 -1.101562 C 2.902344 -0.679688 2.59375 -0.441406 2.089844 -0.441406 C 1.4375 -0.441406 1.015625 -0.839844 0.996094 -1.65625 L 3.710938 -1.65625 Z M 2.0625 -3.175781 C 2.652344 -3.175781 3.023438 -2.804688 3.105469 -2.117188 L 1.003906 -2.117188 C 1.066406 -2.824219 1.488281 -3.175781 2.0625 -3.175781 Z M 2.0625 -3.175781 "/></g></g><g style="fill:#002a22;fill-opacity:1;"><g transform="translate(231.964011, 40.568259)"><path style="stroke:none" d=""/></g></g><g style="fill:#002a22;fill-opacity:1;"><g transform="translate(233.618833, 40.568259)"><path style="stroke:none" d="M 3.265625 -1.179688 L 3.097656 -0.679688 L 2.929688 -1.179688 L 1.515625 -4.992188 L 0.597656 -4.992188 L 0.597656 0 L 1.191406 0 L 1.191406 -3.308594 L 1.171875 -4.214844 L 1.5 -3.429688 L 2.789062 0 L 3.40625 0 L 4.601562 -3.316406 L 4.957031 -4.207031 L 4.945312 -3.308594 L 4.945312 0 L 5.539062 0 L 5.539062 -4.992188 L 4.636719 -4.992188 Z M 3.265625 -1.179688 "/></g></g><g style="fill:#002a22;fill-opacity:1;"><g transform="translate(239.515872, 40.568259)"><path style="stroke:none" d="M 2.089844 0.0898438 C 3.105469 0.0898438 3.835938 -0.703125 3.835938 -1.835938 C 3.835938 -2.988281 3.121094 -3.710938 2.109375 -3.710938 C 1.074219 -3.710938 0.351562 -2.972656 0.351562 -1.808594 C 0.351562 -0.671875 1.050781 0.0898438 2.089844 0.0898438 Z M 2.089844 -0.449219 C 1.410156 -0.449219 0.996094 -0.988281 0.996094 -1.808594 C 0.996094 -2.628906 1.402344 -3.167969 2.089844 -3.167969 C 2.789062 -3.167969 3.191406 -2.65625 3.191406 -1.835938 C 3.191406 -1.015625 2.789062 -0.449219 2.089844 -0.449219 Z M 2.089844 -0.449219 "/></g></g><g style="fill:#002a22;fill-opacity:1;"><g transform="translate(243.463593, 40.568259)"><path style="stroke:none" d="M 2.277344 -3.714844 C 1.730469 -3.714844 1.382812 -3.40625 1.164062 -2.925781 L 1.164062 -3.617188 L 0.5625 -3.617188 L 0.5625 0 L 1.207031 0 L 1.207031 -1.976562 C 1.234375 -2.714844 1.765625 -3.085938 2.242188 -3.085938 C 2.308594 -3.085938 2.378906 -3.085938 2.476562 -3.078125 L 2.476562 -3.703125 C 2.410156 -3.710938 2.347656 -3.714844 2.277344 -3.714844 Z M 2.277344 -3.714844 "/></g></g><g style="fill:#002a22;fill-opacity:1;"><g transform="translate(245.805584, 40.568259)"><path style="stroke:none" d="M 3.710938 -1.894531 C 3.710938 -3.023438 3.070312 -3.703125 2.054688 -3.703125 C 0.976562 -3.703125 0.351562 -2.929688 0.351562 -1.824219 C 0.351562 -0.707031 0.988281 0.0859375 2.070312 0.0859375 C 2.839844 0.0859375 3.429688 -0.324219 3.660156 -1.03125 L 3.070312 -1.101562 C 2.902344 -0.679688 2.59375 -0.441406 2.089844 -0.441406 C 1.4375 -0.441406 1.015625 -0.839844 0.996094 -1.65625 L 3.710938 -1.65625 Z M 2.0625 -3.175781 C 2.652344 -3.175781 3.023438 -2.804688 3.105469 -2.117188 L 1.003906 -2.117188 C 1.066406 -2.824219 1.488281 -3.175781 2.0625 -3.175781 Z M 2.0625 -3.175781 "/></g></g></g></svg>