<svg xmlns="http://www.w3.org/2000/svg" xmlns:xlink="http://www.w3.org/1999/xlink" width="150" zoomAndPan="magnify" viewBox="0 0 112.5 37.5" height="50" preserveAspectRatio="xMidYMid meet" version="1.2"><defs><clipPath id="0d0b111c2e"><path d="M 59.183594 1.707031 L 73.546875 1.707031 L 73.546875 15.957031 L 59.183594 15.957031 Z M 59.183594 1.707031 "/></clipPath><clipPath id="e9ebbd89aa"><path d="M 59.183594 13.960938 L 59.183594 3.703125 C 59.183594 2.601562 60.078125 1.707031 61.179688 1.707031 L 71.535156 1.707031 C 72.636719 1.707031 73.53125 2.601562 73.53125 3.703125 L 73.53125 13.960938 C 73.53125 15.0625 72.636719 15.957031 71.535156 15.957031 L 61.179688 15.957031 C 60.078125 15.957031 59.183594 15.0625 59.183594 13.960938 Z M 59.183594 13.960938 "/></clipPath><clipPath id="ce5ca1f58e"><path d="M 64 4.226562 L 69 4.226562 L 69 11 L 64 11 Z M 64 4.226562 "/></clipPath><clipPath id="614f69faea"><path d="M 62.5 8 L 70.121094 8 L 70.121094 13.273438 L 62.5 13.273438 Z M 62.5 8 "/></clipPath></defs><g id="a4be20d6af"><g style="fill:#191919;fill-opacity:1;"><g transform="translate(5.315785, 15.008576)"><path style="stroke:none" d="M 1.171875 0 L 1.171875 -2.421875 L 6.046875 -2.421875 C 6.171875 -2.421875 6.285156 -2.453125 6.390625 -2.515625 C 6.503906 -2.578125 6.59375 -2.660156 6.65625 -2.765625 C 6.71875 -2.867188 6.75 -2.976562 6.75 -3.09375 C 6.75 -3.226562 6.71875 -3.347656 6.65625 -3.453125 C 6.59375 -3.554688 6.503906 -3.640625 6.390625 -3.703125 C 6.285156 -3.765625 6.171875 -3.796875 6.046875 -3.796875 L 4.265625 -3.796875 C 3.609375 -3.796875 3.007812 -3.898438 2.46875 -4.109375 C 1.9375 -4.328125 1.515625 -4.671875 1.203125 -5.140625 C 0.898438 -5.609375 0.75 -6.21875 0.75 -6.96875 C 0.75 -7.550781 0.890625 -8.078125 1.171875 -8.546875 C 1.453125 -9.023438 1.835938 -9.40625 2.328125 -9.6875 C 2.828125 -9.976562 3.375 -10.125 3.96875 -10.125 L 8.84375 -10.125 L 8.84375 -7.6875 L 4.4375 -7.6875 C 4.257812 -7.6875 4.109375 -7.625 3.984375 -7.5 C 3.859375 -7.382812 3.796875 -7.242188 3.796875 -7.078125 C 3.796875 -6.890625 3.859375 -6.734375 3.984375 -6.609375 C 4.109375 -6.484375 4.257812 -6.421875 4.4375 -6.421875 L 6.1875 -6.421875 C 6.914062 -6.421875 7.546875 -6.3125 8.078125 -6.09375 C 8.617188 -5.875 9.035156 -5.523438 9.328125 -5.046875 C 9.628906 -4.578125 9.78125 -3.96875 9.78125 -3.21875 C 9.78125 -2.625 9.628906 -2.082031 9.328125 -1.59375 C 9.035156 -1.113281 8.640625 -0.726562 8.140625 -0.4375 C 7.648438 -0.144531 7.097656 0 6.484375 0 Z M 1.171875 0 "/></g></g><g style="fill:#191919;fill-opacity:1;"><g transform="translate(14.414403, 15.008576)"><path style="stroke:none" d="M 1.140625 0 L 1.140625 -5.984375 C 1.140625 -6.816406 1.332031 -7.5625 1.71875 -8.21875 C 2.113281 -8.882812 2.671875 -9.410156 3.390625 -9.796875 C 4.117188 -10.179688 4.984375 -10.375 5.984375 -10.375 C 6.484375 -10.375 6.941406 -10.316406 7.359375 -10.203125 C 7.785156 -10.085938 8.171875 -9.929688 8.515625 -9.734375 C 8.867188 -9.546875 9.171875 -9.320312 9.421875 -9.0625 L 9.453125 -9.0625 C 9.722656 -9.320312 10.03125 -9.546875 10.375 -9.734375 C 10.726562 -9.929688 11.117188 -10.085938 11.546875 -10.203125 C 11.972656 -10.316406 12.4375 -10.375 12.9375 -10.375 C 13.9375 -10.375 14.796875 -10.179688 15.515625 -9.796875 C 16.242188 -9.410156 16.804688 -8.882812 17.203125 -8.21875 C 17.597656 -7.5625 17.796875 -6.816406 17.796875 -5.984375 L 17.796875 0 L 14.71875 0 L 14.71875 -5.890625 C 14.71875 -6.210938 14.632812 -6.507812 14.46875 -6.78125 C 14.300781 -7.050781 14.078125 -7.269531 13.796875 -7.4375 C 13.523438 -7.613281 13.210938 -7.703125 12.859375 -7.703125 C 12.503906 -7.703125 12.179688 -7.613281 11.890625 -7.4375 C 11.609375 -7.269531 11.390625 -7.050781 11.234375 -6.78125 C 11.078125 -6.507812 11 -6.210938 11 -5.890625 L 11 0 L 7.9375 0 L 7.9375 -5.890625 C 7.9375 -6.210938 7.851562 -6.507812 7.6875 -6.78125 C 7.53125 -7.050781 7.304688 -7.269531 7.015625 -7.4375 C 6.734375 -7.613281 6.414062 -7.703125 6.0625 -7.703125 C 5.707031 -7.703125 5.390625 -7.613281 5.109375 -7.4375 C 4.828125 -7.269531 4.601562 -7.050781 4.4375 -6.78125 C 4.28125 -6.507812 4.203125 -6.210938 4.203125 -5.890625 L 4.203125 0 Z M 1.140625 0 "/></g></g><g style="fill:#191919;fill-opacity:1;"><g transform="translate(31.961134, 15.008576)"><path style="stroke:none" d="M 5.21875 0.234375 C 4.320312 0.234375 3.53125 0.00390625 2.84375 -0.453125 C 2.15625 -0.910156 1.617188 -1.53125 1.234375 -2.3125 C 0.859375 -3.101562 0.671875 -3.992188 0.671875 -4.984375 C 0.671875 -6.003906 0.894531 -6.921875 1.34375 -7.734375 C 1.789062 -8.546875 2.425781 -9.1875 3.25 -9.65625 C 4.070312 -10.132812 5.039062 -10.375 6.15625 -10.375 C 7.289062 -10.375 8.253906 -10.140625 9.046875 -9.671875 C 9.847656 -9.203125 10.460938 -8.5625 10.890625 -7.75 C 11.316406 -6.9375 11.53125 -6.03125 11.53125 -5.03125 L 11.53125 0 L 8.53125 0 L 8.53125 -1.625 L 8.453125 -1.625 C 8.265625 -1.269531 8.023438 -0.945312 7.734375 -0.65625 C 7.453125 -0.375 7.101562 -0.15625 6.6875 0 C 6.269531 0.15625 5.78125 0.234375 5.21875 0.234375 Z M 6.125 -2.40625 C 6.582031 -2.40625 6.984375 -2.519531 7.328125 -2.75 C 7.679688 -2.976562 7.945312 -3.296875 8.125 -3.703125 C 8.3125 -4.117188 8.40625 -4.578125 8.40625 -5.078125 C 8.40625 -5.566406 8.3125 -6.003906 8.125 -6.390625 C 7.945312 -6.785156 7.679688 -7.097656 7.328125 -7.328125 C 6.984375 -7.566406 6.582031 -7.6875 6.125 -7.6875 C 5.644531 -7.6875 5.226562 -7.566406 4.875 -7.328125 C 4.519531 -7.097656 4.25 -6.785156 4.0625 -6.390625 C 3.882812 -6.003906 3.796875 -5.566406 3.796875 -5.078125 C 3.796875 -4.578125 3.882812 -4.117188 4.0625 -3.703125 C 4.25 -3.296875 4.519531 -2.976562 4.875 -2.75 C 5.226562 -2.519531 5.644531 -2.40625 6.125 -2.40625 Z M 6.125 -2.40625 "/></g></g><g style="fill:#191919;fill-opacity:1;"><g transform="translate(43.250735, 15.008576)"><path style="stroke:none" d="M 1.0625 0 L 1.0625 -7.15625 C 1.0625 -8.070312 1.320312 -8.789062 1.84375 -9.3125 C 2.375 -9.84375 3.109375 -10.109375 4.046875 -10.109375 L 6.984375 -10.109375 L 6.984375 -7.625 L 4.796875 -7.625 C 4.609375 -7.625 4.445312 -7.5625 4.3125 -7.4375 C 4.1875 -7.3125 4.125 -7.148438 4.125 -6.953125 L 4.125 0 Z M 1.0625 0 "/></g></g><g style="fill:#191919;fill-opacity:1;"><g transform="translate(49.092487, 15.008576)"><path style="stroke:none" d="M 4.859375 0 C 3.921875 0 3.1875 -0.265625 2.65625 -0.796875 C 2.132812 -1.328125 1.875 -2.050781 1.875 -2.96875 L 1.875 -12.59375 L 4.953125 -12.59375 L 4.953125 -3.140625 C 4.953125 -2.984375 5.007812 -2.847656 5.125 -2.734375 C 5.238281 -2.617188 5.375 -2.5625 5.53125 -2.5625 L 7.734375 -2.5625 L 7.734375 0 Z M 0.21875 -7.625 L 0.21875 -10.125 L 7.734375 -10.125 L 7.734375 -7.625 Z M 0.21875 -7.625 "/></g></g><g style="fill:#191919;fill-opacity:1;"><g transform="translate(56.205443, 15.008576)"><path style="stroke:none" d=""/></g></g><g style="fill:#d18d1a;fill-opacity:1;"><g transform="translate(1.897477, 33.383403)"><path style="stroke:none" d=""/></g></g><g style="fill:#d18d1a;fill-opacity:1;"><g transform="translate(5.775155, 33.383403)"><path style="stroke:none" d="M 4.859375 0 C 3.921875 0 3.1875 -0.265625 2.65625 -0.796875 C 2.132812 -1.328125 1.875 -2.050781 1.875 -2.96875 L 1.875 -12.59375 L 4.953125 -12.59375 L 4.953125 -3.140625 C 4.953125 -2.984375 5.007812 -2.847656 5.125 -2.734375 C 5.238281 -2.617188 5.375 -2.5625 5.53125 -2.5625 L 7.734375 -2.5625 L 7.734375 0 Z M 0.21875 -7.625 L 0.21875 -10.125 L 7.734375 -10.125 L 7.734375 -7.625 Z M 0.21875 -7.625 "/></g></g><g style="fill:#d18d1a;fill-opacity:1;"><g transform="translate(12.880176, 33.383403)"><path style="stroke:none" d="M 6.15625 0.234375 C 5.125 0.234375 4.191406 0.00390625 3.359375 -0.453125 C 2.523438 -0.910156 1.867188 -1.539062 1.390625 -2.34375 C 0.910156 -3.15625 0.671875 -4.0625 0.671875 -5.0625 C 0.671875 -6.070312 0.910156 -6.972656 1.390625 -7.765625 C 1.867188 -8.566406 2.523438 -9.203125 3.359375 -9.671875 C 4.191406 -10.140625 5.125 -10.375 6.15625 -10.375 C 7.195312 -10.375 8.128906 -10.140625 8.953125 -9.671875 C 9.773438 -9.203125 10.425781 -8.566406 10.90625 -7.765625 C 11.394531 -6.972656 11.640625 -6.070312 11.640625 -5.0625 C 11.640625 -4.0625 11.394531 -3.15625 10.90625 -2.34375 C 10.425781 -1.539062 9.769531 -0.910156 8.9375 -0.453125 C 8.113281 0.00390625 7.1875 0.234375 6.15625 0.234375 Z M 6.15625 -2.421875 C 6.644531 -2.421875 7.066406 -2.539062 7.421875 -2.78125 C 7.773438 -3.019531 8.050781 -3.335938 8.25 -3.734375 C 8.445312 -4.128906 8.546875 -4.578125 8.546875 -5.078125 C 8.546875 -5.566406 8.445312 -6.003906 8.25 -6.390625 C 8.050781 -6.785156 7.773438 -7.101562 7.421875 -7.34375 C 7.066406 -7.582031 6.644531 -7.703125 6.15625 -7.703125 C 5.675781 -7.703125 5.253906 -7.582031 4.890625 -7.34375 C 4.523438 -7.101562 4.242188 -6.785156 4.046875 -6.390625 C 3.847656 -6.003906 3.75 -5.566406 3.75 -5.078125 C 3.75 -4.578125 3.847656 -4.128906 4.046875 -3.734375 C 4.242188 -3.335938 4.523438 -3.019531 4.890625 -2.78125 C 5.253906 -2.539062 5.675781 -2.421875 6.15625 -2.421875 Z M 6.15625 -2.421875 "/></g></g><g style="fill:#d18d1a;fill-opacity:1;"><g transform="translate(23.814483, 33.383403)"><path style="stroke:none" d="M 6.203125 0.234375 C 5.160156 0.234375 4.257812 0.0351562 3.5 -0.359375 C 2.75 -0.765625 2.164062 -1.3125 1.75 -2 C 1.34375 -2.695312 1.140625 -3.46875 1.140625 -4.3125 L 1.140625 -10.125 L 4.203125 -10.125 L 4.203125 -4.390625 C 4.203125 -4.023438 4.285156 -3.695312 4.453125 -3.40625 C 4.628906 -3.113281 4.863281 -2.875 5.15625 -2.6875 C 5.457031 -2.507812 5.800781 -2.421875 6.1875 -2.421875 C 6.550781 -2.421875 6.878906 -2.507812 7.171875 -2.6875 C 7.472656 -2.875 7.707031 -3.113281 7.875 -3.40625 C 8.050781 -3.695312 8.140625 -4.023438 8.140625 -4.390625 L 8.140625 -10.125 L 11.203125 -10.125 L 11.203125 -4.3125 C 11.203125 -3.46875 11.003906 -2.695312 10.609375 -2 C 10.210938 -1.3125 9.640625 -0.765625 8.890625 -0.359375 C 8.148438 0.0351562 7.253906 0.234375 6.203125 0.234375 Z M 6.203125 0.234375 "/></g></g><g style="fill:#d18d1a;fill-opacity:1;"><g transform="translate(34.788267, 33.383403)"><path style="stroke:none" d="M 1.0625 0 L 1.0625 -7.15625 C 1.0625 -8.070312 1.320312 -8.789062 1.84375 -9.3125 C 2.375 -9.84375 3.109375 -10.109375 4.046875 -10.109375 L 6.984375 -10.109375 L 6.984375 -7.625 L 4.796875 -7.625 C 4.609375 -7.625 4.445312 -7.5625 4.3125 -7.4375 C 4.1875 -7.3125 4.125 -7.148438 4.125 -6.953125 L 4.125 0 Z M 1.0625 0 "/></g></g><g style="fill:#d18d1a;fill-opacity:1;"><g transform="translate(40.630018, 33.383403)"><path style="stroke:none" d="M 1.140625 0 L 1.140625 -10.125 L 4.21875 -10.125 L 4.21875 0 Z M 2.6875 -11.265625 C 2.207031 -11.265625 1.785156 -11.441406 1.421875 -11.796875 C 1.066406 -12.160156 0.890625 -12.582031 0.890625 -13.0625 C 0.890625 -13.550781 1.066406 -13.976562 1.421875 -14.34375 C 1.785156 -14.707031 2.207031 -14.890625 2.6875 -14.890625 C 3.175781 -14.890625 3.597656 -14.707031 3.953125 -14.34375 C 4.304688 -13.976562 4.484375 -13.550781 4.484375 -13.0625 C 4.484375 -12.582031 4.304688 -12.160156 3.953125 -11.796875 C 3.597656 -11.441406 3.175781 -11.265625 2.6875 -11.265625 Z M 2.6875 -11.265625 "/></g></g><g style="fill:#d18d1a;fill-opacity:1;"><g transform="translate(44.596605, 33.383403)"><path style="stroke:none" d="M 1.171875 0 L 1.171875 -2.421875 L 6.046875 -2.421875 C 6.171875 -2.421875 6.285156 -2.453125 6.390625 -2.515625 C 6.503906 -2.578125 6.59375 -2.660156 6.65625 -2.765625 C 6.71875 -2.867188 6.75 -2.976562 6.75 -3.09375 C 6.75 -3.226562 6.71875 -3.347656 6.65625 -3.453125 C 6.59375 -3.554688 6.503906 -3.640625 6.390625 -3.703125 C 6.285156 -3.765625 6.171875 -3.796875 6.046875 -3.796875 L 4.265625 -3.796875 C 3.609375 -3.796875 3.007812 -3.898438 2.46875 -4.109375 C 1.9375 -4.328125 1.515625 -4.671875 1.203125 -5.140625 C 0.898438 -5.609375 0.75 -6.21875 0.75 -6.96875 C 0.75 -7.550781 0.890625 -8.078125 1.171875 -8.546875 C 1.453125 -9.023438 1.835938 -9.40625 2.328125 -9.6875 C 2.828125 -9.976562 3.375 -10.125 3.96875 -10.125 L 8.84375 -10.125 L 8.84375 -7.6875 L 4.4375 -7.6875 C 4.257812 -7.6875 4.109375 -7.625 3.984375 -7.5 C 3.859375 -7.382812 3.796875 -7.242188 3.796875 -7.078125 C 3.796875 -6.890625 3.859375 -6.734375 3.984375 -6.609375 C 4.109375 -6.484375 4.257812 -6.421875 4.4375 -6.421875 L 6.1875 -6.421875 C 6.914062 -6.421875 7.546875 -6.3125 8.078125 -6.09375 C 8.617188 -5.875 9.035156 -5.523438 9.328125 -5.046875 C 9.628906 -4.578125 9.78125 -3.96875 9.78125 -3.21875 C 9.78125 -2.625 9.628906 -2.082031 9.328125 -1.59375 C 9.035156 -1.113281 8.640625 -0.726562 8.140625 -0.4375 C 7.648438 -0.144531 7.097656 0 6.484375 0 Z M 1.171875 0 "/></g></g><g style="fill:#d18d1a;fill-opacity:1;"><g transform="translate(53.695223, 33.383403)"><path style="stroke:none" d="M 1.140625 0 L 1.140625 -5.984375 C 1.140625 -6.816406 1.332031 -7.5625 1.71875 -8.21875 C 2.113281 -8.882812 2.671875 -9.410156 3.390625 -9.796875 C 4.117188 -10.179688 4.984375 -10.375 5.984375 -10.375 C 6.484375 -10.375 6.941406 -10.316406 7.359375 -10.203125 C 7.785156 -10.085938 8.171875 -9.929688 8.515625 -9.734375 C 8.867188 -9.546875 9.171875 -9.320312 9.421875 -9.0625 L 9.453125 -9.0625 C 9.722656 -9.320312 10.03125 -9.546875 10.375 -9.734375 C 10.726562 -9.929688 11.117188 -10.085938 11.546875 -10.203125 C 11.972656 -10.316406 12.4375 -10.375 12.9375 -10.375 C 13.9375 -10.375 14.796875 -10.179688 15.515625 -9.796875 C 16.242188 -9.410156 16.804688 -8.882812 17.203125 -8.21875 C 17.597656 -7.5625 17.796875 -6.816406 17.796875 -5.984375 L 17.796875 0 L 14.71875 0 L 14.71875 -5.890625 C 14.71875 -6.210938 14.632812 -6.507812 14.46875 -6.78125 C 14.300781 -7.050781 14.078125 -7.269531 13.796875 -7.4375 C 13.523438 -7.613281 13.210938 -7.703125 12.859375 -7.703125 C 12.503906 -7.703125 12.179688 -7.613281 11.890625 -7.4375 C 11.609375 -7.269531 11.390625 -7.050781 11.234375 -6.78125 C 11.078125 -6.507812 11 -6.210938 11 -5.890625 L 11 0 L 7.9375 0 L 7.9375 -5.890625 C 7.9375 -6.210938 7.851562 -6.507812 7.6875 -6.78125 C 7.53125 -7.050781 7.304688 -7.269531 7.015625 -7.4375 C 6.734375 -7.613281 6.414062 -7.703125 6.0625 -7.703125 C 5.707031 -7.703125 5.390625 -7.613281 5.109375 -7.4375 C 4.828125 -7.269531 4.601562 -7.050781 4.4375 -6.78125 C 4.28125 -6.507812 4.203125 -6.210938 4.203125 -5.890625 L 4.203125 0 Z M 1.140625 0 "/></g></g><g clip-rule="nonzero" clip-path="url(#0d0b111c2e)"><g clip-rule="nonzero" clip-path="url(#e9ebbd89aa)"><path style=" stroke:none;fill-rule:nonzero;fill:#191919;fill-opacity:1;" d="M 59.183594 15.957031 L 59.183594 1.707031 L 73.546875 1.707031 L 73.546875 15.957031 Z M 59.183594 15.957031 "/></g></g><g clip-rule="nonzero" clip-path="url(#ce5ca1f58e)"><path style=" stroke:none;fill-rule:nonzero;fill:#d18d1a;fill-opacity:1;" d="M 66.289062 4.226562 C 65.136719 4.226562 64.199219 5.164062 64.199219 6.316406 C 64.199219 7.132812 65.242188 8.960938 65.855469 9.96875 C 66.054688 10.292969 66.523438 10.292969 66.722656 9.96875 C 67.335938 8.960938 68.378906 7.132812 68.378906 6.316406 C 68.378906 5.164062 67.441406 4.226562 66.289062 4.226562 Z M 66.289062 7.609375 C 65.601562 7.609375 65.042969 7.050781 65.042969 6.363281 C 65.042969 5.675781 65.601562 5.117188 66.289062 5.117188 C 66.976562 5.117188 67.535156 5.675781 67.535156 6.363281 C 67.535156 7.050781 66.976562 7.609375 66.289062 7.609375 Z M 66.289062 7.609375 "/></g><path style=" stroke:none;fill-rule:nonzero;fill:#d18d1a;fill-opacity:1;" d="M 66.976562 6.363281 C 66.976562 6.550781 66.90625 6.714844 66.773438 6.847656 C 66.640625 6.980469 66.480469 7.050781 66.289062 7.050781 C 66.101562 7.050781 65.9375 6.980469 65.804688 6.847656 C 65.671875 6.714844 65.601562 6.550781 65.601562 6.363281 C 65.601562 6.171875 65.671875 6.011719 65.804688 5.878906 C 65.9375 5.746094 66.101562 5.675781 66.289062 5.675781 C 66.480469 5.675781 66.640625 5.746094 66.773438 5.878906 C 66.90625 6.011719 66.976562 6.171875 66.976562 6.363281 Z M 66.976562 6.363281 "/><g clip-rule="nonzero" clip-path="url(#614f69faea)"><path style=" stroke:none;fill-rule:nonzero;fill:#d18d1a;fill-opacity:1;" d="M 70.003906 12.539062 L 69.378906 8.621094 C 69.332031 8.3125 69.066406 8.085938 68.753906 8.085938 L 68.0625 8.085938 C 67.984375 8.246094 67.902344 8.410156 67.816406 8.574219 L 68.289062 8.574219 C 68.542969 8.574219 68.757812 8.757812 68.800781 9.007812 L 68.949219 9.941406 L 68.71875 9.941406 C 68.207031 9.941406 67.722656 9.785156 67.3125 9.5 C 67.234375 9.640625 67.152344 9.78125 67.078125 9.910156 C 67.121094 9.941406 67.164062 9.96875 67.210938 9.996094 L 66.183594 11.191406 L 66.0625 11 C 65.835938 10.652344 65.449219 10.445312 65.035156 10.445312 L 64.421875 10.445312 L 65.371094 9.6875 C 65.292969 9.554688 65.214844 9.414062 65.136719 9.273438 L 63.667969 10.445312 L 63.550781 10.445312 L 63.78125 9.007812 C 63.820312 8.757812 64.035156 8.574219 64.289062 8.574219 L 64.761719 8.574219 C 64.675781 8.410156 64.59375 8.246094 64.519531 8.085938 L 63.828125 8.085938 C 63.515625 8.085938 63.246094 8.3125 63.199219 8.621094 L 62.574219 12.539062 C 62.511719 12.925781 62.8125 13.273438 63.203125 13.273438 L 69.375 13.273438 C 69.765625 13.273438 70.066406 12.925781 70.003906 12.539062 Z M 67.648438 10.210938 C 67.984375 10.34375 68.347656 10.410156 68.71875 10.410156 L 69.023438 10.410156 L 69.179688 11.386719 L 66.636719 11.386719 Z M 63.78125 12.789062 C 63.464844 12.789062 63.222656 12.503906 63.273438 12.191406 L 63.476562 10.914062 L 65.035156 10.914062 C 65.289062 10.914062 65.527344 11.042969 65.667969 11.257812 L 66.664062 12.789062 Z M 68.796875 12.789062 L 67.226562 12.789062 L 66.617188 11.855469 L 69.253906 11.855469 L 69.304688 12.191406 C 69.355469 12.503906 69.113281 12.789062 68.796875 12.789062 Z M 68.796875 12.789062 "/></g></g></svg>