<svg xmlns="http://www.w3.org/2000/svg" xmlns:xlink="http://www.w3.org/1999/xlink" width="150" zoomAndPan="magnify" viewBox="0 0 112.5 37.5" height="50" preserveAspectRatio="xMidYMid meet" version="1.2"><defs><clipPath id="593f0e6198"><path d="M 70.054688 1.476562 L 87.207031 1.476562 L 87.207031 18.496094 L 70.054688 18.496094 Z M 70.054688 1.476562 "/></clipPath><clipPath id="161a10d169"><path d="M 70.054688 16.5 L 70.054688 3.472656 C 70.054688 2.367188 70.949219 1.476562 72.050781 1.476562 L 85.191406 1.476562 C 86.296875 1.476562 87.1875 2.367188 87.1875 3.472656 L 87.1875 16.5 C 87.1875 17.601562 86.296875 18.496094 85.191406 18.496094 L 72.050781 18.496094 C 70.949219 18.496094 70.054688 17.601562 70.054688 16.5 Z M 70.054688 16.5 "/></clipPath><clipPath id="4c57f699c6"><path d="M 76 4.488281 L 81 4.488281 L 81 12 L 76 12 Z M 76 4.488281 "/></clipPath><clipPath id="f780fc9528"><path d="M 74.019531 9 L 82.898438 9 L 82.898438 15.589844 L 74.019531 15.589844 Z M 74.019531 9 "/></clipPath></defs><g id="d40f18f30c"><g style="fill:#191919;fill-opacity:1;"><g transform="translate(12.414444, 15.714167)"><path style="stroke:none" d="M 1.25 0 L 1.25 -2.59375 L 6.46875 -2.59375 C 6.601562 -2.59375 6.726562 -2.625 6.84375 -2.6875 C 6.957031 -2.75 7.046875 -2.835938 7.109375 -2.953125 C 7.179688 -3.066406 7.21875 -3.1875 7.21875 -3.3125 C 7.21875 -3.457031 7.179688 -3.582031 7.109375 -3.6875 C 7.046875 -3.800781 6.957031 -3.890625 6.84375 -3.953125 C 6.726562 -4.023438 6.601562 -4.0625 6.46875 -4.0625 L 4.5625 -4.0625 C 3.851562 -4.0625 3.210938 -4.175781 2.640625 -4.40625 C 2.078125 -4.632812 1.628906 -5 1.296875 -5.5 C 0.960938 -6 0.796875 -6.648438 0.796875 -7.453125 C 0.796875 -8.078125 0.945312 -8.640625 1.25 -9.140625 C 1.5625 -9.648438 1.976562 -10.0625 2.5 -10.375 C 3.03125 -10.6875 3.613281 -10.84375 4.25 -10.84375 L 9.46875 -10.84375 L 9.46875 -8.21875 L 4.75 -8.21875 C 4.550781 -8.21875 4.382812 -8.15625 4.25 -8.03125 C 4.125 -7.90625 4.0625 -7.75 4.0625 -7.5625 C 4.0625 -7.363281 4.125 -7.195312 4.25 -7.0625 C 4.382812 -6.925781 4.550781 -6.859375 4.75 -6.859375 L 6.609375 -6.859375 C 7.398438 -6.859375 8.078125 -6.742188 8.640625 -6.515625 C 9.210938 -6.285156 9.65625 -5.914062 9.96875 -5.40625 C 10.289062 -4.894531 10.453125 -4.238281 10.453125 -3.4375 C 10.453125 -2.8125 10.289062 -2.234375 9.96875 -1.703125 C 9.65625 -1.179688 9.234375 -0.765625 8.703125 -0.453125 C 8.179688 -0.148438 7.585938 0 6.921875 0 Z M 1.25 0 "/></g></g><g style="fill:#191919;fill-opacity:1;"><g transform="translate(22.150343, 15.714167)"><path style="stroke:none" d="M 1.21875 0 L 1.21875 -6.40625 C 1.21875 -7.289062 1.425781 -8.085938 1.84375 -8.796875 C 2.257812 -9.503906 2.851562 -10.0625 3.625 -10.46875 C 4.40625 -10.882812 5.332031 -11.09375 6.40625 -11.09375 C 6.9375 -11.09375 7.425781 -11.03125 7.875 -10.90625 C 8.332031 -10.789062 8.742188 -10.628906 9.109375 -10.421875 C 9.484375 -10.222656 9.804688 -9.984375 10.078125 -9.703125 L 10.125 -9.703125 C 10.40625 -9.984375 10.726562 -10.222656 11.09375 -10.421875 C 11.46875 -10.628906 11.882812 -10.789062 12.34375 -10.90625 C 12.800781 -11.03125 13.300781 -11.09375 13.84375 -11.09375 C 14.90625 -11.09375 15.820312 -10.882812 16.59375 -10.46875 C 17.375 -10.0625 17.972656 -9.503906 18.390625 -8.796875 C 18.816406 -8.085938 19.03125 -7.289062 19.03125 -6.40625 L 19.03125 0 L 15.734375 0 L 15.734375 -6.296875 C 15.734375 -6.648438 15.644531 -6.96875 15.46875 -7.25 C 15.289062 -7.539062 15.054688 -7.773438 14.765625 -7.953125 C 14.472656 -8.140625 14.132812 -8.234375 13.75 -8.234375 C 13.375 -8.234375 13.035156 -8.140625 12.734375 -7.953125 C 12.429688 -7.773438 12.191406 -7.539062 12.015625 -7.25 C 11.847656 -6.96875 11.765625 -6.648438 11.765625 -6.296875 L 11.765625 0 L 8.5 0 L 8.5 -6.296875 C 8.5 -6.648438 8.410156 -6.96875 8.234375 -7.25 C 8.054688 -7.539062 7.816406 -7.773438 7.515625 -7.953125 C 7.210938 -8.140625 6.867188 -8.234375 6.484375 -8.234375 C 6.109375 -8.234375 5.765625 -8.140625 5.453125 -7.953125 C 5.148438 -7.773438 4.914062 -7.539062 4.75 -7.25 C 4.582031 -6.96875 4.5 -6.648438 4.5 -6.296875 L 4.5 0 Z M 1.21875 0 "/></g></g><g style="fill:#191919;fill-opacity:1;"><g transform="translate(40.926073, 15.714167)"><path style="stroke:none" d="M 5.578125 0.25 C 4.617188 0.25 3.769531 0.00390625 3.03125 -0.484375 C 2.300781 -0.972656 1.734375 -1.632812 1.328125 -2.46875 C 0.921875 -3.3125 0.71875 -4.265625 0.71875 -5.328125 C 0.71875 -6.421875 0.957031 -7.398438 1.4375 -8.265625 C 1.914062 -9.128906 2.59375 -9.816406 3.46875 -10.328125 C 4.351562 -10.835938 5.394531 -11.09375 6.59375 -11.09375 C 7.800781 -11.09375 8.832031 -10.84375 9.6875 -10.34375 C 10.539062 -9.84375 11.195312 -9.160156 11.65625 -8.296875 C 12.113281 -7.429688 12.34375 -6.460938 12.34375 -5.390625 L 12.34375 0 L 9.125 0 L 9.125 -1.734375 L 9.046875 -1.734375 C 8.847656 -1.347656 8.59375 -1.003906 8.28125 -0.703125 C 7.96875 -0.398438 7.585938 -0.164062 7.140625 0 C 6.703125 0.164062 6.179688 0.25 5.578125 0.25 Z M 6.546875 -2.578125 C 7.035156 -2.578125 7.46875 -2.695312 7.84375 -2.9375 C 8.21875 -3.1875 8.503906 -3.53125 8.703125 -3.96875 C 8.898438 -4.40625 9 -4.890625 9 -5.421875 C 9 -5.941406 8.898438 -6.414062 8.703125 -6.84375 C 8.503906 -7.269531 8.21875 -7.601562 7.84375 -7.84375 C 7.46875 -8.09375 7.035156 -8.21875 6.546875 -8.21875 C 6.035156 -8.21875 5.585938 -8.09375 5.203125 -7.84375 C 4.828125 -7.601562 4.539062 -7.269531 4.34375 -6.84375 C 4.15625 -6.414062 4.0625 -5.941406 4.0625 -5.421875 C 4.0625 -4.890625 4.15625 -4.40625 4.34375 -3.96875 C 4.539062 -3.53125 4.828125 -3.1875 5.203125 -2.9375 C 5.585938 -2.695312 6.035156 -2.578125 6.546875 -2.578125 Z M 6.546875 -2.578125 "/></g></g><g style="fill:#191919;fill-opacity:1;"><g transform="translate(53.006414, 15.714167)"><path style="stroke:none" d="M 1.140625 0 L 1.140625 -7.640625 C 1.140625 -8.628906 1.421875 -9.40625 1.984375 -9.96875 C 2.546875 -10.53125 3.328125 -10.8125 4.328125 -10.8125 L 7.484375 -10.8125 L 7.484375 -8.15625 L 5.140625 -8.15625 C 4.941406 -8.15625 4.769531 -8.085938 4.625 -7.953125 C 4.488281 -7.816406 4.421875 -7.644531 4.421875 -7.4375 L 4.421875 0 Z M 1.140625 0 "/></g></g><g style="fill:#191919;fill-opacity:1;"><g transform="translate(59.257331, 15.714167)"><path style="stroke:none" d="M 5.203125 0 C 4.203125 0 3.414062 -0.285156 2.84375 -0.859375 C 2.28125 -1.429688 2 -2.203125 2 -3.171875 L 2 -13.484375 L 5.296875 -13.484375 L 5.296875 -3.359375 C 5.296875 -3.191406 5.351562 -3.046875 5.46875 -2.921875 C 5.59375 -2.804688 5.742188 -2.75 5.921875 -2.75 L 8.28125 -2.75 L 8.28125 0 Z M 0.234375 -8.15625 L 0.234375 -10.84375 L 8.28125 -10.84375 L 8.28125 -8.15625 Z M 0.234375 -8.15625 "/></g></g><g style="fill:#191919;fill-opacity:1;"><g transform="translate(66.868488, 15.714167)"><path style="stroke:none" d=""/></g></g><g style="fill:#d18d1a;fill-opacity:1;"><g transform="translate(4.617907, 35.375994)"><path style="stroke:none" d=""/></g></g><g style="fill:#d18d1a;fill-opacity:1;"><g transform="translate(8.756713, 35.375994)"><path style="stroke:none" d=""/></g></g><g style="fill:#d18d1a;fill-opacity:1;"><g transform="translate(12.90599, 35.375994)"><path style="stroke:none" d="M 5.203125 0 C 4.203125 0 3.414062 -0.285156 2.84375 -0.859375 C 2.28125 -1.429688 2 -2.203125 2 -3.171875 L 2 -13.484375 L 5.296875 -13.484375 L 5.296875 -3.359375 C 5.296875 -3.191406 5.351562 -3.046875 5.46875 -2.921875 C 5.59375 -2.804688 5.742188 -2.75 5.921875 -2.75 L 8.28125 -2.75 L 8.28125 0 Z M 0.234375 -8.15625 L 0.234375 -10.84375 L 8.28125 -10.84375 L 8.28125 -8.15625 Z M 0.234375 -8.15625 "/></g></g><g style="fill:#d18d1a;fill-opacity:1;"><g transform="translate(20.508657, 35.375994)"><path style="stroke:none" d="M 6.59375 0.25 C 5.476562 0.25 4.476562 0.00390625 3.59375 -0.484375 C 2.707031 -0.972656 2.003906 -1.644531 1.484375 -2.5 C 0.972656 -3.363281 0.71875 -4.332031 0.71875 -5.40625 C 0.71875 -6.488281 0.972656 -7.457031 1.484375 -8.3125 C 2.003906 -9.164062 2.707031 -9.84375 3.59375 -10.34375 C 4.476562 -10.84375 5.476562 -11.09375 6.59375 -11.09375 C 7.707031 -11.09375 8.703125 -10.84375 9.578125 -10.34375 C 10.460938 -9.84375 11.160156 -9.164062 11.671875 -8.3125 C 12.179688 -7.457031 12.4375 -6.488281 12.4375 -5.40625 C 12.4375 -4.332031 12.179688 -3.363281 11.671875 -2.5 C 11.160156 -1.644531 10.457031 -0.972656 9.5625 -0.484375 C 8.675781 0.00390625 7.6875 0.25 6.59375 0.25 Z M 6.59375 -2.59375 C 7.113281 -2.59375 7.5625 -2.71875 7.9375 -2.96875 C 8.320312 -3.226562 8.617188 -3.566406 8.828125 -3.984375 C 9.035156 -4.410156 9.140625 -4.890625 9.140625 -5.421875 C 9.140625 -5.941406 9.035156 -6.414062 8.828125 -6.84375 C 8.617188 -7.269531 8.320312 -7.609375 7.9375 -7.859375 C 7.5625 -8.109375 7.113281 -8.234375 6.59375 -8.234375 C 6.070312 -8.234375 5.613281 -8.109375 5.21875 -7.859375 C 4.832031 -7.609375 4.535156 -7.269531 4.328125 -6.84375 C 4.117188 -6.414062 4.015625 -5.941406 4.015625 -5.421875 C 4.015625 -4.890625 4.117188 -4.410156 4.328125 -3.984375 C 4.535156 -3.566406 4.832031 -3.226562 5.21875 -2.96875 C 5.613281 -2.71875 6.070312 -2.59375 6.59375 -2.59375 Z M 6.59375 -2.59375 "/></g></g><g style="fill:#d18d1a;fill-opacity:1;"><g transform="translate(32.208818, 35.375994)"><path style="stroke:none" d="M 6.640625 0.25 C 5.523438 0.25 4.5625 0.0351562 3.75 -0.390625 C 2.9375 -0.816406 2.3125 -1.398438 1.875 -2.140625 C 1.4375 -2.878906 1.21875 -3.703125 1.21875 -4.609375 L 1.21875 -10.84375 L 4.5 -10.84375 L 4.5 -4.6875 C 4.5 -4.3125 4.585938 -3.960938 4.765625 -3.640625 C 4.953125 -3.328125 5.203125 -3.070312 5.515625 -2.875 C 5.835938 -2.6875 6.203125 -2.59375 6.609375 -2.59375 C 7.003906 -2.59375 7.359375 -2.6875 7.671875 -2.875 C 7.992188 -3.070312 8.242188 -3.328125 8.421875 -3.640625 C 8.609375 -3.960938 8.703125 -4.3125 8.703125 -4.6875 L 8.703125 -10.84375 L 11.984375 -10.84375 L 11.984375 -4.609375 C 11.984375 -3.703125 11.769531 -2.878906 11.34375 -2.140625 C 10.914062 -1.398438 10.304688 -0.816406 9.515625 -0.390625 C 8.722656 0.0351562 7.765625 0.25 6.640625 0.25 Z M 6.640625 0.25 "/></g></g><g style="fill:#d18d1a;fill-opacity:1;"><g transform="translate(43.951222, 35.375994)"><path style="stroke:none" d="M 1.140625 0 L 1.140625 -7.640625 C 1.140625 -8.628906 1.421875 -9.40625 1.984375 -9.96875 C 2.546875 -10.53125 3.328125 -10.8125 4.328125 -10.8125 L 7.484375 -10.8125 L 7.484375 -8.15625 L 5.140625 -8.15625 C 4.941406 -8.15625 4.769531 -8.085938 4.625 -7.953125 C 4.488281 -7.816406 4.421875 -7.644531 4.421875 -7.4375 L 4.421875 0 Z M 1.140625 0 "/></g></g><g style="fill:#d18d1a;fill-opacity:1;"><g transform="translate(50.202138, 35.375994)"><path style="stroke:none" d="M 1.21875 0 L 1.21875 -10.84375 L 4.515625 -10.84375 L 4.515625 0 Z M 2.859375 -12.0625 C 2.335938 -12.0625 1.882812 -12.25 1.5 -12.625 C 1.125 -13.007812 0.9375 -13.460938 0.9375 -13.984375 C 0.9375 -14.503906 1.125 -14.957031 1.5 -15.34375 C 1.882812 -15.738281 2.335938 -15.9375 2.859375 -15.9375 C 3.378906 -15.9375 3.828125 -15.738281 4.203125 -15.34375 C 4.585938 -14.957031 4.78125 -14.503906 4.78125 -13.984375 C 4.78125 -13.460938 4.585938 -13.007812 4.203125 -12.625 C 3.828125 -12.25 3.378906 -12.0625 2.859375 -12.0625 Z M 2.859375 -12.0625 "/></g></g><g style="fill:#d18d1a;fill-opacity:1;"><g transform="translate(54.44655, 35.375994)"><path style="stroke:none" d="M 1.25 0 L 1.25 -2.59375 L 6.46875 -2.59375 C 6.601562 -2.59375 6.726562 -2.625 6.84375 -2.6875 C 6.957031 -2.75 7.046875 -2.835938 7.109375 -2.953125 C 7.179688 -3.066406 7.21875 -3.1875 7.21875 -3.3125 C 7.21875 -3.457031 7.179688 -3.582031 7.109375 -3.6875 C 7.046875 -3.800781 6.957031 -3.890625 6.84375 -3.953125 C 6.726562 -4.023438 6.601562 -4.0625 6.46875 -4.0625 L 4.5625 -4.0625 C 3.851562 -4.0625 3.210938 -4.175781 2.640625 -4.40625 C 2.078125 -4.632812 1.628906 -5 1.296875 -5.5 C 0.960938 -6 0.796875 -6.648438 0.796875 -7.453125 C 0.796875 -8.078125 0.945312 -8.640625 1.25 -9.140625 C 1.5625 -9.648438 1.976562 -10.0625 2.5 -10.375 C 3.03125 -10.6875 3.613281 -10.84375 4.25 -10.84375 L 9.46875 -10.84375 L 9.46875 -8.21875 L 4.75 -8.21875 C 4.550781 -8.21875 4.382812 -8.15625 4.25 -8.03125 C 4.125 -7.90625 4.0625 -7.75 4.0625 -7.5625 C 4.0625 -7.363281 4.125 -7.195312 4.25 -7.0625 C 4.382812 -6.925781 4.550781 -6.859375 4.75 -6.859375 L 6.609375 -6.859375 C 7.398438 -6.859375 8.078125 -6.742188 8.640625 -6.515625 C 9.210938 -6.285156 9.65625 -5.914062 9.96875 -5.40625 C 10.289062 -4.894531 10.453125 -4.238281 10.453125 -3.4375 C 10.453125 -2.8125 10.289062 -2.234375 9.96875 -1.703125 C 9.65625 -1.179688 9.234375 -0.765625 8.703125 -0.453125 C 8.179688 -0.148438 7.585938 0 6.921875 0 Z M 1.25 0 "/></g></g><g style="fill:#d18d1a;fill-opacity:1;"><g transform="translate(64.182448, 35.375994)"><path style="stroke:none" d="M 1.21875 0 L 1.21875 -6.40625 C 1.21875 -7.289062 1.425781 -8.085938 1.84375 -8.796875 C 2.257812 -9.503906 2.851562 -10.0625 3.625 -10.46875 C 4.40625 -10.882812 5.332031 -11.09375 6.40625 -11.09375 C 6.9375 -11.09375 7.425781 -11.03125 7.875 -10.90625 C 8.332031 -10.789062 8.742188 -10.628906 9.109375 -10.421875 C 9.484375 -10.222656 9.804688 -9.984375 10.078125 -9.703125 L 10.125 -9.703125 C 10.40625 -9.984375 10.726562 -10.222656 11.09375 -10.421875 C 11.46875 -10.628906 11.882812 -10.789062 12.34375 -10.90625 C 12.800781 -11.03125 13.300781 -11.09375 13.84375 -11.09375 C 14.90625 -11.09375 15.820312 -10.882812 16.59375 -10.46875 C 17.375 -10.0625 17.972656 -9.503906 18.390625 -8.796875 C 18.816406 -8.085938 19.03125 -7.289062 19.03125 -6.40625 L 19.03125 0 L 15.734375 0 L 15.734375 -6.296875 C 15.734375 -6.648438 15.644531 -6.96875 15.46875 -7.25 C 15.289062 -7.539062 15.054688 -7.773438 14.765625 -7.953125 C 14.472656 -8.140625 14.132812 -8.234375 13.75 -8.234375 C 13.375 -8.234375 13.035156 -8.140625 12.734375 -7.953125 C 12.429688 -7.773438 12.191406 -7.539062 12.015625 -7.25 C 11.847656 -6.96875 11.765625 -6.648438 11.765625 -6.296875 L 11.765625 0 L 8.5 0 L 8.5 -6.296875 C 8.5 -6.648438 8.410156 -6.96875 8.234375 -7.25 C 8.054688 -7.539062 7.816406 -7.773438 7.515625 -7.953125 C 7.210938 -8.140625 6.867188 -8.234375 6.484375 -8.234375 C 6.109375 -8.234375 5.765625 -8.140625 5.453125 -7.953125 C 5.148438 -7.773438 4.914062 -7.539062 4.75 -7.25 C 4.582031 -6.96875 4.5 -6.648438 4.5 -6.296875 L 4.5 0 Z M 1.21875 0 "/></g></g><g clip-rule="nonzero" clip-path="url(#593f0e6198)"><g clip-rule="nonzero" clip-path="url(#161a10d169)"><path style=" stroke:none;fill-rule:nonzero;fill:#191919;fill-opacity:1;" d="M 70.054688 18.496094 L 70.054688 1.476562 L 87.207031 1.476562 L 87.207031 18.496094 Z M 70.054688 18.496094 "/></g></g><g clip-rule="nonzero" clip-path="url(#4c57f699c6)"><path style=" stroke:none;fill-rule:nonzero;fill:#d18d1a;fill-opacity:1;" d="M 78.460938 4.492188 C 77.109375 4.492188 76.011719 5.585938 76.011719 6.941406 C 76.011719 7.898438 77.234375 10.042969 77.953125 11.222656 C 78.183594 11.605469 78.738281 11.605469 78.972656 11.222656 C 79.6875 10.042969 80.910156 7.898438 80.910156 6.941406 C 80.910156 5.585938 79.8125 4.492188 78.460938 4.492188 Z M 78.460938 8.457031 C 77.65625 8.457031 77 7.800781 77 6.996094 C 77 6.191406 77.65625 5.535156 78.460938 5.535156 C 79.265625 5.535156 79.921875 6.191406 79.921875 6.996094 C 79.921875 7.800781 79.265625 8.457031 78.460938 8.457031 Z M 78.460938 8.457031 "/></g><path style=" stroke:none;fill-rule:nonzero;fill:#d18d1a;fill-opacity:1;" d="M 79.265625 6.996094 C 79.265625 7.21875 79.1875 7.40625 79.03125 7.566406 C 78.875 7.722656 78.683594 7.800781 78.460938 7.800781 C 78.238281 7.800781 78.050781 7.722656 77.890625 7.566406 C 77.734375 7.40625 77.65625 7.21875 77.65625 6.996094 C 77.65625 6.773438 77.734375 6.582031 77.890625 6.425781 C 78.050781 6.269531 78.238281 6.191406 78.460938 6.191406 C 78.683594 6.191406 78.875 6.269531 79.03125 6.425781 C 79.1875 6.582031 79.265625 6.773438 79.265625 6.996094 Z M 79.265625 6.996094 "/><g clip-rule="nonzero" clip-path="url(#f780fc9528)"><path style=" stroke:none;fill-rule:nonzero;fill:#d18d1a;fill-opacity:1;" d="M 82.820312 14.238281 L 82.085938 9.644531 C 82.027344 9.28125 81.71875 9.015625 81.351562 9.015625 L 80.539062 9.015625 C 80.449219 9.203125 80.351562 9.394531 80.253906 9.585938 L 80.808594 9.585938 C 81.105469 9.585938 81.359375 9.804688 81.40625 10.097656 L 81.578125 11.191406 L 81.3125 11.191406 C 80.710938 11.191406 80.144531 11.011719 79.664062 10.675781 C 79.566406 10.839844 79.476562 11.003906 79.382812 11.15625 C 79.4375 11.191406 79.488281 11.226562 79.542969 11.257812 L 78.339844 12.65625 L 78.195312 12.4375 C 77.929688 12.027344 77.476562 11.78125 76.988281 11.78125 L 76.273438 11.78125 L 77.386719 10.894531 C 77.296875 10.738281 77.203125 10.574219 77.109375 10.40625 L 75.386719 11.78125 L 75.25 11.78125 L 75.519531 10.097656 C 75.566406 9.804688 75.816406 9.585938 76.117188 9.585938 L 76.667969 9.585938 C 76.570312 9.394531 76.472656 9.203125 76.382812 9.015625 L 75.574219 9.015625 C 75.207031 9.015625 74.894531 9.28125 74.835938 9.644531 L 74.105469 14.238281 C 74.03125 14.691406 74.382812 15.101562 74.839844 15.101562 L 82.082031 15.101562 C 82.539062 15.101562 82.890625 14.691406 82.820312 14.238281 Z M 80.054688 11.507812 C 80.449219 11.664062 80.875 11.746094 81.308594 11.746094 L 81.667969 11.746094 L 81.847656 12.886719 L 78.871094 12.886719 Z M 75.519531 14.53125 C 75.148438 14.53125 74.863281 14.199219 74.921875 13.828125 L 75.160156 12.335938 L 76.988281 12.335938 C 77.289062 12.335938 77.566406 12.484375 77.730469 12.738281 L 78.898438 14.53125 Z M 81.402344 14.53125 L 79.558594 14.53125 L 78.847656 13.4375 L 81.9375 13.4375 L 82 13.828125 C 82.058594 14.199219 81.773438 14.53125 81.402344 14.53125 Z M 81.402344 14.53125 "/></g></g></svg>